<svg width="400" height="350" viewBox="0 0 400 350" fill="none" xmlns="http://www.w3.org/2000/svg">
<path d="M366.667 50H300L258.333 0H141.667L100 50H33.3333C24.4928 50 16.0143 53.5119 9.76311 59.7631C3.5119 66.0143 0 74.4928 0 83.3333L0 316.667C0 325.507 3.5119 333.986 9.76311 340.237C16.0143 346.488 24.4928 350 33.3333 350H366.667C375.507 350 383.986 346.488 390.237 340.237C396.488 333.986 400 325.507 400 316.667V83.3333C400 74.4928 396.488 66.0143 390.237 59.7631C383.986 53.5119 375.507 50 366.667 50V50ZM200 283.333C181.87 283.333 164.147 277.957 149.073 267.885C133.998 257.812 122.249 243.496 115.311 226.746C108.373 209.996 106.558 191.565 110.095 173.783C113.632 156.002 122.362 139.668 135.182 126.849C148.002 114.029 164.335 105.298 182.117 101.761C199.898 98.2244 218.329 100.04 235.079 106.978C251.829 113.916 266.146 125.665 276.218 140.739C286.29 155.814 291.667 173.537 291.667 191.667C291.667 215.978 282.009 239.294 264.818 256.485C247.627 273.676 224.312 283.333 200 283.333Z" fill="#D6D4D4"/>
<path d="M200 250C232.217 250 258.333 223.883 258.333 191.667C258.333 159.45 232.217 133.333 200 133.333C167.783 133.333 141.667 159.45 141.667 191.667C141.667 223.883 167.783 250 200 250Z" fill="#D6D4D4"/>
</svg>
