<svg width="400" height="400" viewBox="0 0 400 400" fill="none" xmlns="http://www.w3.org/2000/svg">
<path d="M56 323.812C56 326.625 55.6354 329.135 54.9062 331.344C54.1771 333.552 53.125 335.417 51.75 336.938C50.375 338.458 48.7083 339.625 46.75 340.438C44.8125 341.229 42.6146 341.625 40.1562 341.625C37.8646 341.625 35.7604 341.229 33.8438 340.438C31.9479 339.625 30.3021 338.458 28.9062 336.938C27.5312 335.417 26.4583 333.552 25.6875 331.344C24.9375 329.135 24.5625 326.625 24.5625 323.812C24.5625 320.062 25.1979 316.875 26.4688 314.25C27.7396 311.604 29.5521 309.594 31.9062 308.219C34.2812 306.823 37.1042 306.125 40.375 306.125C43.5 306.125 46.2292 306.823 48.5625 308.219C50.9167 309.615 52.7396 311.635 54.0312 314.281C55.3438 316.906 56 320.083 56 323.812ZM29.9375 323.812C29.9375 326.562 30.3021 328.948 31.0312 330.969C31.7604 332.99 32.8854 334.552 34.4062 335.656C35.9271 336.76 37.8854 337.312 40.2812 337.312C42.6562 337.312 44.6042 336.76 46.125 335.656C47.6667 334.552 48.8021 332.99 49.5312 330.969C50.2604 328.948 50.625 326.562 50.625 323.812C50.625 321.083 50.2604 318.729 49.5312 316.75C48.8021 314.75 47.6771 313.208 46.1562 312.125C44.6354 311.042 42.6667 310.5 40.25 310.5C36.6875 310.5 34.0729 311.677 32.4062 314.031C30.7604 316.385 29.9375 319.646 29.9375 323.812ZM88.3125 311.156H77.0312V341H71.9062V311.156H60.7812V306.75H88.3125V311.156ZM108.812 341.625C105.729 341.625 103.01 340.99 100.656 339.719C98.3021 338.448 96.4688 336.51 95.1562 333.906C93.8438 331.302 93.1875 328.021 93.1875 324.062C93.1875 319.917 93.875 316.531 95.25 313.906C96.6458 311.26 98.5625 309.302 101 308.031C103.438 306.76 106.208 306.125 109.312 306.125C111.021 306.125 112.667 306.302 114.25 306.656C115.854 306.99 117.167 307.417 118.188 307.938L116.625 312.281C115.583 311.865 114.375 311.49 113 311.156C111.646 310.823 110.375 310.656 109.188 310.656C106.812 310.656 104.833 311.167 103.25 312.188C101.688 313.208 100.51 314.708 99.7188 316.688C98.9479 318.667 98.5625 321.104 98.5625 324C98.5625 326.771 98.9375 329.135 99.6875 331.094C100.458 333.052 101.594 334.552 103.094 335.594C104.615 336.615 106.51 337.125 108.781 337.125C110.594 337.125 112.229 336.938 113.688 336.562C115.146 336.167 116.469 335.708 117.656 335.188V339.812C116.51 340.396 115.229 340.844 113.812 341.156C112.417 341.469 110.75 341.625 108.812 341.625ZM120.375 306.75H125.938L133.5 326.625C133.938 327.792 134.344 328.917 134.719 330C135.094 331.062 135.427 332.083 135.719 333.062C136.01 334.042 136.24 334.99 136.406 335.906H136.625C136.917 334.865 137.333 333.5 137.875 331.812C138.417 330.104 139 328.365 139.625 326.594L146.781 306.75H152.375L137.469 346.031C136.677 348.135 135.75 349.969 134.688 351.531C133.646 353.094 132.375 354.292 130.875 355.125C129.375 355.979 127.562 356.406 125.438 356.406C124.458 356.406 123.594 356.344 122.844 356.219C122.094 356.115 121.448 355.99 120.906 355.844V351.688C121.365 351.792 121.917 351.885 122.562 351.969C123.229 352.052 123.917 352.094 124.625 352.094C125.917 352.094 127.031 351.844 127.969 351.344C128.927 350.865 129.75 350.156 130.438 349.219C131.125 348.281 131.719 347.167 132.219 345.875L134.094 341.062L120.375 306.75ZM181.188 311.156H169.906V341H164.781V311.156H153.656V306.75H181.188V311.156ZM201.688 341.625C198.604 341.625 195.885 340.99 193.531 339.719C191.177 338.448 189.344 336.51 188.031 333.906C186.719 331.302 186.062 328.021 186.062 324.062C186.062 319.917 186.75 316.531 188.125 313.906C189.521 311.26 191.438 309.302 193.875 308.031C196.312 306.76 199.083 306.125 202.188 306.125C203.896 306.125 205.542 306.302 207.125 306.656C208.729 306.99 210.042 307.417 211.062 307.938L209.5 312.281C208.458 311.865 207.25 311.49 205.875 311.156C204.521 310.823 203.25 310.656 202.062 310.656C199.688 310.656 197.708 311.167 196.125 312.188C194.562 313.208 193.385 314.708 192.594 316.688C191.823 318.667 191.438 321.104 191.438 324C191.438 326.771 191.812 329.135 192.562 331.094C193.333 333.052 194.469 334.552 195.969 335.594C197.49 336.615 199.385 337.125 201.656 337.125C203.469 337.125 205.104 336.938 206.562 336.562C208.021 336.167 209.344 335.708 210.531 335.188V339.812C209.385 340.396 208.104 340.844 206.688 341.156C205.292 341.469 203.625 341.625 201.688 341.625ZM242 311.156H230.719V341H225.594V311.156H214.469V306.75H242V311.156ZM276 315.344C276 317.49 275.375 319.167 274.125 320.375C272.875 321.562 271.26 322.365 269.281 322.781V323.031C271.427 323.323 273.271 324.094 274.812 325.344C276.375 326.573 277.156 328.458 277.156 331C277.156 332.958 276.688 334.688 275.75 336.188C274.812 337.688 273.344 338.865 271.344 339.719C269.344 340.573 266.74 341 263.531 341H248.781V306.75H263.406C265.865 306.75 268.031 307.031 269.906 307.594C271.802 308.135 273.292 309.031 274.375 310.281C275.458 311.531 276 313.219 276 315.344ZM271.75 331C271.75 328.979 270.979 327.521 269.438 326.625C267.917 325.729 265.698 325.281 262.781 325.281H254V336.781H262.906C265.781 336.781 267.969 336.344 269.469 335.469C270.99 334.573 271.75 333.083 271.75 331ZM270.719 315.938C270.719 314.312 270.125 313.104 268.938 312.312C267.75 311.5 265.802 311.094 263.094 311.094H254V320.938H262.188C265 320.938 267.125 320.531 268.562 319.719C270 318.906 270.719 317.646 270.719 315.938ZM280.125 306.75H285.688L293.25 326.625C293.688 327.792 294.094 328.917 294.469 330C294.844 331.062 295.177 332.083 295.469 333.062C295.76 334.042 295.99 334.99 296.156 335.906H296.375C296.667 334.865 297.083 333.5 297.625 331.812C298.167 330.104 298.75 328.365 299.375 326.594L306.531 306.75H312.125L297.219 346.031C296.427 348.135 295.5 349.969 294.438 351.531C293.396 353.094 292.125 354.292 290.625 355.125C289.125 355.979 287.312 356.406 285.188 356.406C284.208 356.406 283.344 356.344 282.594 356.219C281.844 356.115 281.198 355.99 280.656 355.844V351.688C281.115 351.792 281.667 351.885 282.312 351.969C282.979 352.052 283.667 352.094 284.375 352.094C285.667 352.094 286.781 351.844 287.719 351.344C288.677 350.865 289.5 350.156 290.188 349.219C290.875 348.281 291.469 347.167 291.969 345.875L293.844 341.062L280.125 306.75ZM330.781 306.125C333.698 306.125 336.198 306.771 338.281 308.062C340.365 309.354 341.958 311.167 343.062 313.5C344.167 315.812 344.719 318.521 344.719 321.625V324.844H321.062C321.125 328.865 322.125 331.927 324.062 334.031C326 336.135 328.729 337.188 332.25 337.188C334.417 337.188 336.333 336.99 338 336.594C339.667 336.198 341.396 335.615 343.188 334.844V339.406C341.458 340.177 339.74 340.74 338.031 341.094C336.344 341.448 334.344 341.625 332.031 341.625C328.74 341.625 325.865 340.958 323.406 339.625C320.969 338.271 319.073 336.292 317.719 333.688C316.365 331.083 315.688 327.896 315.688 324.125C315.688 320.438 316.302 317.25 317.531 314.562C318.781 311.854 320.531 309.771 322.781 308.312C325.052 306.854 327.719 306.125 330.781 306.125ZM330.719 310.375C327.948 310.375 325.74 311.281 324.094 313.094C322.448 314.906 321.469 317.438 321.156 320.688H339.281C339.26 318.646 338.938 316.854 338.312 315.312C337.708 313.75 336.781 312.542 335.531 311.688C334.281 310.812 332.677 310.375 330.719 310.375ZM376.875 311.156H365.594V341H360.469V311.156H349.344V306.75H376.875V311.156Z" fill="black"/>
</svg>
