<svg width="500" height="500" viewBox="0 0 500 500" fill="none" xmlns="http://www.w3.org/2000/svg">
<rect width="500" height="500" fill="#C5C5C5"/>
<rect width="500" height="500" rx="10" fill="#F0F0F0"/>
<path d="M416.667 125H350L308.333 75H191.667L150 125H83.3333C74.4928 125 66.0143 128.512 59.7631 134.763C53.5119 141.014 50 149.493 50 158.333L50 391.667C50 400.507 53.5119 408.986 59.7631 415.237C66.0143 421.488 74.4928 425 83.3333 425H416.667C425.507 425 433.986 421.488 440.237 415.237C446.488 408.986 450 400.507 450 391.667V158.333C450 149.493 446.488 141.014 440.237 134.763C433.986 128.512 425.507 125 416.667 125V125ZM250 358.333C231.87 358.333 214.147 352.957 199.073 342.885C183.998 332.812 172.249 318.496 165.311 301.746C158.373 284.996 156.558 266.565 160.095 248.783C163.632 231.002 172.362 214.668 185.182 201.849C198.002 189.029 214.335 180.298 232.117 176.761C249.898 173.224 268.329 175.04 285.079 181.978C301.829 188.916 316.146 200.665 326.218 215.739C336.29 230.814 341.667 248.537 341.667 266.667C341.667 290.978 332.009 314.294 314.818 331.485C297.627 348.676 274.312 358.333 250 358.333Z" fill="#D6D4D4"/>
<path d="M250 325C282.217 325 308.333 298.883 308.333 266.667C308.333 234.45 282.217 208.333 250 208.333C217.783 208.333 191.667 234.45 191.667 266.667C191.667 298.883 217.783 325 250 325Z" fill="#D6D4D4"/>
<path d="M106 373.812C106 376.625 105.635 379.135 104.906 381.344C104.177 383.552 103.125 385.417 101.75 386.938C100.375 388.458 98.7083 389.625 96.75 390.438C94.8125 391.229 92.6146 391.625 90.1562 391.625C87.8646 391.625 85.7604 391.229 83.8438 390.438C81.9479 389.625 80.3021 388.458 78.9062 386.938C77.5312 385.417 76.4583 383.552 75.6875 381.344C74.9375 379.135 74.5625 376.625 74.5625 373.812C74.5625 370.062 75.1979 366.875 76.4688 364.25C77.7396 361.604 79.5521 359.594 81.9062 358.219C84.2812 356.823 87.1042 356.125 90.375 356.125C93.5 356.125 96.2292 356.823 98.5625 358.219C100.917 359.615 102.74 361.635 104.031 364.281C105.344 366.906 106 370.083 106 373.812ZM79.9375 373.812C79.9375 376.562 80.3021 378.948 81.0312 380.969C81.7604 382.99 82.8854 384.552 84.4062 385.656C85.9271 386.76 87.8854 387.312 90.2812 387.312C92.6562 387.312 94.6042 386.76 96.125 385.656C97.6667 384.552 98.8021 382.99 99.5312 380.969C100.26 378.948 100.625 376.562 100.625 373.812C100.625 371.083 100.26 368.729 99.5312 366.75C98.8021 364.75 97.6771 363.208 96.1562 362.125C94.6354 361.042 92.6667 360.5 90.25 360.5C86.6875 360.5 84.0729 361.677 82.4062 364.031C80.7604 366.385 79.9375 369.646 79.9375 373.812ZM138.312 361.156H127.031V391H121.906V361.156H110.781V356.75H138.312V361.156ZM158.812 391.625C155.729 391.625 153.01 390.99 150.656 389.719C148.302 388.448 146.469 386.51 145.156 383.906C143.844 381.302 143.188 378.021 143.188 374.062C143.188 369.917 143.875 366.531 145.25 363.906C146.646 361.26 148.562 359.302 151 358.031C153.438 356.76 156.208 356.125 159.312 356.125C161.021 356.125 162.667 356.302 164.25 356.656C165.854 356.99 167.167 357.417 168.188 357.938L166.625 362.281C165.583 361.865 164.375 361.49 163 361.156C161.646 360.823 160.375 360.656 159.188 360.656C156.812 360.656 154.833 361.167 153.25 362.188C151.688 363.208 150.51 364.708 149.719 366.688C148.948 368.667 148.562 371.104 148.562 374C148.562 376.771 148.938 379.135 149.688 381.094C150.458 383.052 151.594 384.552 153.094 385.594C154.615 386.615 156.51 387.125 158.781 387.125C160.594 387.125 162.229 386.938 163.688 386.562C165.146 386.167 166.469 385.708 167.656 385.188V389.812C166.51 390.396 165.229 390.844 163.812 391.156C162.417 391.469 160.75 391.625 158.812 391.625ZM170.375 356.75H175.938L183.5 376.625C183.938 377.792 184.344 378.917 184.719 380C185.094 381.062 185.427 382.083 185.719 383.062C186.01 384.042 186.24 384.99 186.406 385.906H186.625C186.917 384.865 187.333 383.5 187.875 381.812C188.417 380.104 189 378.365 189.625 376.594L196.781 356.75H202.375L187.469 396.031C186.677 398.135 185.75 399.969 184.688 401.531C183.646 403.094 182.375 404.292 180.875 405.125C179.375 405.979 177.562 406.406 175.438 406.406C174.458 406.406 173.594 406.344 172.844 406.219C172.094 406.115 171.448 405.99 170.906 405.844V401.688C171.365 401.792 171.917 401.885 172.562 401.969C173.229 402.052 173.917 402.094 174.625 402.094C175.917 402.094 177.031 401.844 177.969 401.344C178.927 400.865 179.75 400.156 180.438 399.219C181.125 398.281 181.719 397.167 182.219 395.875L184.094 391.062L170.375 356.75ZM231.188 361.156H219.906V391H214.781V361.156H203.656V356.75H231.188V361.156ZM251.688 391.625C248.604 391.625 245.885 390.99 243.531 389.719C241.177 388.448 239.344 386.51 238.031 383.906C236.719 381.302 236.062 378.021 236.062 374.062C236.062 369.917 236.75 366.531 238.125 363.906C239.521 361.26 241.438 359.302 243.875 358.031C246.312 356.76 249.083 356.125 252.188 356.125C253.896 356.125 255.542 356.302 257.125 356.656C258.729 356.99 260.042 357.417 261.062 357.938L259.5 362.281C258.458 361.865 257.25 361.49 255.875 361.156C254.521 360.823 253.25 360.656 252.062 360.656C249.688 360.656 247.708 361.167 246.125 362.188C244.562 363.208 243.385 364.708 242.594 366.688C241.823 368.667 241.438 371.104 241.438 374C241.438 376.771 241.812 379.135 242.562 381.094C243.333 383.052 244.469 384.552 245.969 385.594C247.49 386.615 249.385 387.125 251.656 387.125C253.469 387.125 255.104 386.938 256.562 386.562C258.021 386.167 259.344 385.708 260.531 385.188V389.812C259.385 390.396 258.104 390.844 256.688 391.156C255.292 391.469 253.625 391.625 251.688 391.625ZM292 361.156H280.719V391H275.594V361.156H264.469V356.75H292V361.156ZM326 365.344C326 367.49 325.375 369.167 324.125 370.375C322.875 371.562 321.26 372.365 319.281 372.781V373.031C321.427 373.323 323.271 374.094 324.812 375.344C326.375 376.573 327.156 378.458 327.156 381C327.156 382.958 326.688 384.688 325.75 386.188C324.812 387.688 323.344 388.865 321.344 389.719C319.344 390.573 316.74 391 313.531 391H298.781V356.75H313.406C315.865 356.75 318.031 357.031 319.906 357.594C321.802 358.135 323.292 359.031 324.375 360.281C325.458 361.531 326 363.219 326 365.344ZM321.75 381C321.75 378.979 320.979 377.521 319.438 376.625C317.917 375.729 315.698 375.281 312.781 375.281H304V386.781H312.906C315.781 386.781 317.969 386.344 319.469 385.469C320.99 384.573 321.75 383.083 321.75 381ZM320.719 365.938C320.719 364.312 320.125 363.104 318.938 362.312C317.75 361.5 315.802 361.094 313.094 361.094H304V370.938H312.188C315 370.938 317.125 370.531 318.562 369.719C320 368.906 320.719 367.646 320.719 365.938ZM330.125 356.75H335.688L343.25 376.625C343.688 377.792 344.094 378.917 344.469 380C344.844 381.062 345.177 382.083 345.469 383.062C345.76 384.042 345.99 384.99 346.156 385.906H346.375C346.667 384.865 347.083 383.5 347.625 381.812C348.167 380.104 348.75 378.365 349.375 376.594L356.531 356.75H362.125L347.219 396.031C346.427 398.135 345.5 399.969 344.438 401.531C343.396 403.094 342.125 404.292 340.625 405.125C339.125 405.979 337.312 406.406 335.188 406.406C334.208 406.406 333.344 406.344 332.594 406.219C331.844 406.115 331.198 405.99 330.656 405.844V401.688C331.115 401.792 331.667 401.885 332.312 401.969C332.979 402.052 333.667 402.094 334.375 402.094C335.667 402.094 336.781 401.844 337.719 401.344C338.677 400.865 339.5 400.156 340.188 399.219C340.875 398.281 341.469 397.167 341.969 395.875L343.844 391.062L330.125 356.75ZM380.781 356.125C383.698 356.125 386.198 356.771 388.281 358.062C390.365 359.354 391.958 361.167 393.062 363.5C394.167 365.812 394.719 368.521 394.719 371.625V374.844H371.062C371.125 378.865 372.125 381.927 374.062 384.031C376 386.135 378.729 387.188 382.25 387.188C384.417 387.188 386.333 386.99 388 386.594C389.667 386.198 391.396 385.615 393.188 384.844V389.406C391.458 390.177 389.74 390.74 388.031 391.094C386.344 391.448 384.344 391.625 382.031 391.625C378.74 391.625 375.865 390.958 373.406 389.625C370.969 388.271 369.073 386.292 367.719 383.688C366.365 381.083 365.688 377.896 365.688 374.125C365.688 370.438 366.302 367.25 367.531 364.562C368.781 361.854 370.531 359.771 372.781 358.312C375.052 356.854 377.719 356.125 380.781 356.125ZM380.719 360.375C377.948 360.375 375.74 361.281 374.094 363.094C372.448 364.906 371.469 367.438 371.156 370.688H389.281C389.26 368.646 388.938 366.854 388.312 365.312C387.708 363.75 386.781 362.542 385.531 361.688C384.281 360.812 382.677 360.375 380.719 360.375ZM426.875 361.156H415.594V391H410.469V361.156H399.344V356.75H426.875V361.156Z" fill="black"/>
<path d="M73 143H66.5625L45.5625 119.812V143H40.25V97.3125H45.5625V119.438L66.0312 97.3125H72.125L51.9062 119.5L73 143ZM108.875 143.625C105.792 143.625 103.073 142.99 100.719 141.719C98.3646 140.448 96.5312 138.51 95.2188 135.906C93.9062 133.302 93.25 130.021 93.25 126.062C93.25 121.917 93.9375 118.531 95.3125 115.906C96.7083 113.26 98.625 111.302 101.062 110.031C103.5 108.76 106.271 108.125 109.375 108.125C111.083 108.125 112.729 108.302 114.312 108.656C115.917 108.99 117.229 109.417 118.25 109.938L116.688 114.281C115.646 113.865 114.438 113.49 113.062 113.156C111.708 112.823 110.438 112.656 109.25 112.656C106.875 112.656 104.896 113.167 103.312 114.188C101.75 115.208 100.573 116.708 99.7812 118.688C99.0104 120.667 98.625 123.104 98.625 126C98.625 128.771 99 131.135 99.75 133.094C100.521 135.052 101.656 136.552 103.156 137.594C104.677 138.615 106.573 139.125 108.844 139.125C110.656 139.125 112.292 138.938 113.75 138.562C115.208 138.167 116.531 137.708 117.719 137.188V141.812C116.573 142.396 115.292 142.844 113.875 143.156C112.479 143.469 110.812 143.625 108.875 143.625ZM155.375 125.812C155.375 128.625 155.01 131.135 154.281 133.344C153.552 135.552 152.5 137.417 151.125 138.938C149.75 140.458 148.083 141.625 146.125 142.438C144.188 143.229 141.99 143.625 139.531 143.625C137.24 143.625 135.135 143.229 133.219 142.438C131.323 141.625 129.677 140.458 128.281 138.938C126.906 137.417 125.833 135.552 125.062 133.344C124.312 131.135 123.938 128.625 123.938 125.812C123.938 122.062 124.573 118.875 125.844 116.25C127.115 113.604 128.927 111.594 131.281 110.219C133.656 108.823 136.479 108.125 139.75 108.125C142.875 108.125 145.604 108.823 147.938 110.219C150.292 111.615 152.115 113.635 153.406 116.281C154.719 118.906 155.375 122.083 155.375 125.812ZM129.312 125.812C129.312 128.562 129.677 130.948 130.406 132.969C131.135 134.99 132.26 136.552 133.781 137.656C135.302 138.76 137.26 139.312 139.656 139.312C142.031 139.312 143.979 138.76 145.5 137.656C147.042 136.552 148.177 134.99 148.906 132.969C149.635 130.948 150 128.562 150 125.812C150 123.083 149.635 120.729 148.906 118.75C148.177 116.75 147.052 115.208 145.531 114.125C144.01 113.042 142.042 112.5 139.625 112.5C136.062 112.5 133.448 113.677 131.781 116.031C130.135 118.385 129.312 121.646 129.312 125.812ZM204.469 108.75L190.219 125.406L205.688 143H199.75L184.75 125.625V143H179.906V125.625L164.938 143H159L174.469 125.406L160.188 108.75H165.906L179.906 125.375V108.75H184.75V125.375L198.812 108.75H204.469ZM224.219 108.188C228.302 108.188 231.333 109.104 233.312 110.938C235.292 112.771 236.281 115.698 236.281 119.719V143H232.5L231.5 137.938H231.25C230.292 139.188 229.292 140.24 228.25 141.094C227.208 141.927 226 142.562 224.625 143C223.271 143.417 221.604 143.625 219.625 143.625C217.542 143.625 215.688 143.26 214.062 142.531C212.458 141.802 211.188 140.698 210.25 139.219C209.333 137.74 208.875 135.865 208.875 133.594C208.875 130.177 210.229 127.552 212.938 125.719C215.646 123.885 219.771 122.885 225.312 122.719L231.219 122.469V120.375C231.219 117.417 230.583 115.344 229.312 114.156C228.042 112.969 226.25 112.375 223.938 112.375C222.146 112.375 220.438 112.635 218.812 113.156C217.188 113.677 215.646 114.292 214.188 115L212.594 111.062C214.135 110.271 215.906 109.594 217.906 109.031C219.906 108.469 222.01 108.188 224.219 108.188ZM231.156 126.125L225.938 126.344C221.667 126.51 218.656 127.208 216.906 128.438C215.156 129.667 214.281 131.406 214.281 133.656C214.281 135.615 214.875 137.062 216.062 138C217.25 138.938 218.823 139.406 220.781 139.406C223.823 139.406 226.312 138.562 228.25 136.875C230.188 135.188 231.156 132.656 231.156 129.281V126.125ZM272.656 143H267.375V113.094H256.969C256.552 118.49 256.021 123.115 255.375 126.969C254.75 130.802 253.958 133.938 253 136.375C252.062 138.792 250.917 140.573 249.562 141.719C248.229 142.844 246.635 143.406 244.781 143.406C244.219 143.406 243.688 143.375 243.188 143.312C242.688 143.25 242.26 143.146 241.906 143V139.062C242.177 139.146 242.458 139.208 242.75 139.25C243.062 139.292 243.385 139.312 243.719 139.312C244.656 139.312 245.51 138.927 246.281 138.156C247.073 137.365 247.781 136.177 248.406 134.594C249.052 133.01 249.625 131.01 250.125 128.594C250.625 126.156 251.062 123.292 251.438 120C251.833 116.688 252.177 112.938 252.469 108.75H272.656V143ZM296.781 108.125C299.698 108.125 302.198 108.771 304.281 110.062C306.365 111.354 307.958 113.167 309.062 115.5C310.167 117.812 310.719 120.521 310.719 123.625V126.844H287.062C287.125 130.865 288.125 133.927 290.062 136.031C292 138.135 294.729 139.188 298.25 139.188C300.417 139.188 302.333 138.99 304 138.594C305.667 138.198 307.396 137.615 309.188 136.844V141.406C307.458 142.177 305.74 142.74 304.031 143.094C302.344 143.448 300.344 143.625 298.031 143.625C294.74 143.625 291.865 142.958 289.406 141.625C286.969 140.271 285.073 138.292 283.719 135.688C282.365 133.083 281.688 129.896 281.688 126.125C281.688 122.438 282.302 119.25 283.531 116.562C284.781 113.854 286.531 111.771 288.781 110.312C291.052 108.854 293.719 108.125 296.781 108.125ZM296.719 112.375C293.948 112.375 291.74 113.281 290.094 115.094C288.448 116.906 287.469 119.438 287.156 122.688H305.281C305.26 120.646 304.938 118.854 304.312 117.312C303.708 115.75 302.781 114.542 301.531 113.688C300.281 112.812 298.677 112.375 296.719 112.375ZM324.75 108.75V123.125H343.844V108.75H349.031V143H343.844V127.531H324.75V143H319.531V108.75H324.75ZM364.969 108.75V130.281C364.969 130.698 364.958 131.24 364.938 131.906C364.917 132.552 364.885 133.25 364.844 134C364.802 134.729 364.76 135.438 364.719 136.125C364.698 136.792 364.667 137.344 364.625 137.781L383.312 108.75H389.688V143H384.844V122C384.844 121.333 384.854 120.479 384.875 119.438C384.896 118.396 384.927 117.375 384.969 116.375C385.01 115.354 385.042 114.562 385.062 114L366.438 143H360.031V108.75H364.969ZM444.75 125.812C444.75 129.542 444.146 132.74 442.938 135.406C441.75 138.073 440.042 140.115 437.812 141.531C435.583 142.927 432.917 143.625 429.812 143.625C426.917 143.625 424.385 143 422.219 141.75C420.073 140.5 418.375 138.677 417.125 136.281C415.896 133.885 415.188 130.969 415 127.531H405.906V143H400.719V108.75H405.906V123.125H415.062C415.354 119.958 416.125 117.26 417.375 115.031C418.625 112.802 420.312 111.094 422.438 109.906C424.562 108.719 427.062 108.125 429.938 108.125C432.938 108.125 435.542 108.833 437.75 110.25C439.979 111.646 441.698 113.667 442.906 116.312C444.135 118.938 444.75 122.104 444.75 125.812ZM420.312 125.812C420.312 128.688 420.635 131.135 421.281 133.156C421.948 135.156 422.979 136.688 424.375 137.75C425.792 138.792 427.625 139.312 429.875 139.312C432.104 139.312 433.917 138.792 435.312 137.75C436.729 136.708 437.76 135.188 438.406 133.188C439.073 131.167 439.406 128.708 439.406 125.812C439.406 122.958 439.073 120.542 438.406 118.562C437.74 116.583 436.708 115.083 435.312 114.062C433.917 113.021 432.104 112.5 429.875 112.5C427.646 112.5 425.823 113.021 424.406 114.062C423.01 115.083 421.979 116.583 421.312 118.562C420.646 120.542 420.312 122.958 420.312 125.812ZM459.719 135.562L460.125 136.281C459.75 137.802 459.271 139.427 458.688 141.156C458.125 142.885 457.5 144.615 456.812 146.344C456.146 148.094 455.469 149.729 454.781 151.25H450.906C451.344 149.583 451.771 147.823 452.188 145.969C452.604 144.135 452.979 142.323 453.312 140.531C453.667 138.719 453.948 137.062 454.156 135.562H459.719Z" fill="black"/>
<path d="M18.3906 227.168H26.5645V247.852C26.5645 248.867 26.5449 249.99 26.5059 251.221C26.4863 252.451 26.4473 253.662 26.3887 254.854C26.3496 256.025 26.3105 257.051 26.2715 257.93C26.2324 258.809 26.1934 259.395 26.1543 259.688H26.3301L46.1055 227.168H56.9746V270H48.8887V249.434C48.8887 248.34 48.9082 247.148 48.9473 245.859C48.9863 244.57 49.0352 243.32 49.0938 242.109C49.1719 240.898 49.2402 239.854 49.2988 238.975C49.3574 238.076 49.3965 237.48 49.416 237.188H49.1816L29.3184 270H18.3906V227.168ZM97.375 237.188C97.375 240.059 96.3496 242.373 94.2988 244.131C92.248 245.889 89.6504 246.992 86.5059 247.441V247.617C90.4121 248.008 93.4199 249.092 95.5293 250.869C97.6387 252.646 98.6934 254.961 98.6934 257.812C98.6934 260.312 98.0098 262.529 96.6426 264.463C95.2754 266.377 93.2539 267.881 90.5781 268.975C87.9023 270.049 84.5918 270.586 80.6465 270.586C77.4043 270.586 74.5234 270.391 72.0039 270C69.5039 269.59 67.3359 269.014 65.5 268.271V260.654C66.75 261.24 68.1465 261.748 69.6895 262.178C71.252 262.588 72.834 262.91 74.4355 263.145C76.0371 263.359 77.5215 263.467 78.8887 263.467C82.6777 263.467 85.4219 262.92 87.1211 261.826C88.8398 260.732 89.6992 259.18 89.6992 257.168C89.6992 255.117 88.459 253.623 85.9785 252.686C83.498 251.748 80.1582 251.279 75.959 251.279H71.9453V244.189H75.5488C78.9473 244.189 81.584 243.975 83.459 243.545C85.3535 243.096 86.6719 242.461 87.4141 241.641C88.1758 240.801 88.5566 239.795 88.5566 238.623C88.5566 237.158 87.9023 235.996 86.5938 235.137C85.2852 234.258 83.3418 233.818 80.7637 233.818C78.5371 233.818 76.457 234.141 74.5234 234.785C72.5898 235.41 70.7832 236.25 69.1035 237.305L65.1484 231.24C66.6133 230.283 68.1758 229.453 69.8359 228.75C71.5156 228.047 73.3516 227.51 75.3438 227.139C77.3359 226.748 79.5625 226.553 82.0234 226.553C85.2461 226.553 88 227.012 90.2852 227.93C92.5703 228.848 94.3184 230.107 95.5293 231.709C96.7598 233.291 97.375 235.117 97.375 237.188ZM145.568 248.525C145.568 251.826 145.158 254.834 144.338 257.549C143.518 260.244 142.268 262.568 140.588 264.521C138.928 266.475 136.818 267.979 134.26 269.033C131.701 270.068 128.674 270.586 125.178 270.586C121.682 270.586 118.654 270.068 116.096 269.033C113.537 267.979 111.418 266.475 109.738 264.521C108.078 262.568 106.838 260.234 106.018 257.52C105.197 254.805 104.787 251.787 104.787 248.467C104.787 244.033 105.51 240.176 106.955 236.895C108.42 233.594 110.666 231.035 113.693 229.219C116.721 227.402 120.568 226.494 125.236 226.494C129.885 226.494 133.703 227.402 136.691 229.219C139.699 231.035 141.926 233.594 143.371 236.895C144.836 240.195 145.568 244.072 145.568 248.525ZM114.309 248.525C114.309 251.514 114.68 254.092 115.422 256.26C116.184 258.408 117.365 260.068 118.967 261.24C120.568 262.393 122.639 262.969 125.178 262.969C127.756 262.969 129.846 262.393 131.447 261.24C133.049 260.068 134.211 258.408 134.934 256.26C135.676 254.092 136.047 251.514 136.047 248.525C136.047 244.033 135.207 240.498 133.527 237.92C131.848 235.342 129.084 234.053 125.236 234.053C122.678 234.053 120.588 234.639 118.967 235.811C117.365 236.963 116.184 238.623 115.422 240.791C114.68 242.939 114.309 245.518 114.309 248.525ZM154.445 270V227.168H181.516V234.668H163.527V243.604H167.102C171.125 243.604 174.426 244.16 177.004 245.273C179.602 246.387 181.516 247.93 182.746 249.902C183.996 251.855 184.621 254.092 184.621 256.611C184.621 260.85 183.205 264.141 180.373 266.484C177.561 268.828 173.078 270 166.926 270H154.445ZM163.527 262.559H166.574C169.328 262.559 171.496 262.119 173.078 261.24C174.66 260.342 175.451 258.799 175.451 256.611C175.451 255.088 175.061 253.926 174.279 253.125C173.518 252.324 172.414 251.777 170.969 251.484C169.543 251.191 167.834 251.045 165.842 251.045H163.527V262.559ZM206.447 227.168C211.975 227.168 216.008 228.359 218.547 230.742C221.086 233.105 222.355 236.367 222.355 240.527C222.355 242.402 222.072 244.199 221.506 245.918C220.939 247.617 220.012 249.131 218.723 250.459C217.453 251.787 215.754 252.842 213.625 253.623C211.496 254.385 208.869 254.766 205.744 254.766H201.848V270H192.766V227.168H206.447ZM205.979 234.609H201.848V247.324H204.836C206.535 247.324 208.01 247.1 209.26 246.65C210.51 246.201 211.477 245.498 212.16 244.541C212.844 243.584 213.186 242.354 213.186 240.85C213.186 238.74 212.6 237.178 211.428 236.162C210.256 235.127 208.439 234.609 205.979 234.609ZM256.662 270L253.557 259.805H237.941L234.836 270H225.051L240.168 226.992H251.271L266.447 270H256.662ZM251.389 252.188L248.283 242.227C248.088 241.562 247.824 240.713 247.492 239.678C247.18 238.623 246.857 237.559 246.525 236.484C246.213 235.391 245.959 234.443 245.764 233.643C245.568 234.443 245.295 235.439 244.943 236.631C244.611 237.803 244.289 238.916 243.977 239.971C243.664 241.025 243.439 241.777 243.303 242.227L240.227 252.188H251.389ZM281.711 247.734L267.326 227.168H276.672L290.529 247.91V227.168H298.996V247.91L312.854 227.168H322.229L307.814 247.734L323.049 270H313.322L298.996 248.291V270H290.529V248.291L276.203 270H266.477L281.711 247.734ZM353.137 270H328.469V227.168H353.137V234.609H337.551V244.014H352.053V251.455H337.551V262.5H353.137V270ZM397.199 270H388.146V251.514H371.184V270H362.102V227.168H371.184V243.955H388.146V227.168H397.199V270ZM408.039 227.168H416.213V247.852C416.213 248.867 416.193 249.99 416.154 251.221C416.135 252.451 416.096 253.662 416.037 254.854C415.998 256.025 415.959 257.051 415.92 257.93C415.881 258.809 415.842 259.395 415.803 259.688H415.979L435.754 227.168H446.623V270H438.537V249.434C438.537 248.34 438.557 247.148 438.596 245.859C438.635 244.57 438.684 243.32 438.742 242.109C438.82 240.898 438.889 239.854 438.947 238.975C439.006 238.076 439.045 237.48 439.064 237.188H438.83L418.967 270H408.039V227.168ZM482.102 270H457.434V227.168H482.102V234.609H466.516V244.014H481.018V251.455H466.516V262.5H482.102V270Z" fill="black"/>
</svg>
