<svg width="24" height="24" xmlns="http://www.w3.org/2000/svg">

 <g id="g29">
  <title>background</title>
  <rect x="-1" y="-1" width="26" height="26" id="canvas_background" fill="none"/>
 </g>
 <g id="g35">
  <title>Layer 1</title>
  <path d="m0,0l24,0l0,24l-24,0l0,-24z" fill="#ffffff" id="svg_1"/>
  <path d="m17,7l-1.41,1.41l2.58,2.59l-10.17,0l0,2l10.17,0l-2.58,2.58l1.41,1.42l5,-5l-5,-5zm-13,-2l8,0l-0.03315,-2.06629c-4.14513,-0.00833 -9.96685,-0.01084 -9.96685,-0.01084c0.02938,3.10297 -0.01083,18.08818 -0.01083,18.08818l10.01083,-0.01105l0,-2l-8,0l0,-14z" id="path411" fill="#000000"/>
 </g>
</svg>