<svg width="256" height="51" viewBox="0 0 256 51" fill="none" xmlns="http://www.w3.org/2000/svg">
<rect width="256" height="51" fill="#E5E5E5"/>
<rect width="256" height="51" fill="white"/>
<path d="M34.8125 34.125C34.8125 36.6042 34.1875 38.9583 32.9375 41.1875C31.6875 43.3958 29.7396 45.1875 27.0938 46.5625C24.4688 47.9375 21.0729 48.625 16.9062 48.625C14.8229 48.625 12.9896 48.5312 11.4062 48.3438C9.84375 48.1562 8.38542 47.8542 7.03125 47.4375C5.67708 47 4.27083 46.4375 2.8125 45.75V34.75C5.29167 36 7.79167 36.9583 10.3125 37.625C12.8333 38.2708 15.1146 38.5938 17.1562 38.5938C18.3854 38.5938 19.3854 38.4479 20.1562 38.1562C20.9479 37.8646 21.5312 37.4688 21.9062 36.9688C22.2812 36.4479 22.4688 35.8542 22.4688 35.1875C22.4688 34.3958 22.1875 33.7292 21.625 33.1875C21.0833 32.625 20.2083 32.0417 19 31.4375C17.7917 30.8333 16.1979 30.0833 14.2188 29.1875C12.5312 28.3958 11 27.5833 9.625 26.75C8.27083 25.9167 7.10417 24.9688 6.125 23.9062C5.16667 22.8229 4.42708 21.5625 3.90625 20.125C3.38542 18.6875 3.125 16.9896 3.125 15.0312C3.125 12.0938 3.84375 9.63542 5.28125 7.65625C6.73958 5.65625 8.76042 4.15625 11.3438 3.15625C13.9479 2.15625 16.9479 1.65625 20.3438 1.65625C23.3229 1.65625 26 1.98958 28.375 2.65625C30.7708 3.32292 32.9167 4.08333 34.8125 4.9375L31.0312 14.4688C29.0729 13.5729 27.1458 12.8646 25.25 12.3438C23.3542 11.8021 21.5938 11.5312 19.9688 11.5312C18.9062 11.5312 18.0312 11.6667 17.3438 11.9375C16.6771 12.1875 16.1771 12.5312 15.8438 12.9688C15.5312 13.4062 15.375 13.9062 15.375 14.4688C15.375 15.1771 15.6458 15.8125 16.1875 16.375C16.75 16.9375 17.6771 17.5521 18.9688 18.2188C20.2812 18.8646 22.0625 19.7083 24.3125 20.75C26.5417 21.75 28.4375 22.8333 30 24C31.5625 25.1458 32.75 26.5312 33.5625 28.1562C34.3958 29.7604 34.8125 31.75 34.8125 34.125ZM62.2188 11.7812C60.7604 11.7812 59.4583 12.0938 58.3125 12.7188C57.1667 13.3229 56.1875 14.2083 55.375 15.375C54.5625 16.5417 53.9375 17.9688 53.5 19.6562C53.0833 21.3229 52.875 23.2188 52.875 25.3438C52.875 28.2188 53.2396 30.6354 53.9688 32.5938C54.6979 34.5521 55.8021 36.0312 57.2812 37.0312C58.7812 38.0312 60.6562 38.5312 62.9062 38.5312C64.9479 38.5312 66.9062 38.25 68.7812 37.6875C70.6771 37.125 72.5833 36.4479 74.5 35.6562V46.0938C72.4792 46.9896 70.4062 47.6354 68.2812 48.0312C66.1771 48.4271 63.9375 48.625 61.5625 48.625C56.6042 48.625 52.5417 47.6458 49.375 45.6875C46.2292 43.7083 43.9062 40.9688 42.4062 37.4688C40.9271 33.9688 40.1875 29.9062 40.1875 25.2812C40.1875 21.8229 40.6667 18.6562 41.625 15.7812C42.6042 12.9062 44.0312 10.4167 45.9062 8.3125C47.7812 6.1875 50.0938 4.55208 52.8438 3.40625C55.6146 2.23958 58.7812 1.65625 62.3438 1.65625C64.5521 1.65625 66.875 1.91667 69.3125 2.4375C71.7708 2.9375 74.1667 3.75 76.5 4.875L72.7188 14.5938C71.0521 13.8021 69.3646 13.1354 67.6562 12.5938C65.9479 12.0521 64.1354 11.7812 62.2188 11.7812Z" fill="black"/>
<path d="M87.75 3.25H87.25V47.75H87.75V3.25Z" fill="black" stroke="black" stroke-width="0.5"/>
<path d="M112.781 28.6758C112.781 29.6914 112.527 30.5586 112.019 31.2774C111.519 31.9883 110.816 32.5313 109.91 32.9063C109.004 33.2813 107.937 33.4688 106.711 33.4688C106.062 33.4688 105.449 33.4375 104.871 33.375C104.293 33.3125 103.762 33.2227 103.277 33.1055C102.793 32.9883 102.367 32.8438 102 32.6719V30.7617C102.586 31.0039 103.301 31.2305 104.145 31.4414C104.988 31.6446 105.871 31.7461 106.793 31.7461C107.652 31.7461 108.379 31.6328 108.973 31.4063C109.566 31.1719 110.016 30.8399 110.32 30.4102C110.633 29.9727 110.789 29.4492 110.789 28.8399C110.789 28.2539 110.66 27.7656 110.402 27.375C110.144 26.9766 109.715 26.6172 109.113 26.2969C108.519 25.9688 107.707 25.6211 106.676 25.2539C105.949 24.9961 105.308 24.7149 104.754 24.4102C104.199 24.0977 103.734 23.7461 103.359 23.3555C102.984 22.9649 102.699 22.5117 102.504 21.9961C102.316 21.4805 102.223 20.8906 102.223 20.2266C102.223 19.3125 102.453 18.5313 102.914 17.8828C103.383 17.2266 104.027 16.7266 104.848 16.3828C105.676 16.0313 106.625 15.8555 107.695 15.8555C108.609 15.8555 109.453 15.9414 110.226 16.1133C111.008 16.2852 111.723 16.5156 112.371 16.8047L111.75 18.5156C111.133 18.2578 110.476 18.043 109.781 17.8711C109.094 17.6992 108.383 17.6133 107.648 17.6133C106.914 17.6133 106.293 17.7227 105.785 17.9414C105.285 18.1524 104.902 18.4532 104.637 18.8438C104.371 19.2344 104.238 19.6992 104.238 20.2383C104.238 20.8399 104.363 21.3399 104.613 21.7383C104.871 22.1367 105.277 22.4922 105.832 22.8047C106.394 23.1094 107.137 23.4297 108.058 23.7656C109.066 24.1328 109.922 24.5235 110.625 24.9375C111.328 25.3438 111.863 25.8438 112.23 26.4375C112.598 27.0235 112.781 27.7696 112.781 28.6758ZM120.14 31.875C120.461 31.875 120.789 31.8477 121.125 31.793C121.461 31.7383 121.734 31.6719 121.945 31.5938V33.1055C121.719 33.2071 121.402 33.293 120.996 33.3633C120.598 33.4336 120.207 33.4688 119.824 33.4688C119.144 33.4688 118.527 33.3516 117.973 33.1172C117.418 32.875 116.973 32.4688 116.637 31.8985C116.308 31.3282 116.144 30.5391 116.144 29.5313V21.9141H114.316V20.9649L116.156 20.2032L116.93 17.4141H118.101V20.3906H121.863V21.9141H118.101V29.4727C118.101 30.2774 118.285 30.8789 118.652 31.2774C119.027 31.6758 119.523 31.875 120.14 31.875ZM135.152 20.3906V33.2344H133.558L133.277 31.4297H133.172C132.906 31.875 132.562 32.25 132.14 32.5547C131.719 32.8594 131.242 33.086 130.711 33.2344C130.187 33.3906 129.629 33.4688 129.035 33.4688C128.019 33.4688 127.168 33.3047 126.48 32.9766C125.793 32.6485 125.273 32.1406 124.922 31.4532C124.578 30.7656 124.406 29.8828 124.406 28.8047V20.3906H126.375V28.6641C126.375 29.7344 126.617 30.5352 127.101 31.0664C127.586 31.5899 128.324 31.8516 129.316 31.8516C130.269 31.8516 131.027 31.6719 131.59 31.3125C132.16 30.9532 132.57 30.4258 132.82 29.7305C133.07 29.0274 133.195 28.168 133.195 27.1524V20.3906H135.152ZM143.836 33.4688C142.211 33.4688 140.922 32.9141 139.969 31.8047C139.023 30.6953 138.551 29.0469 138.551 26.8594C138.551 24.6485 139.035 22.9805 140.004 21.8555C140.973 20.7227 142.262 20.1563 143.871 20.1563C144.551 20.1563 145.144 20.2461 145.652 20.4258C146.16 20.6055 146.598 20.8477 146.965 21.1524C147.332 21.4492 147.64 21.7891 147.89 22.1719H148.031C148 21.9297 147.969 21.5977 147.937 21.1758C147.906 20.7539 147.89 20.4102 147.89 20.1446V15H149.836V33.2344H148.266L147.973 31.4063H147.89C147.648 31.7891 147.34 32.1367 146.965 32.4492C146.598 32.7617 146.156 33.0117 145.64 33.1992C145.133 33.3789 144.531 33.4688 143.836 33.4688ZM144.14 31.8516C145.516 31.8516 146.488 31.461 147.058 30.6797C147.629 29.8985 147.914 28.7383 147.914 27.1992V26.8477C147.914 25.2149 147.64 23.961 147.094 23.086C146.555 22.211 145.57 21.7735 144.14 21.7735C142.945 21.7735 142.051 22.2344 141.457 23.1563C140.863 24.0703 140.566 25.3203 140.566 26.9063C140.566 28.4844 140.859 29.7032 141.445 30.5625C142.039 31.4219 142.937 31.8516 144.14 31.8516ZM158.906 20.1563C160 20.1563 160.937 20.3985 161.719 20.8828C162.5 21.3672 163.098 22.0469 163.512 22.9219C163.926 23.7891 164.133 24.8047 164.133 25.9688V27.1758H155.262C155.285 28.6836 155.66 29.8321 156.387 30.6211C157.113 31.4102 158.137 31.8047 159.457 31.8047C160.269 31.8047 160.988 31.7305 161.613 31.5821C162.238 31.4336 162.887 31.2149 163.558 30.9258V32.6367C162.91 32.9258 162.266 33.1367 161.625 33.2696C160.992 33.4024 160.242 33.4688 159.375 33.4688C158.14 33.4688 157.062 33.2188 156.14 32.7188C155.226 32.211 154.516 31.4688 154.008 30.4922C153.5 29.5156 153.246 28.3203 153.246 26.9063C153.246 25.5235 153.476 24.3282 153.937 23.3203C154.406 22.3047 155.062 21.5235 155.906 20.9766C156.758 20.4297 157.758 20.1563 158.906 20.1563ZM158.883 21.75C157.844 21.75 157.016 22.0899 156.398 22.7696C155.781 23.4492 155.414 24.3985 155.297 25.6172H162.094C162.086 24.8516 161.965 24.1797 161.73 23.6016C161.504 23.0156 161.156 22.5625 160.687 22.2422C160.219 21.9141 159.617 21.75 158.883 21.75ZM173.519 20.1563C175.043 20.1563 176.195 20.5313 176.976 21.2813C177.758 22.0235 178.148 23.2188 178.148 24.8672V33.2344H176.226V24.9961C176.226 23.9258 175.98 23.125 175.488 22.5938C175.004 22.0625 174.258 21.7969 173.25 21.7969C171.828 21.7969 170.828 22.1992 170.25 23.0039C169.672 23.8086 169.383 24.9766 169.383 26.5078V33.2344H167.437V20.3906H169.008L169.301 22.2422H169.406C169.68 21.7891 170.027 21.4102 170.449 21.1055C170.871 20.793 171.344 20.5586 171.867 20.4024C172.39 20.2383 172.941 20.1563 173.519 20.1563ZM186.305 31.875C186.625 31.875 186.953 31.8477 187.289 31.793C187.625 31.7383 187.898 31.6719 188.109 31.5938V33.1055C187.883 33.2071 187.566 33.293 187.16 33.3633C186.762 33.4336 186.371 33.4688 185.988 33.4688C185.308 33.4688 184.691 33.3516 184.137 33.1172C183.582 32.875 183.137 32.4688 182.801 31.8985C182.473 31.3282 182.308 30.5391 182.308 29.5313V21.9141H180.48V20.9649L182.32 20.2032L183.094 17.4141H184.266V20.3906H188.027V21.9141H184.266V29.4727C184.266 30.2774 184.449 30.8789 184.816 31.2774C185.191 31.6758 185.687 31.875 186.305 31.875ZM198.328 17.6133C197.383 17.6133 196.531 17.7774 195.773 18.1055C195.023 18.4258 194.383 18.8946 193.851 19.5117C193.328 20.1211 192.926 20.8594 192.644 21.7266C192.363 22.5938 192.223 23.5703 192.223 24.6563C192.223 26.0938 192.445 27.3438 192.89 28.4063C193.344 29.461 194.016 30.2774 194.906 30.8555C195.805 31.4336 196.926 31.7227 198.269 31.7227C199.035 31.7227 199.754 31.6602 200.426 31.5352C201.105 31.4024 201.766 31.2383 202.406 31.043V32.7774C201.781 33.0117 201.125 33.1836 200.437 33.293C199.75 33.4102 198.933 33.4688 197.988 33.4688C196.246 33.4688 194.789 33.1094 193.617 32.3906C192.453 31.6641 191.578 30.6406 190.992 29.3203C190.414 28 190.125 26.4414 190.125 24.6446C190.125 23.3477 190.305 22.1641 190.664 21.0938C191.031 20.0156 191.562 19.086 192.258 18.3047C192.961 17.5235 193.82 16.9219 194.836 16.5C195.859 16.0703 197.031 15.8555 198.351 15.8555C199.219 15.8555 200.055 15.9414 200.859 16.1133C201.664 16.2852 202.39 16.5313 203.039 16.8516L202.242 18.5391C201.695 18.2891 201.094 18.0742 200.437 17.8946C199.789 17.7071 199.086 17.6133 198.328 17.6133ZM207.773 15V20.4492C207.773 20.7617 207.766 21.0782 207.75 21.3985C207.734 21.711 207.707 22 207.668 22.2656H207.797C208.062 21.8125 208.398 21.4336 208.805 21.1289C209.219 20.8164 209.687 20.5821 210.211 20.4258C210.734 20.2617 211.289 20.1797 211.875 20.1797C212.906 20.1797 213.766 20.3438 214.453 20.6719C215.148 21 215.668 21.5078 216.012 22.1953C216.363 22.8828 216.539 23.7735 216.539 24.8672V33.2344H214.617V24.9961C214.617 23.9258 214.371 23.125 213.879 22.5938C213.394 22.0625 212.648 21.7969 211.64 21.7969C210.687 21.7969 209.926 21.9805 209.355 22.3477C208.793 22.7071 208.387 23.2383 208.137 23.9414C207.894 24.6446 207.773 25.5039 207.773 26.5196V33.2344H205.828V15H207.773ZM225.351 20.1797C226.883 20.1797 228.019 20.5235 228.762 21.211C229.504 21.8985 229.875 22.9961 229.875 24.5039V33.2344H228.457L228.082 31.336H227.988C227.629 31.8047 227.254 32.1992 226.863 32.5196C226.473 32.8321 226.019 33.0703 225.504 33.2344C224.996 33.3906 224.371 33.4688 223.629 33.4688C222.848 33.4688 222.152 33.3321 221.543 33.0586C220.941 32.7852 220.465 32.3711 220.113 31.8164C219.769 31.2617 219.598 30.5586 219.598 29.7071C219.598 28.4258 220.105 27.4414 221.121 26.7539C222.137 26.0664 223.683 25.6914 225.762 25.6289L227.976 25.5352V24.75C227.976 23.6406 227.738 22.8633 227.262 22.418C226.785 21.9727 226.113 21.75 225.246 21.75C224.574 21.75 223.933 21.8477 223.324 22.043C222.715 22.2383 222.137 22.4688 221.59 22.7344L220.992 21.2578C221.57 20.961 222.234 20.7071 222.984 20.4961C223.734 20.2852 224.523 20.1797 225.351 20.1797ZM227.953 26.9063L225.996 26.9883C224.394 27.0508 223.266 27.3125 222.609 27.7735C221.953 28.2344 221.625 28.8867 221.625 29.7305C221.625 30.4649 221.848 31.0078 222.293 31.3594C222.738 31.711 223.328 31.8867 224.062 31.8867C225.203 31.8867 226.137 31.5703 226.863 30.9375C227.59 30.3047 227.953 29.3555 227.953 28.0899V26.9063ZM238.031 31.875C238.351 31.875 238.68 31.8477 239.016 31.793C239.351 31.7383 239.625 31.6719 239.836 31.5938V33.1055C239.609 33.2071 239.293 33.293 238.887 33.3633C238.488 33.4336 238.098 33.4688 237.715 33.4688C237.035 33.4688 236.418 33.3516 235.863 33.1172C235.308 32.875 234.863 32.4688 234.527 31.8985C234.199 31.3282 234.035 30.5391 234.035 29.5313V21.9141H232.207V20.9649L234.047 20.2032L234.82 17.4141H235.992V20.3906H239.754V21.9141H235.992V29.4727C235.992 30.2774 236.176 30.8789 236.543 31.2774C236.918 31.6758 237.414 31.875 238.031 31.875Z" fill="black"/>
</svg>
