<svg width="256" height="51" viewBox="0 0 256 51" fill="none" xmlns="http://www.w3.org/2000/svg">
<rect width="256" height="51" fill="#E5E5E5"/>
<rect width="256" height="51" fill="white"/>
<path d="M34.8125 34.125C34.8125 36.6042 34.1875 38.9583 32.9375 41.1875C31.6875 43.3958 29.7396 45.1875 27.0938 46.5625C24.4688 47.9375 21.0729 48.625 16.9062 48.625C14.8229 48.625 12.9896 48.5312 11.4062 48.3438C9.84375 48.1562 8.38542 47.8542 7.03125 47.4375C5.67708 47 4.27083 46.4375 2.8125 45.75V34.75C5.29167 36 7.79167 36.9583 10.3125 37.625C12.8333 38.2708 15.1146 38.5938 17.1562 38.5938C18.3854 38.5938 19.3854 38.4479 20.1562 38.1562C20.9479 37.8646 21.5312 37.4688 21.9062 36.9688C22.2812 36.4479 22.4688 35.8542 22.4688 35.1875C22.4688 34.3958 22.1875 33.7292 21.625 33.1875C21.0833 32.625 20.2083 32.0417 19 31.4375C17.7917 30.8333 16.1979 30.0833 14.2188 29.1875C12.5312 28.3958 11 27.5833 9.625 26.75C8.27083 25.9167 7.10417 24.9688 6.125 23.9062C5.16667 22.8229 4.42708 21.5625 3.90625 20.125C3.38542 18.6875 3.125 16.9896 3.125 15.0312C3.125 12.0938 3.84375 9.63542 5.28125 7.65625C6.73958 5.65625 8.76042 4.15625 11.3438 3.15625C13.9479 2.15625 16.9479 1.65625 20.3438 1.65625C23.3229 1.65625 26 1.98958 28.375 2.65625C30.7708 3.32292 32.9167 4.08333 34.8125 4.9375L31.0312 14.4688C29.0729 13.5729 27.1458 12.8646 25.25 12.3438C23.3542 11.8021 21.5938 11.5312 19.9688 11.5312C18.9062 11.5312 18.0312 11.6667 17.3438 11.9375C16.6771 12.1875 16.1771 12.5312 15.8438 12.9688C15.5312 13.4062 15.375 13.9062 15.375 14.4688C15.375 15.1771 15.6458 15.8125 16.1875 16.375C16.75 16.9375 17.6771 17.5521 18.9688 18.2188C20.2812 18.8646 22.0625 19.7083 24.3125 20.75C26.5417 21.75 28.4375 22.8333 30 24C31.5625 25.1458 32.75 26.5312 33.5625 28.1562C34.3958 29.7604 34.8125 31.75 34.8125 34.125ZM62.2188 11.7812C60.7604 11.7812 59.4583 12.0938 58.3125 12.7188C57.1667 13.3229 56.1875 14.2083 55.375 15.375C54.5625 16.5417 53.9375 17.9688 53.5 19.6562C53.0833 21.3229 52.875 23.2188 52.875 25.3438C52.875 28.2188 53.2396 30.6354 53.9688 32.5938C54.6979 34.5521 55.8021 36.0312 57.2812 37.0312C58.7812 38.0312 60.6562 38.5312 62.9062 38.5312C64.9479 38.5312 66.9062 38.25 68.7812 37.6875C70.6771 37.125 72.5833 36.4479 74.5 35.6562V46.0938C72.4792 46.9896 70.4062 47.6354 68.2812 48.0312C66.1771 48.4271 63.9375 48.625 61.5625 48.625C56.6042 48.625 52.5417 47.6458 49.375 45.6875C46.2292 43.7083 43.9062 40.9688 42.4062 37.4688C40.9271 33.9688 40.1875 29.9062 40.1875 25.2812C40.1875 21.8229 40.6667 18.6562 41.625 15.7812C42.6042 12.9062 44.0312 10.4167 45.9062 8.3125C47.7812 6.1875 50.0938 4.55208 52.8438 3.40625C55.6146 2.23958 58.7812 1.65625 62.3438 1.65625C64.5521 1.65625 66.875 1.91667 69.3125 2.4375C71.7708 2.9375 74.1667 3.75 76.5 4.875L72.7188 14.5938C71.0521 13.8021 69.3646 13.1354 67.6562 12.5938C65.9479 12.0521 64.1354 11.7812 62.2188 11.7812Z" fill="black"/>
<path d="M87.75 3.25H87.25V47.75H87.75V3.25Z" fill="black" stroke="black" stroke-width="0.5"/>
<path d="M112.781 28.6758C112.781 29.6914 112.527 30.5586 112.019 31.2774C111.519 31.9883 110.816 32.5313 109.91 32.9063C109.004 33.2813 107.937 33.4688 106.711 33.4688C106.062 33.4688 105.449 33.4375 104.871 33.375C104.293 33.3125 103.762 33.2227 103.277 33.1055C102.793 32.9883 102.367 32.8438 102 32.6719V30.7617C102.586 31.0039 103.301 31.2305 104.145 31.4414C104.988 31.6446 105.871 31.7461 106.793 31.7461C107.652 31.7461 108.379 31.6328 108.973 31.4063C109.566 31.1719 110.016 30.8399 110.32 30.4102C110.633 29.9727 110.789 29.4492 110.789 28.8399C110.789 28.2539 110.66 27.7656 110.402 27.375C110.144 26.9766 109.715 26.6172 109.113 26.2969C108.519 25.9688 107.707 25.6211 106.676 25.2539C105.949 24.9961 105.308 24.7149 104.754 24.4102C104.199 24.0977 103.734 23.7461 103.359 23.3555C102.984 22.9649 102.699 22.5117 102.504 21.9961C102.316 21.4805 102.223 20.8906 102.223 20.2266C102.223 19.3125 102.453 18.5313 102.914 17.8828C103.383 17.2266 104.027 16.7266 104.848 16.3828C105.676 16.0313 106.625 15.8555 107.695 15.8555C108.609 15.8555 109.453 15.9414 110.226 16.1133C111.008 16.2852 111.723 16.5156 112.371 16.8047L111.75 18.5156C111.133 18.2578 110.476 18.043 109.781 17.8711C109.094 17.6992 108.383 17.6133 107.648 17.6133C106.914 17.6133 106.293 17.7227 105.785 17.9414C105.285 18.1524 104.902 18.4532 104.637 18.8438C104.371 19.2344 104.238 19.6992 104.238 20.2383C104.238 20.8399 104.363 21.3399 104.613 21.7383C104.871 22.1367 105.277 22.4922 105.832 22.8047C106.394 23.1094 107.137 23.4297 108.058 23.7656C109.066 24.1328 109.922 24.5235 110.625 24.9375C111.328 25.3438 111.863 25.8438 112.23 26.4375C112.598 27.0235 112.781 27.7696 112.781 28.6758ZM120.14 31.875C120.461 31.875 120.789 31.8477 121.125 31.793C121.461 31.7383 121.734 31.6719 121.945 31.5938V33.1055C121.719 33.2071 121.402 33.293 120.996 33.3633C120.598 33.4336 120.207 33.4688 119.824 33.4688C119.144 33.4688 118.527 33.3516 117.973 33.1172C117.418 32.875 116.973 32.4688 116.637 31.8985C116.308 31.3282 116.144 30.5391 116.144 29.5313V21.9141H114.316V20.9649L116.156 20.2032L116.93 17.4141H118.101V20.3906H121.863V21.9141H118.101V29.4727C118.101 30.2774 118.285 30.8789 118.652 31.2774C119.027 31.6758 119.523 31.875 120.14 31.875ZM135.152 20.3906V33.2344H133.558L133.277 31.4297H133.172C132.906 31.875 132.562 32.25 132.14 32.5547C131.719 32.8594 131.242 33.086 130.711 33.2344C130.187 33.3906 129.629 33.4688 129.035 33.4688C128.019 33.4688 127.168 33.3047 126.48 32.9766C125.793 32.6485 125.273 32.1406 124.922 31.4532C124.578 30.7656 124.406 29.8828 124.406 28.8047V20.3906H126.375V28.6641C126.375 29.7344 126.617 30.5352 127.101 31.0664C127.586 31.5899 128.324 31.8516 129.316 31.8516C130.269 31.8516 131.027 31.6719 131.59 31.3125C132.16 30.9532 132.57 30.4258 132.82 29.7305C133.07 29.0274 133.195 28.168 133.195 27.1524V20.3906H135.152ZM143.836 33.4688C142.211 33.4688 140.922 32.9141 139.969 31.8047C139.023 30.6953 138.551 29.0469 138.551 26.8594C138.551 24.6485 139.035 22.9805 140.004 21.8555C140.973 20.7227 142.262 20.1563 143.871 20.1563C144.551 20.1563 145.144 20.2461 145.652 20.4258C146.16 20.6055 146.598 20.8477 146.965 21.1524C147.332 21.4492 147.64 21.7891 147.89 22.1719H148.031C148 21.9297 147.969 21.5977 147.937 21.1758C147.906 20.7539 147.89 20.4102 147.89 20.1446V15H149.836V33.2344H148.266L147.973 31.4063H147.89C147.648 31.7891 147.34 32.1367 146.965 32.4492C146.598 32.7617 146.156 33.0117 145.64 33.1992C145.133 33.3789 144.531 33.4688 143.836 33.4688ZM144.14 31.8516C145.516 31.8516 146.488 31.461 147.058 30.6797C147.629 29.8985 147.914 28.7383 147.914 27.1992V26.8477C147.914 25.2149 147.64 23.961 147.094 23.086C146.555 22.211 145.57 21.7735 144.14 21.7735C142.945 21.7735 142.051 22.2344 141.457 23.1563C140.863 24.0703 140.566 25.3203 140.566 26.9063C140.566 28.4844 140.859 29.7032 141.445 30.5625C142.039 31.4219 142.937 31.8516 144.14 31.8516ZM158.906 20.1563C160 20.1563 160.937 20.3985 161.719 20.8828C162.5 21.3672 163.098 22.0469 163.512 22.9219C163.926 23.7891 164.133 24.8047 164.133 25.9688V27.1758H155.262C155.285 28.6836 155.66 29.8321 156.387 30.6211C157.113 31.4102 158.137 31.8047 159.457 31.8047C160.269 31.8047 160.988 31.7305 161.613 31.5821C162.238 31.4336 162.887 31.2149 163.558 30.9258V32.6367C162.91 32.9258 162.266 33.1367 161.625 33.2696C160.992 33.4024 160.242 33.4688 159.375 33.4688C158.14 33.4688 157.062 33.2188 156.14 32.7188C155.226 32.211 154.516 31.4688 154.008 30.4922C153.5 29.5156 153.246 28.3203 153.246 26.9063C153.246 25.5235 153.476 24.3282 153.937 23.3203C154.406 22.3047 155.062 21.5235 155.906 20.9766C156.758 20.4297 157.758 20.1563 158.906 20.1563ZM158.883 21.75C157.844 21.75 157.016 22.0899 156.398 22.7696C155.781 23.4492 155.414 24.3985 155.297 25.6172H162.094C162.086 24.8516 161.965 24.1797 161.73 23.6016C161.504 23.0156 161.156 22.5625 160.687 22.2422C160.219 21.9141 159.617 21.75 158.883 21.75ZM173.519 20.1563C175.043 20.1563 176.195 20.5313 176.976 21.2813C177.758 22.0235 178.148 23.2188 178.148 24.8672V33.2344H176.226V24.9961C176.226 23.9258 175.98 23.125 175.488 22.5938C175.004 22.0625 174.258 21.7969 173.25 21.7969C171.828 21.7969 170.828 22.1992 170.25 23.0039C169.672 23.8086 169.383 24.9766 169.383 26.5078V33.2344H167.437V20.3906H169.008L169.301 22.2422H169.406C169.68 21.7891 170.027 21.4102 170.449 21.1055C170.871 20.793 171.344 20.5586 171.867 20.4024C172.39 20.2383 172.941 20.1563 173.519 20.1563ZM186.305 31.875C186.625 31.875 186.953 31.8477 187.289 31.793C187.625 31.7383 187.898 31.6719 188.109 31.5938V33.1055C187.883 33.2071 187.566 33.293 187.16 33.3633C186.762 33.4336 186.371 33.4688 185.988 33.4688C185.308 33.4688 184.691 33.3516 184.137 33.1172C183.582 32.875 183.137 32.4688 182.801 31.8985C182.473 31.3282 182.308 30.5391 182.308 29.5313V21.9141H180.48V20.9649L182.32 20.2032L183.094 17.4141H184.266V20.3906H188.027V21.9141H184.266V29.4727C184.266 30.2774 184.449 30.8789 184.816 31.2774C185.191 31.6758 185.687 31.875 186.305 31.875ZM198.328 17.6133C197.383 17.6133 196.531 17.7774 195.773 18.1055C195.023 18.4258 194.383 18.8946 193.851 19.5117C193.328 20.1211 192.926 20.8594 192.644 21.7266C192.363 22.5938 192.223 23.5703 192.223 24.6563C192.223 26.0938 192.445 27.3438 192.89 28.4063C193.344 29.461 194.016 30.2774 194.906 30.8555C195.805 31.4336 196.926 31.7227 198.269 31.7227C199.035 31.7227 199.754 31.6602 200.426 31.5352C201.105 31.4024 201.766 31.2383 202.406 31.043V32.7774C201.781 33.0117 201.125 33.1836 200.437 33.293C199.75 33.4102 198.933 33.4688 197.988 33.4688C196.246 33.4688 194.789 33.1094 193.617 32.3906C192.453 31.6641 191.578 30.6406 190.992 29.3203C190.414 28 190.125 26.4414 190.125 24.6446C190.125 23.3477 190.305 22.1641 190.664 21.0938C191.031 20.0156 191.562 19.086 192.258 18.3047C192.961 17.5235 193.82 16.9219 194.836 16.5C195.859 16.0703 197.031 15.8555 198.351 15.8555C199.219 15.8555 200.055 15.9414 200.859 16.1133C201.664 16.2852 202.39 16.5313 203.039 16.8516L202.242 18.5391C201.695 18.2891 201.094 18.0742 200.437 17.8946C199.789 17.7071 199.086 17.6133 198.328 17.6133ZM207.773 15V20.4492C207.773 20.7617 207.766 21.0782 207.75 21.3985C207.734 21.711 207.707 22 207.668 22.2656H207.797C208.062 21.8125 208.398 21.4336 208.805 21.1289C209.219 20.8164 209.687 20.5821 210.211 20.4258C210.734 20.2617 211.289 20.1797 211.875 20.1797C212.906 20.1797 213.766 20.3438 214.453 20.6719C215.148 21 215.668 21.5078 216.012 22.1953C216.363 22.8828 216.539 23.7735 216.539 24.8672V33.2344H214.617V24.9961C214.617 23.9258 214.371 23.125 213.879 22.5938C213.394 22.0625 212.648 21.7969 211.64 21.7969C210.687 21.7969 209.926 21.9805 209.355 22.3477C208.793 22.7071 208.387 23.2383 208.137 23.9414C207.894 24.6446 207.773 25.5039 207.773 26.5196V33.2344H205.828V15H207.773ZM225.351 20.1797C226.883 20.1797 228.019 20.5235 228.762 21.211C229.504 21.8985 229.875 22.9961 229.875 24.5039V33.2344H228.457L228.082 31.336H227.988C227.629 31.8047 227.254 32.1992 226.863 32.5196C226.473 32.8321 226.019 33.0703 225.504 33.2344C224.996 33.3906 224.371 33.4688 223.629 33.4688C222.848 33.4688 222.152 33.3321 221.543 33.0586C220.941 32.7852 220.465 32.3711 220.113 31.8164C219.769 31.2617 219.598 30.5586 219.598 29.7071C219.598 28.4258 220.105 27.4414 221.121 26.7539C222.137 26.0664 223.683 25.6914 225.762 25.6289L227.976 25.5352V24.75C227.976 23.6406 227.738 22.8633 227.262 22.418C226.785 21.9727 226.113 21.75 225.246 21.75C224.574 21.75 223.933 21.8477 223.324 22.043C222.715 22.2383 222.137 22.4688 221.59 22.7344L220.992 21.2578C221.57 20.961 222.234 20.7071 222.984 20.4961C223.734 20.2852 224.523 20.1797 225.351 20.1797ZM227.953 26.9063L225.996 26.9883C224.394 27.0508 223.266 27.3125 222.609 27.7735C221.953 28.2344 221.625 28.8867 221.625 29.7305C221.625 30.4649 221.848 31.0078 222.293 31.3594C222.738 31.711 223.328 31.8867 224.062 31.8867C225.203 31.8867 226.137 31.5703 226.863 30.9375C227.59 30.3047 227.953 29.3555 227.953 28.0899V26.9063ZM238.031 31.875C238.351 31.875 238.68 31.8477 239.016 31.793C239.351 31.7383 239.625 31.6719 239.836 31.5938V33.1055C239.609 33.2071 239.293 33.293 238.887 33.3633C238.488 33.4336 238.098 33.4688 237.715 33.4688C237.035 33.4688 236.418 33.3516 235.863 33.1172C235.308 32.875 234.863 32.4688 234.527 31.8985C234.199 31.3282 234.035 30.5391 234.035 29.5313V21.9141H232.207V20.9649L234.047 20.2032L234.82 17.4141H235.992V20.3906H239.754V21.9141H235.992V29.4727C235.992 30.2774 236.176 30.8789 236.543 31.2774C236.918 31.6758 237.414 31.875 238.031 31.875Z" fill="black"/>
<path d="M102.92 48.4545V39.4545H103.892V40.4943H104.011C104.085 40.3807 104.188 40.2358 104.318 40.0597C104.452 39.8807 104.642 39.7216 104.889 39.5824C105.139 39.4403 105.477 39.3693 105.903 39.3693C106.455 39.3693 106.94 39.5071 107.361 39.7827C107.781 40.0582 108.109 40.4489 108.345 40.9545C108.581 41.4602 108.699 42.0568 108.699 42.7443C108.699 43.4375 108.581 44.0384 108.345 44.5469C108.109 45.0526 107.783 45.4446 107.365 45.723C106.947 45.9986 106.466 46.1364 105.92 46.1364C105.5 46.1364 105.163 46.0668 104.911 45.9276C104.658 45.7855 104.463 45.625 104.327 45.446C104.19 45.2642 104.085 45.1136 104.011 44.9943H103.926V48.4545H102.92ZM103.909 42.7273C103.909 43.2216 103.982 43.6577 104.126 44.0355C104.271 44.4105 104.483 44.7045 104.761 44.9176C105.04 45.1278 105.381 45.233 105.784 45.233C106.205 45.233 106.555 45.1222 106.837 44.9006C107.121 44.6761 107.334 44.375 107.476 43.9972C107.621 43.6165 107.693 43.1932 107.693 42.7273C107.693 42.267 107.622 41.8523 107.48 41.483C107.341 41.1108 107.129 40.8168 106.845 40.6009C106.564 40.3821 106.21 40.2727 105.784 40.2727C105.375 40.2727 105.031 40.3764 104.753 40.5838C104.474 40.7884 104.264 41.0753 104.122 41.4446C103.98 41.8111 103.909 42.2386 103.909 42.7273ZM112.159 46.1534C111.744 46.1534 111.368 46.0753 111.03 45.919C110.692 45.7599 110.423 45.5312 110.224 45.233C110.026 44.9318 109.926 44.5682 109.926 44.142C109.926 43.767 110 43.4631 110.148 43.2301C110.295 42.9943 110.493 42.8097 110.74 42.6761C110.987 42.5426 111.26 42.4432 111.558 42.3778C111.859 42.3097 112.162 42.2557 112.466 42.2159C112.864 42.1648 113.186 42.1264 113.433 42.1009C113.683 42.0724 113.865 42.0256 113.979 41.9602C114.095 41.8949 114.153 41.7812 114.153 41.6193V41.5852C114.153 41.1648 114.038 40.8381 113.808 40.6051C113.581 40.3722 113.236 40.2557 112.773 40.2557C112.293 40.2557 111.916 40.3608 111.643 40.571C111.371 40.7812 111.179 41.0057 111.068 41.2443L110.114 40.9034C110.284 40.5057 110.511 40.196 110.795 39.9744C111.082 39.75 111.395 39.5937 111.733 39.5057C112.074 39.4148 112.409 39.3693 112.739 39.3693C112.949 39.3693 113.19 39.3949 113.463 39.446C113.739 39.4943 114.004 39.5952 114.26 39.7486C114.518 39.902 114.733 40.1335 114.903 40.4432C115.074 40.7528 115.159 41.1676 115.159 41.6875V46H114.153V45.1136H114.102C114.034 45.2557 113.92 45.4077 113.761 45.5696C113.602 45.7315 113.391 45.8693 113.126 45.983C112.862 46.0966 112.54 46.1534 112.159 46.1534ZM112.312 45.25C112.71 45.25 113.045 45.1719 113.318 45.0156C113.594 44.8594 113.801 44.6577 113.94 44.4105C114.082 44.1634 114.153 43.9034 114.153 43.6307V42.7102C114.111 42.7614 114.017 42.8082 113.872 42.8509C113.73 42.8906 113.565 42.9261 113.378 42.9574C113.193 42.9858 113.013 43.0114 112.837 43.0341C112.663 43.054 112.523 43.071 112.415 43.0852C112.153 43.1193 111.909 43.1747 111.682 43.2514C111.457 43.3253 111.276 43.4375 111.136 43.5881C111 43.7358 110.932 43.9375 110.932 44.1932C110.932 44.5426 111.061 44.8068 111.32 44.9858C111.581 45.1619 111.912 45.25 112.312 45.25ZM121.853 37L122.364 37.6136C122.165 37.8068 121.935 37.9418 121.674 38.0185C121.412 38.0952 121.117 38.142 120.787 38.1591C120.458 38.1761 120.091 38.1932 119.688 38.2102C119.233 38.2273 118.857 38.3381 118.559 38.5426C118.26 38.7472 118.03 39.0426 117.868 39.429C117.706 39.8153 117.603 40.2898 117.557 40.8523H117.642C117.864 40.4432 118.171 40.142 118.563 39.9489C118.955 39.7557 119.375 39.6591 119.824 39.6591C120.336 39.6591 120.796 39.7784 121.205 40.017C121.614 40.2557 121.938 40.6094 122.176 41.0781C122.415 41.5469 122.534 42.125 122.534 42.8125C122.534 43.4972 122.412 44.0881 122.168 44.5852C121.926 45.0824 121.587 45.4659 121.15 45.7358C120.715 46.0028 120.205 46.1364 119.62 46.1364C119.034 46.1364 118.522 45.9986 118.081 45.723C117.641 45.4446 117.299 45.0327 117.054 44.4872C116.81 43.9389 116.688 43.2614 116.688 42.4545V41.7557C116.688 40.2983 116.935 39.1932 117.429 38.4403C117.926 37.6875 118.674 37.2983 119.671 37.2727C120.023 37.2614 120.337 37.2585 120.613 37.2642C120.888 37.2699 121.128 37.2571 121.333 37.2259C121.537 37.1946 121.711 37.1193 121.853 37ZM119.62 45.233C120.015 45.233 120.354 45.1335 120.638 44.9347C120.925 44.7358 121.145 44.456 121.299 44.0952C121.452 43.7315 121.529 43.304 121.529 42.8125C121.529 42.3352 121.451 41.929 121.294 41.5938C121.141 41.2585 120.921 41.0028 120.634 40.8267C120.347 40.6506 120.003 40.5625 119.603 40.5625C119.31 40.5625 119.047 40.6122 118.814 40.7116C118.581 40.8111 118.382 40.9574 118.218 41.1506C118.053 41.3437 117.925 41.5795 117.834 41.858C117.746 42.1364 117.699 42.4545 117.694 42.8125C117.694 43.5455 117.865 44.1321 118.209 44.5724C118.553 45.0128 119.023 45.233 119.62 45.233ZM126.732 46.1364C126.141 46.1364 125.623 45.9957 125.176 45.7145C124.733 45.4332 124.387 45.0398 124.137 44.5341C123.89 44.0284 123.766 43.4375 123.766 42.7614C123.766 42.0795 123.89 41.4844 124.137 40.9759C124.387 40.4673 124.733 40.0724 125.176 39.7912C125.623 39.5099 126.141 39.3693 126.732 39.3693C127.323 39.3693 127.84 39.5099 128.283 39.7912C128.729 40.0724 129.076 40.4673 129.323 40.9759C129.573 41.4844 129.698 42.0795 129.698 42.7614C129.698 43.4375 129.573 44.0284 129.323 44.5341C129.076 45.0398 128.729 45.4332 128.283 45.7145C127.84 45.9957 127.323 46.1364 126.732 46.1364ZM126.732 45.233C127.181 45.233 127.55 45.1179 127.84 44.8878C128.13 44.6577 128.344 44.3551 128.483 43.9801C128.623 43.6051 128.692 43.1989 128.692 42.7614C128.692 42.3239 128.623 41.9162 128.483 41.5384C128.344 41.1605 128.13 40.8551 127.84 40.6222C127.55 40.3892 127.181 40.2727 126.732 40.2727C126.283 40.2727 125.914 40.3892 125.624 40.6222C125.334 40.8551 125.12 41.1605 124.98 41.5384C124.841 41.9162 124.772 42.3239 124.772 42.7614C124.772 43.1989 124.841 43.6051 124.98 43.9801C125.12 44.3551 125.334 44.6577 125.624 44.8878C125.914 45.1179 126.283 45.233 126.732 45.233ZM130.377 40.392V39.4545H135.696V40.392H133.548V46H132.542V40.392H130.377ZM139.482 46.1364C138.891 46.1364 138.373 45.9957 137.926 45.7145C137.483 45.4332 137.137 45.0398 136.887 44.5341C136.64 44.0284 136.516 43.4375 136.516 42.7614C136.516 42.0795 136.64 41.4844 136.887 40.9759C137.137 40.4673 137.483 40.0724 137.926 39.7912C138.373 39.5099 138.891 39.3693 139.482 39.3693C140.073 39.3693 140.59 39.5099 141.033 39.7912C141.479 40.0724 141.826 40.4673 142.073 40.9759C142.323 41.4844 142.448 42.0795 142.448 42.7614C142.448 43.4375 142.323 44.0284 142.073 44.5341C141.826 45.0398 141.479 45.4332 141.033 45.7145C140.59 45.9957 140.073 46.1364 139.482 46.1364ZM139.482 45.233C139.931 45.233 140.3 45.1179 140.59 44.8878C140.88 44.6577 141.094 44.3551 141.233 43.9801C141.373 43.6051 141.442 43.1989 141.442 42.7614C141.442 42.3239 141.373 41.9162 141.233 41.5384C141.094 41.1605 140.88 40.8551 140.59 40.6222C140.3 40.3892 139.931 40.2727 139.482 40.2727C139.033 40.2727 138.664 40.3892 138.374 40.6222C138.084 40.8551 137.87 41.1605 137.73 41.5384C137.591 41.9162 137.522 42.3239 137.522 42.7614C137.522 43.1989 137.591 43.6051 137.73 43.9801C137.87 44.3551 138.084 44.6577 138.374 44.8878C138.664 45.1179 139.033 45.233 139.482 45.233ZM143.284 47.875V45.0625H143.83C143.963 44.9233 144.078 44.7727 144.175 44.6108C144.271 44.4489 144.355 44.2571 144.426 44.0355C144.5 43.8111 144.563 43.5384 144.614 43.2173C144.665 42.8935 144.71 42.5028 144.75 42.0455L144.972 39.4545H149.131V45.0625H150.136V47.875H149.131V46H144.29V47.875H143.284ZM144.972 45.0625H148.125V40.392H145.909L145.739 42.0455C145.668 42.7301 145.58 43.3281 145.474 43.8395C145.369 44.3509 145.202 44.7585 144.972 45.0625ZM153.397 46.1534C152.983 46.1534 152.606 46.0753 152.268 45.919C151.93 45.7599 151.662 45.5312 151.463 45.233C151.264 44.9318 151.164 44.5682 151.164 44.142C151.164 43.767 151.238 43.4631 151.386 43.2301C151.534 42.9943 151.731 42.8097 151.978 42.6761C152.225 42.5426 152.498 42.4432 152.797 42.3778C153.098 42.3097 153.4 42.2557 153.704 42.2159C154.102 42.1648 154.424 42.1264 154.672 42.1009C154.922 42.0724 155.103 42.0256 155.217 41.9602C155.333 41.8949 155.392 41.7812 155.392 41.6193V41.5852C155.392 41.1648 155.277 40.8381 155.047 40.6051C154.819 40.3722 154.474 40.2557 154.011 40.2557C153.531 40.2557 153.154 40.3608 152.882 40.571C152.609 40.7812 152.417 41.0057 152.306 41.2443L151.352 40.9034C151.522 40.5057 151.75 40.196 152.034 39.9744C152.321 39.75 152.633 39.5937 152.971 39.5057C153.312 39.4148 153.647 39.3693 153.977 39.3693C154.187 39.3693 154.429 39.3949 154.701 39.446C154.977 39.4943 155.243 39.5952 155.498 39.7486C155.757 39.902 155.971 40.1335 156.142 40.4432C156.312 40.7528 156.397 41.1676 156.397 41.6875V46H155.392V45.1136H155.341C155.272 45.2557 155.159 45.4077 155 45.5696C154.841 45.7315 154.629 45.8693 154.365 45.983C154.1 46.0966 153.778 46.1534 153.397 46.1534ZM153.551 45.25C153.949 45.25 154.284 45.1719 154.556 45.0156C154.832 44.8594 155.039 44.6577 155.179 44.4105C155.321 44.1634 155.392 43.9034 155.392 43.6307V42.7102C155.349 42.7614 155.255 42.8082 155.11 42.8509C154.968 42.8906 154.804 42.9261 154.616 42.9574C154.431 42.9858 154.251 43.0114 154.075 43.0341C153.902 43.054 153.761 43.071 153.653 43.0852C153.392 43.1193 153.147 43.1747 152.92 43.2514C152.696 43.3253 152.514 43.4375 152.375 43.5881C152.238 43.7358 152.17 43.9375 152.17 44.1932C152.17 44.5426 152.299 44.8068 152.558 44.9858C152.819 45.1619 153.15 45.25 153.551 45.25ZM157.342 40.392V39.4545H162.661V40.392H160.513V46H159.507V40.392H157.342ZM166.532 46.1364C165.901 46.1364 165.357 45.9972 164.9 45.7188C164.445 45.4375 164.094 45.0455 163.847 44.5426C163.603 44.0369 163.481 43.4489 163.481 42.7784C163.481 42.108 163.603 41.517 163.847 41.0057C164.094 40.4915 164.438 40.0909 164.879 39.804C165.322 39.5142 165.839 39.3693 166.43 39.3693C166.771 39.3693 167.107 39.4261 167.44 39.5398C167.772 39.6534 168.075 39.8381 168.347 40.0938C168.62 40.3466 168.837 40.6818 168.999 41.0994C169.161 41.517 169.242 42.0312 169.242 42.642V43.0682H164.197V42.1989H168.219C168.219 41.8295 168.146 41.5 167.998 41.2102C167.853 40.9205 167.646 40.6918 167.376 40.5241C167.109 40.3565 166.793 40.2727 166.43 40.2727C166.029 40.2727 165.683 40.3722 165.39 40.571C165.1 40.767 164.877 41.0227 164.721 41.3381C164.565 41.6534 164.487 41.9915 164.487 42.3523V42.9318C164.487 43.4261 164.572 43.8452 164.742 44.1889C164.915 44.5298 165.156 44.7898 165.462 44.9688C165.769 45.1449 166.126 45.233 166.532 45.233C166.796 45.233 167.035 45.196 167.248 45.1222C167.464 45.0455 167.65 44.9318 167.806 44.7812C167.962 44.6278 168.083 44.4375 168.168 44.2102L169.14 44.483C169.038 44.8125 168.866 45.1023 168.624 45.3523C168.383 45.5994 168.085 45.7926 167.729 45.9318C167.374 46.0682 166.975 46.1364 166.532 46.1364ZM170.192 46V45.0625H170.431C170.627 45.0625 170.79 45.0241 170.921 44.9474C171.052 44.8679 171.157 44.7301 171.237 44.5341C171.319 44.3352 171.381 44.0597 171.424 43.7074C171.469 43.3523 171.502 42.9006 171.522 42.3523L171.641 39.4545H176.005V46H174.999V40.392H172.596L172.494 42.7273C172.471 43.2642 172.423 43.7372 172.349 44.1463C172.278 44.5526 172.168 44.8935 172.021 45.169C171.876 45.4446 171.683 45.652 171.441 45.7912C171.2 45.9304 170.897 46 170.533 46H170.192ZM178.719 41.8239H180.594C181.362 41.8239 181.948 42.0185 182.354 42.4077C182.761 42.7969 182.964 43.2898 182.964 43.8864C182.964 44.2784 182.873 44.6349 182.691 44.956C182.509 45.2741 182.242 45.5284 181.89 45.7188C181.538 45.9062 181.106 46 180.594 46H177.85V39.4545H178.856V45.0625H180.594C180.992 45.0625 181.319 44.9574 181.575 44.7472C181.83 44.5369 181.958 44.267 181.958 43.9375C181.958 43.5909 181.83 43.3082 181.575 43.0895C181.319 42.8707 180.992 42.7614 180.594 42.7614H178.719V41.8239Z" fill="black"/>
</svg>
