<svg width="256" height="51" viewBox="0 0 256 51" fill="none" xmlns="http://www.w3.org/2000/svg">
<rect width="256" height="51" fill="#E5E5E5"/>
<rect width="256" height="51" fill="white"/>
<path d="M34.8125 34.125C34.8125 36.6042 34.1875 38.9583 32.9375 41.1875C31.6875 43.3958 29.7396 45.1875 27.0938 46.5625C24.4688 47.9375 21.0729 48.625 16.9062 48.625C14.8229 48.625 12.9896 48.5312 11.4062 48.3438C9.84375 48.1562 8.38542 47.8542 7.03125 47.4375C5.67708 47 4.27083 46.4375 2.8125 45.75V34.75C5.29167 36 7.79167 36.9583 10.3125 37.625C12.8333 38.2708 15.1146 38.5938 17.1562 38.5938C18.3854 38.5938 19.3854 38.4479 20.1562 38.1562C20.9479 37.8646 21.5312 37.4688 21.9062 36.9688C22.2812 36.4479 22.4688 35.8542 22.4688 35.1875C22.4688 34.3958 22.1875 33.7292 21.625 33.1875C21.0833 32.625 20.2083 32.0417 19 31.4375C17.7917 30.8333 16.1979 30.0833 14.2188 29.1875C12.5312 28.3958 11 27.5833 9.625 26.75C8.27083 25.9167 7.10417 24.9688 6.125 23.9062C5.16667 22.8229 4.42708 21.5625 3.90625 20.125C3.38542 18.6875 3.125 16.9896 3.125 15.0312C3.125 12.0938 3.84375 9.63542 5.28125 7.65625C6.73958 5.65625 8.76042 4.15625 11.3438 3.15625C13.9479 2.15625 16.9479 1.65625 20.3438 1.65625C23.3229 1.65625 26 1.98958 28.375 2.65625C30.7708 3.32292 32.9167 4.08333 34.8125 4.9375L31.0312 14.4688C29.0729 13.5729 27.1458 12.8646 25.25 12.3438C23.3542 11.8021 21.5938 11.5312 19.9688 11.5312C18.9062 11.5312 18.0312 11.6667 17.3438 11.9375C16.6771 12.1875 16.1771 12.5312 15.8438 12.9688C15.5312 13.4062 15.375 13.9062 15.375 14.4688C15.375 15.1771 15.6458 15.8125 16.1875 16.375C16.75 16.9375 17.6771 17.5521 18.9688 18.2188C20.2812 18.8646 22.0625 19.7083 24.3125 20.75C26.5417 21.75 28.4375 22.8333 30 24C31.5625 25.1458 32.75 26.5312 33.5625 28.1562C34.3958 29.7604 34.8125 31.75 34.8125 34.125ZM62.2188 11.7812C60.7604 11.7812 59.4583 12.0938 58.3125 12.7188C57.1667 13.3229 56.1875 14.2083 55.375 15.375C54.5625 16.5417 53.9375 17.9688 53.5 19.6562C53.0833 21.3229 52.875 23.2188 52.875 25.3438C52.875 28.2188 53.2396 30.6354 53.9688 32.5938C54.6979 34.5521 55.8021 36.0312 57.2812 37.0312C58.7812 38.0312 60.6562 38.5312 62.9062 38.5312C64.9479 38.5312 66.9062 38.25 68.7812 37.6875C70.6771 37.125 72.5833 36.4479 74.5 35.6562V46.0938C72.4792 46.9896 70.4062 47.6354 68.2812 48.0312C66.1771 48.4271 63.9375 48.625 61.5625 48.625C56.6042 48.625 52.5417 47.6458 49.375 45.6875C46.2292 43.7083 43.9062 40.9688 42.4062 37.4688C40.9271 33.9688 40.1875 29.9062 40.1875 25.2812C40.1875 21.8229 40.6667 18.6562 41.625 15.7812C42.6042 12.9062 44.0312 10.4167 45.9062 8.3125C47.7812 6.1875 50.0938 4.55208 52.8438 3.40625C55.6146 2.23958 58.7812 1.65625 62.3438 1.65625C64.5521 1.65625 66.875 1.91667 69.3125 2.4375C71.7708 2.9375 74.1667 3.75 76.5 4.875L72.7188 14.5938C71.0521 13.8021 69.3646 13.1354 67.6562 12.5938C65.9479 12.0521 64.1354 11.7812 62.2188 11.7812Z" fill="black"/>
<path d="M87.75 3.25H87.25V47.75H87.75V3.25Z" fill="black" stroke="black" stroke-width="0.5"/>
<path d="M112.781 28.6758C112.781 29.6914 112.527 30.5586 112.019 31.2774C111.519 31.9883 110.816 32.5313 109.91 32.9063C109.004 33.2813 107.937 33.4688 106.711 33.4688C106.062 33.4688 105.449 33.4375 104.871 33.375C104.293 33.3125 103.762 33.2227 103.277 33.1055C102.793 32.9883 102.367 32.8438 102 32.6719V30.7617C102.586 31.0039 103.301 31.2305 104.145 31.4414C104.988 31.6446 105.871 31.7461 106.793 31.7461C107.652 31.7461 108.379 31.6328 108.973 31.4063C109.566 31.1719 110.016 30.8399 110.32 30.4102C110.633 29.9727 110.789 29.4492 110.789 28.8399C110.789 28.2539 110.66 27.7656 110.402 27.375C110.144 26.9766 109.715 26.6172 109.113 26.2969C108.519 25.9688 107.707 25.6211 106.676 25.2539C105.949 24.9961 105.308 24.7149 104.754 24.4102C104.199 24.0977 103.734 23.7461 103.359 23.3555C102.984 22.9649 102.699 22.5117 102.504 21.9961C102.316 21.4805 102.223 20.8906 102.223 20.2266C102.223 19.3125 102.453 18.5313 102.914 17.8828C103.383 17.2266 104.027 16.7266 104.848 16.3828C105.676 16.0313 106.625 15.8555 107.695 15.8555C108.609 15.8555 109.453 15.9414 110.226 16.1133C111.008 16.2852 111.723 16.5156 112.371 16.8047L111.75 18.5156C111.133 18.2578 110.476 18.043 109.781 17.8711C109.094 17.6992 108.383 17.6133 107.648 17.6133C106.914 17.6133 106.293 17.7227 105.785 17.9414C105.285 18.1524 104.902 18.4532 104.637 18.8438C104.371 19.2344 104.238 19.6992 104.238 20.2383C104.238 20.8399 104.363 21.3399 104.613 21.7383C104.871 22.1367 105.277 22.4922 105.832 22.8047C106.394 23.1094 107.137 23.4297 108.058 23.7656C109.066 24.1328 109.922 24.5235 110.625 24.9375C111.328 25.3438 111.863 25.8438 112.23 26.4375C112.598 27.0235 112.781 27.7696 112.781 28.6758ZM120.14 31.875C120.461 31.875 120.789 31.8477 121.125 31.793C121.461 31.7383 121.734 31.6719 121.945 31.5938V33.1055C121.719 33.2071 121.402 33.293 120.996 33.3633C120.598 33.4336 120.207 33.4688 119.824 33.4688C119.144 33.4688 118.527 33.3516 117.973 33.1172C117.418 32.875 116.973 32.4688 116.637 31.8985C116.308 31.3282 116.144 30.5391 116.144 29.5313V21.9141H114.316V20.9649L116.156 20.2032L116.93 17.4141H118.101V20.3906H121.863V21.9141H118.101V29.4727C118.101 30.2774 118.285 30.8789 118.652 31.2774C119.027 31.6758 119.523 31.875 120.14 31.875ZM135.152 20.3906V33.2344H133.558L133.277 31.4297H133.172C132.906 31.875 132.562 32.25 132.14 32.5547C131.719 32.8594 131.242 33.086 130.711 33.2344C130.187 33.3906 129.629 33.4688 129.035 33.4688C128.019 33.4688 127.168 33.3047 126.48 32.9766C125.793 32.6485 125.273 32.1406 124.922 31.4532C124.578 30.7656 124.406 29.8828 124.406 28.8047V20.3906H126.375V28.6641C126.375 29.7344 126.617 30.5352 127.101 31.0664C127.586 31.5899 128.324 31.8516 129.316 31.8516C130.269 31.8516 131.027 31.6719 131.59 31.3125C132.16 30.9532 132.57 30.4258 132.82 29.7305C133.07 29.0274 133.195 28.168 133.195 27.1524V20.3906H135.152ZM143.836 33.4688C142.211 33.4688 140.922 32.9141 139.969 31.8047C139.023 30.6953 138.551 29.0469 138.551 26.8594C138.551 24.6485 139.035 22.9805 140.004 21.8555C140.973 20.7227 142.262 20.1563 143.871 20.1563C144.551 20.1563 145.144 20.2461 145.652 20.4258C146.16 20.6055 146.598 20.8477 146.965 21.1524C147.332 21.4492 147.64 21.7891 147.89 22.1719H148.031C148 21.9297 147.969 21.5977 147.937 21.1758C147.906 20.7539 147.89 20.4102 147.89 20.1446V15H149.836V33.2344H148.266L147.973 31.4063H147.89C147.648 31.7891 147.34 32.1367 146.965 32.4492C146.598 32.7617 146.156 33.0117 145.64 33.1992C145.133 33.3789 144.531 33.4688 143.836 33.4688ZM144.14 31.8516C145.516 31.8516 146.488 31.461 147.058 30.6797C147.629 29.8985 147.914 28.7383 147.914 27.1992V26.8477C147.914 25.2149 147.64 23.961 147.094 23.086C146.555 22.211 145.57 21.7735 144.14 21.7735C142.945 21.7735 142.051 22.2344 141.457 23.1563C140.863 24.0703 140.566 25.3203 140.566 26.9063C140.566 28.4844 140.859 29.7032 141.445 30.5625C142.039 31.4219 142.937 31.8516 144.14 31.8516ZM158.906 20.1563C160 20.1563 160.937 20.3985 161.719 20.8828C162.5 21.3672 163.098 22.0469 163.512 22.9219C163.926 23.7891 164.133 24.8047 164.133 25.9688V27.1758H155.262C155.285 28.6836 155.66 29.8321 156.387 30.6211C157.113 31.4102 158.137 31.8047 159.457 31.8047C160.269 31.8047 160.988 31.7305 161.613 31.5821C162.238 31.4336 162.887 31.2149 163.558 30.9258V32.6367C162.91 32.9258 162.266 33.1367 161.625 33.2696C160.992 33.4024 160.242 33.4688 159.375 33.4688C158.14 33.4688 157.062 33.2188 156.14 32.7188C155.226 32.211 154.516 31.4688 154.008 30.4922C153.5 29.5156 153.246 28.3203 153.246 26.9063C153.246 25.5235 153.476 24.3282 153.937 23.3203C154.406 22.3047 155.062 21.5235 155.906 20.9766C156.758 20.4297 157.758 20.1563 158.906 20.1563ZM158.883 21.75C157.844 21.75 157.016 22.0899 156.398 22.7696C155.781 23.4492 155.414 24.3985 155.297 25.6172H162.094C162.086 24.8516 161.965 24.1797 161.73 23.6016C161.504 23.0156 161.156 22.5625 160.687 22.2422C160.219 21.9141 159.617 21.75 158.883 21.75ZM173.519 20.1563C175.043 20.1563 176.195 20.5313 176.976 21.2813C177.758 22.0235 178.148 23.2188 178.148 24.8672V33.2344H176.226V24.9961C176.226 23.9258 175.98 23.125 175.488 22.5938C175.004 22.0625 174.258 21.7969 173.25 21.7969C171.828 21.7969 170.828 22.1992 170.25 23.0039C169.672 23.8086 169.383 24.9766 169.383 26.5078V33.2344H167.437V20.3906H169.008L169.301 22.2422H169.406C169.68 21.7891 170.027 21.4102 170.449 21.1055C170.871 20.793 171.344 20.5586 171.867 20.4024C172.39 20.2383 172.941 20.1563 173.519 20.1563ZM186.305 31.875C186.625 31.875 186.953 31.8477 187.289 31.793C187.625 31.7383 187.898 31.6719 188.109 31.5938V33.1055C187.883 33.2071 187.566 33.293 187.16 33.3633C186.762 33.4336 186.371 33.4688 185.988 33.4688C185.308 33.4688 184.691 33.3516 184.137 33.1172C183.582 32.875 183.137 32.4688 182.801 31.8985C182.473 31.3282 182.308 30.5391 182.308 29.5313V21.9141H180.48V20.9649L182.32 20.2032L183.094 17.4141H184.266V20.3906H188.027V21.9141H184.266V29.4727C184.266 30.2774 184.449 30.8789 184.816 31.2774C185.191 31.6758 185.687 31.875 186.305 31.875ZM198.328 17.6133C197.383 17.6133 196.531 17.7774 195.773 18.1055C195.023 18.4258 194.383 18.8946 193.851 19.5117C193.328 20.1211 192.926 20.8594 192.644 21.7266C192.363 22.5938 192.223 23.5703 192.223 24.6563C192.223 26.0938 192.445 27.3438 192.89 28.4063C193.344 29.461 194.016 30.2774 194.906 30.8555C195.805 31.4336 196.926 31.7227 198.269 31.7227C199.035 31.7227 199.754 31.6602 200.426 31.5352C201.105 31.4024 201.766 31.2383 202.406 31.043V32.7774C201.781 33.0117 201.125 33.1836 200.437 33.293C199.75 33.4102 198.933 33.4688 197.988 33.4688C196.246 33.4688 194.789 33.1094 193.617 32.3906C192.453 31.6641 191.578 30.6406 190.992 29.3203C190.414 28 190.125 26.4414 190.125 24.6446C190.125 23.3477 190.305 22.1641 190.664 21.0938C191.031 20.0156 191.562 19.086 192.258 18.3047C192.961 17.5235 193.82 16.9219 194.836 16.5C195.859 16.0703 197.031 15.8555 198.351 15.8555C199.219 15.8555 200.055 15.9414 200.859 16.1133C201.664 16.2852 202.39 16.5313 203.039 16.8516L202.242 18.5391C201.695 18.2891 201.094 18.0742 200.437 17.8946C199.789 17.7071 199.086 17.6133 198.328 17.6133ZM207.773 15V20.4492C207.773 20.7617 207.766 21.0782 207.75 21.3985C207.734 21.711 207.707 22 207.668 22.2656H207.797C208.062 21.8125 208.398 21.4336 208.805 21.1289C209.219 20.8164 209.687 20.5821 210.211 20.4258C210.734 20.2617 211.289 20.1797 211.875 20.1797C212.906 20.1797 213.766 20.3438 214.453 20.6719C215.148 21 215.668 21.5078 216.012 22.1953C216.363 22.8828 216.539 23.7735 216.539 24.8672V33.2344H214.617V24.9961C214.617 23.9258 214.371 23.125 213.879 22.5938C213.394 22.0625 212.648 21.7969 211.64 21.7969C210.687 21.7969 209.926 21.9805 209.355 22.3477C208.793 22.7071 208.387 23.2383 208.137 23.9414C207.894 24.6446 207.773 25.5039 207.773 26.5196V33.2344H205.828V15H207.773ZM225.351 20.1797C226.883 20.1797 228.019 20.5235 228.762 21.211C229.504 21.8985 229.875 22.9961 229.875 24.5039V33.2344H228.457L228.082 31.336H227.988C227.629 31.8047 227.254 32.1992 226.863 32.5196C226.473 32.8321 226.019 33.0703 225.504 33.2344C224.996 33.3906 224.371 33.4688 223.629 33.4688C222.848 33.4688 222.152 33.3321 221.543 33.0586C220.941 32.7852 220.465 32.3711 220.113 31.8164C219.769 31.2617 219.598 30.5586 219.598 29.7071C219.598 28.4258 220.105 27.4414 221.121 26.7539C222.137 26.0664 223.683 25.6914 225.762 25.6289L227.976 25.5352V24.75C227.976 23.6406 227.738 22.8633 227.262 22.418C226.785 21.9727 226.113 21.75 225.246 21.75C224.574 21.75 223.933 21.8477 223.324 22.043C222.715 22.2383 222.137 22.4688 221.59 22.7344L220.992 21.2578C221.57 20.961 222.234 20.7071 222.984 20.4961C223.734 20.2852 224.523 20.1797 225.351 20.1797ZM227.953 26.9063L225.996 26.9883C224.394 27.0508 223.266 27.3125 222.609 27.7735C221.953 28.2344 221.625 28.8867 221.625 29.7305C221.625 30.4649 221.848 31.0078 222.293 31.3594C222.738 31.711 223.328 31.8867 224.062 31.8867C225.203 31.8867 226.137 31.5703 226.863 30.9375C227.59 30.3047 227.953 29.3555 227.953 28.0899V26.9063ZM238.031 31.875C238.351 31.875 238.68 31.8477 239.016 31.793C239.351 31.7383 239.625 31.6719 239.836 31.5938V33.1055C239.609 33.2071 239.293 33.293 238.887 33.3633C238.488 33.4336 238.098 33.4688 237.715 33.4688C237.035 33.4688 236.418 33.3516 235.863 33.1172C235.308 32.875 234.863 32.4688 234.527 31.8985C234.199 31.3282 234.035 30.5391 234.035 29.5313V21.9141H232.207V20.9649L234.047 20.2032L234.82 17.4141H235.992V20.3906H239.754V21.9141H235.992V29.4727C235.992 30.2774 236.176 30.8789 236.543 31.2774C236.918 31.6758 237.414 31.875 238.031 31.875Z" fill="black"/>
<path d="M106.5 44.6364L108.784 39.4545H109.739L106.909 46H106.091L103.312 39.4545H104.25L106.5 44.6364ZM103.926 39.4545V46H102.92V39.4545H103.926ZM109.074 46V39.4545H110.08V46H109.074ZM114.58 46.1364C113.989 46.1364 113.47 45.9957 113.024 45.7145C112.581 45.4332 112.234 45.0398 111.984 44.5341C111.737 44.0284 111.614 43.4375 111.614 42.7614C111.614 42.0795 111.737 41.4844 111.984 40.9759C112.234 40.4673 112.581 40.0724 113.024 39.7912C113.47 39.5099 113.989 39.3693 114.58 39.3693C115.17 39.3693 115.688 39.5099 116.131 39.7912C116.577 40.0724 116.923 40.4673 117.17 40.9759C117.42 41.4844 117.545 42.0795 117.545 42.7614C117.545 43.4375 117.42 44.0284 117.17 44.5341C116.923 45.0398 116.577 45.4332 116.131 45.7145C115.688 45.9957 115.17 46.1364 114.58 46.1364ZM114.58 45.233C115.028 45.233 115.398 45.1179 115.688 44.8878C115.977 44.6577 116.192 44.3551 116.331 43.9801C116.47 43.6051 116.54 43.1989 116.54 42.7614C116.54 42.3239 116.47 41.9162 116.331 41.5384C116.192 41.1605 115.977 40.8551 115.688 40.6222C115.398 40.3892 115.028 40.2727 114.58 40.2727C114.131 40.2727 113.761 40.3892 113.472 40.6222C113.182 40.8551 112.967 41.1605 112.828 41.5384C112.689 41.9162 112.619 42.3239 112.619 42.7614C112.619 43.1989 112.689 43.6051 112.828 43.9801C112.967 44.3551 113.182 44.6577 113.472 44.8878C113.761 45.1179 114.131 45.233 114.58 45.233ZM118.382 47.875V45.0625H118.927C119.061 44.9233 119.176 44.7727 119.272 44.6108C119.369 44.4489 119.453 44.2571 119.524 44.0355C119.598 43.8111 119.66 43.5384 119.711 43.2173C119.762 42.8935 119.808 42.5028 119.848 42.0455L120.069 39.4545H124.228V45.0625H125.234V47.875H124.228V46H119.387V47.875H118.382ZM120.069 45.0625H123.223V40.392H121.007L120.836 42.0455C120.765 42.7301 120.677 43.3281 120.572 43.8395C120.467 44.3509 120.299 44.7585 120.069 45.0625ZM129.313 46.1364C128.683 46.1364 128.138 45.9972 127.681 45.7188C127.227 45.4375 126.876 45.0455 126.629 44.5426C126.384 44.0369 126.262 43.4489 126.262 42.7784C126.262 42.108 126.384 41.517 126.629 41.0057C126.876 40.4915 127.219 40.0909 127.66 39.804C128.103 39.5142 128.62 39.3693 129.211 39.3693C129.552 39.3693 129.888 39.4261 130.221 39.5398C130.553 39.6534 130.856 39.8381 131.129 40.0938C131.401 40.3466 131.619 40.6818 131.781 41.0994C131.942 41.517 132.023 42.0312 132.023 42.642V43.0682H126.978V42.1989H131.001C131.001 41.8295 130.927 41.5 130.779 41.2102C130.634 40.9205 130.427 40.6918 130.157 40.5241C129.89 40.3565 129.575 40.2727 129.211 40.2727C128.81 40.2727 128.464 40.3722 128.171 40.571C127.881 40.767 127.658 41.0227 127.502 41.3381C127.346 41.6534 127.268 41.9915 127.268 42.3523V42.9318C127.268 43.4261 127.353 43.8452 127.523 44.1889C127.697 44.5298 127.937 44.7898 128.244 44.9688C128.55 45.1449 128.907 45.233 129.313 45.233C129.577 45.233 129.816 45.196 130.029 45.1222C130.245 45.0455 130.431 44.9318 130.587 44.7812C130.744 44.6278 130.864 44.4375 130.95 44.2102L131.921 44.483C131.819 44.8125 131.647 45.1023 131.406 45.3523C131.164 45.5994 130.866 45.7926 130.511 45.9318C130.156 46.0682 129.756 46.1364 129.313 46.1364ZM133.553 48.4545V39.4545H134.525V40.4943H134.644C134.718 40.3807 134.82 40.2358 134.951 40.0597C135.085 39.8807 135.275 39.7216 135.522 39.5824C135.772 39.4403 136.11 39.3693 136.536 39.3693C137.087 39.3693 137.573 39.5071 137.994 39.7827C138.414 40.0582 138.742 40.4489 138.978 40.9545C139.214 41.4602 139.332 42.0568 139.332 42.7443C139.332 43.4375 139.214 44.0384 138.978 44.5469C138.742 45.0526 138.415 45.4446 137.998 45.723C137.58 45.9986 137.099 46.1364 136.553 46.1364C136.133 46.1364 135.796 46.0668 135.543 45.9276C135.29 45.7855 135.096 45.625 134.96 45.446C134.823 45.2642 134.718 45.1136 134.644 44.9943H134.559V48.4545H133.553ZM134.542 42.7273C134.542 43.2216 134.614 43.6577 134.759 44.0355C134.904 44.4105 135.116 44.7045 135.394 44.9176C135.673 45.1278 136.013 45.233 136.417 45.233C136.837 45.233 137.188 45.1222 137.469 44.9006C137.754 44.6761 137.967 44.375 138.109 43.9972C138.254 43.6165 138.326 43.1932 138.326 42.7273C138.326 42.267 138.255 41.8523 138.113 41.483C137.974 41.1108 137.762 40.8168 137.478 40.6009C137.197 40.3821 136.843 40.2727 136.417 40.2727C136.008 40.2727 135.664 40.3764 135.386 40.5838C135.107 40.7884 134.897 41.0753 134.755 41.4446C134.613 41.8111 134.542 42.2386 134.542 42.7273ZM142.792 46.1534C142.377 46.1534 142.001 46.0753 141.663 45.919C141.325 45.7599 141.056 45.5312 140.857 45.233C140.658 44.9318 140.559 44.5682 140.559 44.142C140.559 43.767 140.633 43.4631 140.781 43.2301C140.928 42.9943 141.126 42.8097 141.373 42.6761C141.62 42.5426 141.893 42.4432 142.191 42.3778C142.492 42.3097 142.795 42.2557 143.099 42.2159C143.496 42.1648 143.819 42.1264 144.066 42.1009C144.316 42.0724 144.498 42.0256 144.612 41.9602C144.728 41.8949 144.786 41.7812 144.786 41.6193V41.5852C144.786 41.1648 144.671 40.8381 144.441 40.6051C144.214 40.3722 143.869 40.2557 143.406 40.2557C142.925 40.2557 142.549 40.3608 142.276 40.571C142.004 40.7812 141.812 41.0057 141.701 41.2443L140.746 40.9034C140.917 40.5057 141.144 40.196 141.428 39.9744C141.715 39.75 142.028 39.5937 142.366 39.5057C142.707 39.4148 143.042 39.3693 143.371 39.3693C143.582 39.3693 143.823 39.3949 144.096 39.446C144.371 39.4943 144.637 39.5952 144.893 39.7486C145.151 39.902 145.366 40.1335 145.536 40.4432C145.707 40.7528 145.792 41.1676 145.792 41.6875V46H144.786V45.1136H144.735C144.667 45.2557 144.553 45.4077 144.394 45.5696C144.235 45.7315 144.023 45.8693 143.759 45.983C143.495 46.0966 143.173 46.1534 142.792 46.1534ZM142.945 45.25C143.343 45.25 143.678 45.1719 143.951 45.0156C144.227 44.8594 144.434 44.6577 144.573 44.4105C144.715 44.1634 144.786 43.9034 144.786 43.6307V42.7102C144.744 42.7614 144.65 42.8082 144.505 42.8509C144.363 42.8906 144.198 42.9261 144.011 42.9574C143.826 42.9858 143.646 43.0114 143.469 43.0341C143.296 43.054 143.156 43.071 143.048 43.0852C142.786 43.1193 142.542 43.1747 142.315 43.2514C142.09 43.3253 141.908 43.4375 141.769 43.5881C141.633 43.7358 141.565 43.9375 141.565 44.1932C141.565 44.5426 141.694 44.8068 141.952 44.9858C142.214 45.1619 142.545 45.25 142.945 45.25ZM146.737 40.392V39.4545H152.055V40.392H149.907V46H148.902V40.392H146.737ZM155.841 46.1364C155.25 46.1364 154.732 45.9957 154.286 45.7145C153.843 45.4332 153.496 45.0398 153.246 44.5341C152.999 44.0284 152.875 43.4375 152.875 42.7614C152.875 42.0795 152.999 41.4844 153.246 40.9759C153.496 40.4673 153.843 40.0724 154.286 39.7912C154.732 39.5099 155.25 39.3693 155.841 39.3693C156.432 39.3693 156.949 39.5099 157.392 39.7912C157.838 40.0724 158.185 40.4673 158.432 40.9759C158.682 41.4844 158.807 42.0795 158.807 42.7614C158.807 43.4375 158.682 44.0284 158.432 44.5341C158.185 45.0398 157.838 45.4332 157.392 45.7145C156.949 45.9957 156.432 46.1364 155.841 46.1364ZM155.841 45.233C156.29 45.233 156.659 45.1179 156.949 44.8878C157.239 44.6577 157.453 44.3551 157.593 43.9801C157.732 43.6051 157.801 43.1989 157.801 42.7614C157.801 42.3239 157.732 41.9162 157.593 41.5384C157.453 41.1605 157.239 40.8551 156.949 40.6222C156.659 40.3892 156.29 40.2727 155.841 40.2727C155.392 40.2727 155.023 40.3892 154.733 40.6222C154.444 40.8551 154.229 41.1605 154.09 41.5384C153.951 41.9162 153.881 42.3239 153.881 42.7614C153.881 43.1989 153.951 43.6051 154.09 43.9801C154.229 44.3551 154.444 44.6577 154.733 44.8878C155.023 45.1179 155.392 45.233 155.841 45.233ZM160.342 48.4545V39.4545H161.314V40.4943H161.433C161.507 40.3807 161.609 40.2358 161.74 40.0597C161.874 39.8807 162.064 39.7216 162.311 39.5824C162.561 39.4403 162.899 39.3693 163.325 39.3693C163.876 39.3693 164.362 39.5071 164.783 39.7827C165.203 40.0582 165.531 40.4489 165.767 40.9545C166.003 41.4602 166.121 42.0568 166.121 42.7443C166.121 43.4375 166.003 44.0384 165.767 44.5469C165.531 45.0526 165.205 45.4446 164.787 45.723C164.369 45.9986 163.888 46.1364 163.342 46.1364C162.922 46.1364 162.585 46.0668 162.332 45.9276C162.08 45.7855 161.885 45.625 161.749 45.446C161.612 45.2642 161.507 45.1136 161.433 44.9943H161.348V48.4545H160.342ZM161.331 42.7273C161.331 43.2216 161.403 43.6577 161.548 44.0355C161.693 44.4105 161.905 44.7045 162.183 44.9176C162.462 45.1278 162.803 45.233 163.206 45.233C163.626 45.233 163.977 45.1222 164.259 44.9006C164.543 44.6761 164.756 44.375 164.898 43.9972C165.043 43.6165 165.115 43.1932 165.115 42.7273C165.115 42.267 165.044 41.8523 164.902 41.483C164.763 41.1108 164.551 40.8168 164.267 40.6009C163.986 40.3821 163.632 40.2727 163.206 40.2727C162.797 40.2727 162.453 40.3764 162.175 40.5838C161.896 40.7884 161.686 41.0753 161.544 41.4446C161.402 41.8111 161.331 42.2386 161.331 42.7273Z" fill="black"/>
</svg>
