<svg width="256" height="51" viewBox="0 0 256 51" fill="none" xmlns="http://www.w3.org/2000/svg">
<rect width="256" height="51" fill="#E5E5E5"/>
<rect width="256" height="51" fill="white"/>
<path d="M34.8125 34.125C34.8125 36.6042 34.1875 38.9583 32.9375 41.1875C31.6875 43.3958 29.7396 45.1875 27.0938 46.5625C24.4688 47.9375 21.0729 48.625 16.9062 48.625C14.8229 48.625 12.9896 48.5312 11.4062 48.3438C9.84375 48.1562 8.38542 47.8542 7.03125 47.4375C5.67708 47 4.27083 46.4375 2.8125 45.75V34.75C5.29167 36 7.79167 36.9583 10.3125 37.625C12.8333 38.2708 15.1146 38.5938 17.1562 38.5938C18.3854 38.5938 19.3854 38.4479 20.1562 38.1562C20.9479 37.8646 21.5312 37.4688 21.9062 36.9688C22.2812 36.4479 22.4688 35.8542 22.4688 35.1875C22.4688 34.3958 22.1875 33.7292 21.625 33.1875C21.0833 32.625 20.2083 32.0417 19 31.4375C17.7917 30.8333 16.1979 30.0833 14.2188 29.1875C12.5312 28.3958 11 27.5833 9.625 26.75C8.27083 25.9167 7.10417 24.9688 6.125 23.9062C5.16667 22.8229 4.42708 21.5625 3.90625 20.125C3.38542 18.6875 3.125 16.9896 3.125 15.0312C3.125 12.0938 3.84375 9.63542 5.28125 7.65625C6.73958 5.65625 8.76042 4.15625 11.3438 3.15625C13.9479 2.15625 16.9479 1.65625 20.3438 1.65625C23.3229 1.65625 26 1.98958 28.375 2.65625C30.7708 3.32292 32.9167 4.08333 34.8125 4.9375L31.0312 14.4688C29.0729 13.5729 27.1458 12.8646 25.25 12.3438C23.3542 11.8021 21.5938 11.5312 19.9688 11.5312C18.9062 11.5312 18.0312 11.6667 17.3438 11.9375C16.6771 12.1875 16.1771 12.5312 15.8438 12.9688C15.5312 13.4062 15.375 13.9062 15.375 14.4688C15.375 15.1771 15.6458 15.8125 16.1875 16.375C16.75 16.9375 17.6771 17.5521 18.9688 18.2188C20.2812 18.8646 22.0625 19.7083 24.3125 20.75C26.5417 21.75 28.4375 22.8333 30 24C31.5625 25.1458 32.75 26.5312 33.5625 28.1562C34.3958 29.7604 34.8125 31.75 34.8125 34.125ZM62.2188 11.7812C60.7604 11.7812 59.4583 12.0938 58.3125 12.7188C57.1667 13.3229 56.1875 14.2083 55.375 15.375C54.5625 16.5417 53.9375 17.9688 53.5 19.6562C53.0833 21.3229 52.875 23.2188 52.875 25.3438C52.875 28.2188 53.2396 30.6354 53.9688 32.5938C54.6979 34.5521 55.8021 36.0312 57.2812 37.0312C58.7812 38.0312 60.6562 38.5312 62.9062 38.5312C64.9479 38.5312 66.9062 38.25 68.7812 37.6875C70.6771 37.125 72.5833 36.4479 74.5 35.6562V46.0938C72.4792 46.9896 70.4062 47.6354 68.2812 48.0312C66.1771 48.4271 63.9375 48.625 61.5625 48.625C56.6042 48.625 52.5417 47.6458 49.375 45.6875C46.2292 43.7083 43.9062 40.9688 42.4062 37.4688C40.9271 33.9688 40.1875 29.9062 40.1875 25.2812C40.1875 21.8229 40.6667 18.6562 41.625 15.7812C42.6042 12.9062 44.0312 10.4167 45.9062 8.3125C47.7812 6.1875 50.0938 4.55208 52.8438 3.40625C55.6146 2.23958 58.7812 1.65625 62.3438 1.65625C64.5521 1.65625 66.875 1.91667 69.3125 2.4375C71.7708 2.9375 74.1667 3.75 76.5 4.875L72.7188 14.5938C71.0521 13.8021 69.3646 13.1354 67.6562 12.5938C65.9479 12.0521 64.1354 11.7812 62.2188 11.7812Z" fill="black"/>
<path d="M87.75 3.25H87.25V47.75H87.75V3.25Z" fill="black" stroke="black" stroke-width="0.5"/>
<path d="M112.781 28.6758C112.781 29.6914 112.527 30.5586 112.019 31.2774C111.519 31.9883 110.816 32.5313 109.91 32.9063C109.004 33.2813 107.937 33.4688 106.711 33.4688C106.062 33.4688 105.449 33.4375 104.871 33.375C104.293 33.3125 103.762 33.2227 103.277 33.1055C102.793 32.9883 102.367 32.8438 102 32.6719V30.7617C102.586 31.0039 103.301 31.2305 104.145 31.4414C104.988 31.6446 105.871 31.7461 106.793 31.7461C107.652 31.7461 108.379 31.6328 108.973 31.4063C109.566 31.1719 110.016 30.8399 110.32 30.4102C110.633 29.9727 110.789 29.4492 110.789 28.8399C110.789 28.2539 110.66 27.7656 110.402 27.375C110.144 26.9766 109.715 26.6172 109.113 26.2969C108.519 25.9688 107.707 25.6211 106.676 25.2539C105.949 24.9961 105.308 24.7149 104.754 24.4102C104.199 24.0977 103.734 23.7461 103.359 23.3555C102.984 22.9649 102.699 22.5117 102.504 21.9961C102.316 21.4805 102.223 20.8906 102.223 20.2266C102.223 19.3125 102.453 18.5313 102.914 17.8828C103.383 17.2266 104.027 16.7266 104.848 16.3828C105.676 16.0313 106.625 15.8555 107.695 15.8555C108.609 15.8555 109.453 15.9414 110.226 16.1133C111.008 16.2852 111.723 16.5156 112.371 16.8047L111.75 18.5156C111.133 18.2578 110.476 18.043 109.781 17.8711C109.094 17.6992 108.383 17.6133 107.648 17.6133C106.914 17.6133 106.293 17.7227 105.785 17.9414C105.285 18.1524 104.902 18.4532 104.637 18.8438C104.371 19.2344 104.238 19.6992 104.238 20.2383C104.238 20.8399 104.363 21.3399 104.613 21.7383C104.871 22.1367 105.277 22.4922 105.832 22.8047C106.394 23.1094 107.137 23.4297 108.058 23.7656C109.066 24.1328 109.922 24.5235 110.625 24.9375C111.328 25.3438 111.863 25.8438 112.23 26.4375C112.598 27.0235 112.781 27.7696 112.781 28.6758ZM120.14 31.875C120.461 31.875 120.789 31.8477 121.125 31.793C121.461 31.7383 121.734 31.6719 121.945 31.5938V33.1055C121.719 33.2071 121.402 33.293 120.996 33.3633C120.598 33.4336 120.207 33.4688 119.824 33.4688C119.144 33.4688 118.527 33.3516 117.973 33.1172C117.418 32.875 116.973 32.4688 116.637 31.8985C116.308 31.3282 116.144 30.5391 116.144 29.5313V21.9141H114.316V20.9649L116.156 20.2032L116.93 17.4141H118.101V20.3906H121.863V21.9141H118.101V29.4727C118.101 30.2774 118.285 30.8789 118.652 31.2774C119.027 31.6758 119.523 31.875 120.14 31.875ZM135.152 20.3906V33.2344H133.558L133.277 31.4297H133.172C132.906 31.875 132.562 32.25 132.14 32.5547C131.719 32.8594 131.242 33.086 130.711 33.2344C130.187 33.3906 129.629 33.4688 129.035 33.4688C128.019 33.4688 127.168 33.3047 126.48 32.9766C125.793 32.6485 125.273 32.1406 124.922 31.4532C124.578 30.7656 124.406 29.8828 124.406 28.8047V20.3906H126.375V28.6641C126.375 29.7344 126.617 30.5352 127.101 31.0664C127.586 31.5899 128.324 31.8516 129.316 31.8516C130.269 31.8516 131.027 31.6719 131.59 31.3125C132.16 30.9532 132.57 30.4258 132.82 29.7305C133.07 29.0274 133.195 28.168 133.195 27.1524V20.3906H135.152ZM143.836 33.4688C142.211 33.4688 140.922 32.9141 139.969 31.8047C139.023 30.6953 138.551 29.0469 138.551 26.8594C138.551 24.6485 139.035 22.9805 140.004 21.8555C140.973 20.7227 142.262 20.1563 143.871 20.1563C144.551 20.1563 145.144 20.2461 145.652 20.4258C146.16 20.6055 146.598 20.8477 146.965 21.1524C147.332 21.4492 147.64 21.7891 147.89 22.1719H148.031C148 21.9297 147.969 21.5977 147.937 21.1758C147.906 20.7539 147.89 20.4102 147.89 20.1446V15H149.836V33.2344H148.266L147.973 31.4063H147.89C147.648 31.7891 147.34 32.1367 146.965 32.4492C146.598 32.7617 146.156 33.0117 145.64 33.1992C145.133 33.3789 144.531 33.4688 143.836 33.4688ZM144.14 31.8516C145.516 31.8516 146.488 31.461 147.058 30.6797C147.629 29.8985 147.914 28.7383 147.914 27.1992V26.8477C147.914 25.2149 147.64 23.961 147.094 23.086C146.555 22.211 145.57 21.7735 144.14 21.7735C142.945 21.7735 142.051 22.2344 141.457 23.1563C140.863 24.0703 140.566 25.3203 140.566 26.9063C140.566 28.4844 140.859 29.7032 141.445 30.5625C142.039 31.4219 142.937 31.8516 144.14 31.8516ZM158.906 20.1563C160 20.1563 160.937 20.3985 161.719 20.8828C162.5 21.3672 163.098 22.0469 163.512 22.9219C163.926 23.7891 164.133 24.8047 164.133 25.9688V27.1758H155.262C155.285 28.6836 155.66 29.8321 156.387 30.6211C157.113 31.4102 158.137 31.8047 159.457 31.8047C160.269 31.8047 160.988 31.7305 161.613 31.5821C162.238 31.4336 162.887 31.2149 163.558 30.9258V32.6367C162.91 32.9258 162.266 33.1367 161.625 33.2696C160.992 33.4024 160.242 33.4688 159.375 33.4688C158.14 33.4688 157.062 33.2188 156.14 32.7188C155.226 32.211 154.516 31.4688 154.008 30.4922C153.5 29.5156 153.246 28.3203 153.246 26.9063C153.246 25.5235 153.476 24.3282 153.937 23.3203C154.406 22.3047 155.062 21.5235 155.906 20.9766C156.758 20.4297 157.758 20.1563 158.906 20.1563ZM158.883 21.75C157.844 21.75 157.016 22.0899 156.398 22.7696C155.781 23.4492 155.414 24.3985 155.297 25.6172H162.094C162.086 24.8516 161.965 24.1797 161.73 23.6016C161.504 23.0156 161.156 22.5625 160.687 22.2422C160.219 21.9141 159.617 21.75 158.883 21.75ZM173.519 20.1563C175.043 20.1563 176.195 20.5313 176.976 21.2813C177.758 22.0235 178.148 23.2188 178.148 24.8672V33.2344H176.226V24.9961C176.226 23.9258 175.98 23.125 175.488 22.5938C175.004 22.0625 174.258 21.7969 173.25 21.7969C171.828 21.7969 170.828 22.1992 170.25 23.0039C169.672 23.8086 169.383 24.9766 169.383 26.5078V33.2344H167.437V20.3906H169.008L169.301 22.2422H169.406C169.68 21.7891 170.027 21.4102 170.449 21.1055C170.871 20.793 171.344 20.5586 171.867 20.4024C172.39 20.2383 172.941 20.1563 173.519 20.1563ZM186.305 31.875C186.625 31.875 186.953 31.8477 187.289 31.793C187.625 31.7383 187.898 31.6719 188.109 31.5938V33.1055C187.883 33.2071 187.566 33.293 187.16 33.3633C186.762 33.4336 186.371 33.4688 185.988 33.4688C185.308 33.4688 184.691 33.3516 184.137 33.1172C183.582 32.875 183.137 32.4688 182.801 31.8985C182.473 31.3282 182.308 30.5391 182.308 29.5313V21.9141H180.48V20.9649L182.32 20.2032L183.094 17.4141H184.266V20.3906H188.027V21.9141H184.266V29.4727C184.266 30.2774 184.449 30.8789 184.816 31.2774C185.191 31.6758 185.687 31.875 186.305 31.875ZM198.328 17.6133C197.383 17.6133 196.531 17.7774 195.773 18.1055C195.023 18.4258 194.383 18.8946 193.851 19.5117C193.328 20.1211 192.926 20.8594 192.644 21.7266C192.363 22.5938 192.223 23.5703 192.223 24.6563C192.223 26.0938 192.445 27.3438 192.89 28.4063C193.344 29.461 194.016 30.2774 194.906 30.8555C195.805 31.4336 196.926 31.7227 198.269 31.7227C199.035 31.7227 199.754 31.6602 200.426 31.5352C201.105 31.4024 201.766 31.2383 202.406 31.043V32.7774C201.781 33.0117 201.125 33.1836 200.437 33.293C199.75 33.4102 198.933 33.4688 197.988 33.4688C196.246 33.4688 194.789 33.1094 193.617 32.3906C192.453 31.6641 191.578 30.6406 190.992 29.3203C190.414 28 190.125 26.4414 190.125 24.6446C190.125 23.3477 190.305 22.1641 190.664 21.0938C191.031 20.0156 191.562 19.086 192.258 18.3047C192.961 17.5235 193.82 16.9219 194.836 16.5C195.859 16.0703 197.031 15.8555 198.351 15.8555C199.219 15.8555 200.055 15.9414 200.859 16.1133C201.664 16.2852 202.39 16.5313 203.039 16.8516L202.242 18.5391C201.695 18.2891 201.094 18.0742 200.437 17.8946C199.789 17.7071 199.086 17.6133 198.328 17.6133ZM207.773 15V20.4492C207.773 20.7617 207.766 21.0782 207.75 21.3985C207.734 21.711 207.707 22 207.668 22.2656H207.797C208.062 21.8125 208.398 21.4336 208.805 21.1289C209.219 20.8164 209.687 20.5821 210.211 20.4258C210.734 20.2617 211.289 20.1797 211.875 20.1797C212.906 20.1797 213.766 20.3438 214.453 20.6719C215.148 21 215.668 21.5078 216.012 22.1953C216.363 22.8828 216.539 23.7735 216.539 24.8672V33.2344H214.617V24.9961C214.617 23.9258 214.371 23.125 213.879 22.5938C213.394 22.0625 212.648 21.7969 211.64 21.7969C210.687 21.7969 209.926 21.9805 209.355 22.3477C208.793 22.7071 208.387 23.2383 208.137 23.9414C207.894 24.6446 207.773 25.5039 207.773 26.5196V33.2344H205.828V15H207.773ZM225.351 20.1797C226.883 20.1797 228.019 20.5235 228.762 21.211C229.504 21.8985 229.875 22.9961 229.875 24.5039V33.2344H228.457L228.082 31.336H227.988C227.629 31.8047 227.254 32.1992 226.863 32.5196C226.473 32.8321 226.019 33.0703 225.504 33.2344C224.996 33.3906 224.371 33.4688 223.629 33.4688C222.848 33.4688 222.152 33.3321 221.543 33.0586C220.941 32.7852 220.465 32.3711 220.113 31.8164C219.769 31.2617 219.598 30.5586 219.598 29.7071C219.598 28.4258 220.105 27.4414 221.121 26.7539C222.137 26.0664 223.683 25.6914 225.762 25.6289L227.976 25.5352V24.75C227.976 23.6406 227.738 22.8633 227.262 22.418C226.785 21.9727 226.113 21.75 225.246 21.75C224.574 21.75 223.933 21.8477 223.324 22.043C222.715 22.2383 222.137 22.4688 221.59 22.7344L220.992 21.2578C221.57 20.961 222.234 20.7071 222.984 20.4961C223.734 20.2852 224.523 20.1797 225.351 20.1797ZM227.953 26.9063L225.996 26.9883C224.394 27.0508 223.266 27.3125 222.609 27.7735C221.953 28.2344 221.625 28.8867 221.625 29.7305C221.625 30.4649 221.848 31.0078 222.293 31.3594C222.738 31.711 223.328 31.8867 224.062 31.8867C225.203 31.8867 226.137 31.5703 226.863 30.9375C227.59 30.3047 227.953 29.3555 227.953 28.0899V26.9063ZM238.031 31.875C238.351 31.875 238.68 31.8477 239.016 31.793C239.351 31.7383 239.625 31.6719 239.836 31.5938V33.1055C239.609 33.2071 239.293 33.293 238.887 33.3633C238.488 33.4336 238.098 33.4688 237.715 33.4688C237.035 33.4688 236.418 33.3516 235.863 33.1172C235.308 32.875 234.863 32.4688 234.527 31.8985C234.199 31.3282 234.035 30.5391 234.035 29.5313V21.9141H232.207V20.9649L234.047 20.2032L234.82 17.4141H235.992V20.3906H239.754V21.9141H235.992V29.4727C235.992 30.2774 236.176 30.8789 236.543 31.2774C236.918 31.6758 237.414 31.875 238.031 31.875Z" fill="black"/>
<path d="M104.847 46.1534C104.432 46.1534 104.055 46.0753 103.717 45.919C103.379 45.7599 103.111 45.5312 102.912 45.233C102.713 44.9318 102.614 44.5682 102.614 44.142C102.614 43.767 102.688 43.4631 102.835 43.2301C102.983 42.9943 103.18 42.8097 103.428 42.6761C103.675 42.5426 103.947 42.4432 104.246 42.3778C104.547 42.3097 104.849 42.2557 105.153 42.2159C105.551 42.1648 105.874 42.1264 106.121 42.1009C106.371 42.0724 106.553 42.0256 106.666 41.9602C106.783 41.8949 106.841 41.7812 106.841 41.6193V41.5852C106.841 41.1648 106.726 40.8381 106.496 40.6051C106.268 40.3722 105.923 40.2557 105.46 40.2557C104.98 40.2557 104.604 40.3608 104.331 40.571C104.058 40.7812 103.866 41.0057 103.756 41.2443L102.801 40.9034C102.972 40.5057 103.199 40.196 103.483 39.9744C103.77 39.75 104.082 39.5937 104.42 39.5057C104.761 39.4148 105.097 39.3693 105.426 39.3693C105.636 39.3693 105.878 39.3949 106.151 39.446C106.426 39.4943 106.692 39.5952 106.947 39.7486C107.206 39.902 107.42 40.1335 107.591 40.4432C107.761 40.7528 107.847 41.1676 107.847 41.6875V46H106.841V45.1136H106.79C106.722 45.2557 106.608 45.4077 106.449 45.5696C106.29 45.7315 106.078 45.8693 105.814 45.983C105.55 46.0966 105.227 46.1534 104.847 46.1534ZM105 45.25C105.398 45.25 105.733 45.1719 106.006 45.0156C106.281 44.8594 106.489 44.6577 106.628 44.4105C106.77 44.1634 106.841 43.9034 106.841 43.6307V42.7102C106.798 42.7614 106.705 42.8082 106.56 42.8509C106.418 42.8906 106.253 42.9261 106.065 42.9574C105.881 42.9858 105.7 43.0114 105.524 43.0341C105.351 43.054 105.21 43.071 105.102 43.0852C104.841 43.1193 104.597 43.1747 104.369 43.2514C104.145 43.3253 103.963 43.4375 103.824 43.5881C103.688 43.7358 103.619 43.9375 103.619 44.1932C103.619 44.5426 103.749 44.8068 104.007 44.9858C104.268 45.1619 104.599 45.25 105 45.25ZM108.983 47.875V45.0625H109.529C109.662 44.9233 109.777 44.7727 109.874 44.6108C109.971 44.4489 110.054 44.2571 110.125 44.0355C110.199 43.8111 110.262 43.5384 110.313 43.2173C110.364 42.8935 110.409 42.5028 110.449 42.0455L110.671 39.4545H114.83V45.0625H115.836V47.875H114.83V46H109.989V47.875H108.983ZM110.671 45.0625H113.824V40.392H111.608L111.438 42.0455C111.367 42.7301 111.279 43.3281 111.174 43.8395C111.069 44.3509 110.901 44.7585 110.671 45.0625ZM120.75 44.6364L123.034 39.4545H123.989L121.159 46H120.341L117.562 39.4545H118.5L120.75 44.6364ZM118.176 39.4545V46H117.17V39.4545H118.176ZM123.324 46V39.4545H124.33V46H123.324ZM127.176 44.517L130.33 39.4545H131.489V46H130.483V40.9375L127.347 46H126.17V39.4545H127.176V44.517ZM137.711 42.267V43.2045H134.098V42.267H137.711ZM134.336 39.4545V46H133.331V39.4545H134.336ZM138.478 39.4545V46H137.473V39.4545H138.478ZM141.321 44.517L144.474 39.4545H145.633V46H144.627V40.9375L141.491 46H140.315V39.4545H141.321V44.517ZM150.134 46.1364C149.521 46.1364 148.992 45.9915 148.549 45.7017C148.106 45.4119 147.765 45.0128 147.526 44.5043C147.288 43.9957 147.168 43.4148 147.168 42.7614C147.168 42.0966 147.29 41.5099 147.535 41.0014C147.782 40.4901 148.126 40.0909 148.566 39.804C149.009 39.5142 149.526 39.3693 150.117 39.3693C150.577 39.3693 150.992 39.4545 151.362 39.625C151.731 39.7955 152.033 40.0341 152.269 40.3409C152.505 40.6477 152.651 41.0057 152.708 41.4148H151.702C151.626 41.1165 151.455 40.8523 151.191 40.6222C150.93 40.3892 150.577 40.2727 150.134 40.2727C149.742 40.2727 149.398 40.375 149.103 40.5795C148.81 40.7812 148.582 41.0668 148.417 41.4361C148.255 41.8026 148.174 42.233 148.174 42.7273C148.174 43.233 148.254 43.6733 148.413 44.0483C148.575 44.4233 148.802 44.7145 149.094 44.9219C149.39 45.1293 149.737 45.233 150.134 45.233C150.396 45.233 150.633 45.1875 150.846 45.0966C151.059 45.0057 151.239 44.875 151.387 44.7045C151.535 44.5341 151.64 44.3295 151.702 44.0909H152.708C152.651 44.4773 152.511 44.8253 152.286 45.1349C152.065 45.4418 151.771 45.6861 151.404 45.8679C151.04 46.0469 150.617 46.1364 150.134 46.1364ZM153.663 40.392V39.4545H158.981V40.392H156.833V46H155.827V40.392H153.663ZM160.448 48.4545V39.4545H161.419V40.4943H161.539C161.613 40.3807 161.715 40.2358 161.846 40.0597C161.979 39.8807 162.169 39.7216 162.417 39.5824C162.667 39.4403 163.005 39.3693 163.431 39.3693C163.982 39.3693 164.468 39.5071 164.888 39.7827C165.309 40.0582 165.637 40.4489 165.873 40.9545C166.108 41.4602 166.226 42.0568 166.226 42.7443C166.226 43.4375 166.108 44.0384 165.873 44.5469C165.637 45.0526 165.31 45.4446 164.892 45.723C164.475 45.9986 163.993 46.1364 163.448 46.1364C163.027 46.1364 162.691 46.0668 162.438 45.9276C162.185 45.7855 161.99 45.625 161.854 45.446C161.718 45.2642 161.613 45.1136 161.539 44.9943H161.453V48.4545H160.448ZM161.436 42.7273C161.436 43.2216 161.509 43.6577 161.654 44.0355C161.799 44.4105 162.01 44.7045 162.289 44.9176C162.567 45.1278 162.908 45.233 163.311 45.233C163.732 45.233 164.083 45.1222 164.364 44.9006C164.648 44.6761 164.861 44.375 165.003 43.9972C165.148 43.6165 165.221 43.1932 165.221 42.7273C165.221 42.267 165.15 41.8523 165.007 41.483C164.868 41.1108 164.657 40.8168 164.373 40.6009C164.091 40.3821 163.738 40.2727 163.311 40.2727C162.902 40.2727 162.559 40.3764 162.28 40.5838C162.002 40.7884 161.792 41.0753 161.65 41.4446C161.507 41.8111 161.436 42.2386 161.436 42.7273ZM169.686 46.1534C169.272 46.1534 168.895 46.0753 168.557 45.919C168.219 45.7599 167.951 45.5312 167.752 45.233C167.553 44.9318 167.453 44.5682 167.453 44.142C167.453 43.767 167.527 43.4631 167.675 43.2301C167.823 42.9943 168.02 42.8097 168.267 42.6761C168.515 42.5426 168.787 42.4432 169.086 42.3778C169.387 42.3097 169.689 42.2557 169.993 42.2159C170.391 42.1648 170.713 42.1264 170.961 42.1009C171.211 42.0724 171.392 42.0256 171.506 41.9602C171.623 41.8949 171.681 41.7812 171.681 41.6193V41.5852C171.681 41.1648 171.566 40.8381 171.336 40.6051C171.108 40.3722 170.763 40.2557 170.3 40.2557C169.82 40.2557 169.444 40.3608 169.171 40.571C168.898 40.7812 168.706 41.0057 168.596 41.2443L167.641 40.9034C167.811 40.5057 168.039 40.196 168.323 39.9744C168.61 39.75 168.922 39.5937 169.26 39.5057C169.601 39.4148 169.936 39.3693 170.266 39.3693C170.476 39.3693 170.718 39.3949 170.99 39.446C171.266 39.4943 171.532 39.5952 171.787 39.7486C172.046 39.902 172.26 40.1335 172.431 40.4432C172.601 40.7528 172.686 41.1676 172.686 41.6875V46H171.681V45.1136H171.63C171.561 45.2557 171.448 45.4077 171.289 45.5696C171.13 45.7315 170.918 45.8693 170.654 45.983C170.39 46.0966 170.067 46.1534 169.686 46.1534ZM169.84 45.25C170.238 45.25 170.573 45.1719 170.846 45.0156C171.121 44.8594 171.328 44.6577 171.468 44.4105C171.61 44.1634 171.681 43.9034 171.681 43.6307V42.7102C171.638 42.7614 171.544 42.8082 171.4 42.8509C171.257 42.8906 171.093 42.9261 170.905 42.9574C170.721 42.9858 170.54 43.0114 170.364 43.0341C170.191 43.054 170.05 43.071 169.942 43.0852C169.681 43.1193 169.436 43.1747 169.209 43.2514C168.985 43.3253 168.803 43.4375 168.664 43.5881C168.527 43.7358 168.459 43.9375 168.459 44.1932C168.459 44.5426 168.588 44.8068 168.847 44.9858C169.108 45.1619 169.439 45.25 169.84 45.25ZM173.631 40.392V39.4545H178.95V40.392H176.802V46H175.796V40.392H173.631ZM182.736 46.1364C182.145 46.1364 181.626 45.9957 181.18 45.7145C180.737 45.4332 180.391 45.0398 180.141 44.5341C179.893 44.0284 179.77 43.4375 179.77 42.7614C179.77 42.0795 179.893 41.4844 180.141 40.9759C180.391 40.4673 180.737 40.0724 181.18 39.7912C181.626 39.5099 182.145 39.3693 182.736 39.3693C183.327 39.3693 183.844 39.5099 184.287 39.7912C184.733 40.0724 185.08 40.4673 185.327 40.9759C185.577 41.4844 185.702 42.0795 185.702 42.7614C185.702 43.4375 185.577 44.0284 185.327 44.5341C185.08 45.0398 184.733 45.4332 184.287 45.7145C183.844 45.9957 183.327 46.1364 182.736 46.1364ZM182.736 45.233C183.185 45.233 183.554 45.1179 183.844 44.8878C184.134 44.6577 184.348 44.3551 184.487 43.9801C184.626 43.6051 184.696 43.1989 184.696 42.7614C184.696 42.3239 184.626 41.9162 184.487 41.5384C184.348 41.1605 184.134 40.8551 183.844 40.6222C183.554 40.3892 183.185 40.2727 182.736 40.2727C182.287 40.2727 181.918 40.3892 181.628 40.6222C181.338 40.8551 181.124 41.1605 180.984 41.5384C180.845 41.9162 180.776 42.3239 180.776 42.7614C180.776 43.1989 180.845 43.6051 180.984 43.9801C181.124 44.3551 181.338 44.6577 181.628 44.8878C181.918 45.1179 182.287 45.233 182.736 45.233ZM187.237 48.4545V39.4545H188.208V40.4943H188.328C188.402 40.3807 188.504 40.2358 188.635 40.0597C188.768 39.8807 188.958 39.7216 189.206 39.5824C189.456 39.4403 189.794 39.3693 190.22 39.3693C190.771 39.3693 191.257 39.5071 191.677 39.7827C192.098 40.0582 192.426 40.4489 192.662 40.9545C192.897 41.4602 193.015 42.0568 193.015 42.7443C193.015 43.4375 192.897 44.0384 192.662 44.5469C192.426 45.0526 192.099 45.4446 191.681 45.723C191.264 45.9986 190.782 46.1364 190.237 46.1364C189.816 46.1364 189.48 46.0668 189.227 45.9276C188.974 45.7855 188.779 45.625 188.643 45.446C188.507 45.2642 188.402 45.1136 188.328 44.9943H188.243V48.4545H187.237ZM188.225 42.7273C188.225 43.2216 188.298 43.6577 188.443 44.0355C188.588 44.4105 188.799 44.7045 189.078 44.9176C189.356 45.1278 189.697 45.233 190.1 45.233C190.521 45.233 190.872 45.1222 191.153 44.9006C191.437 44.6761 191.65 44.375 191.792 43.9972C191.937 43.6165 192.01 43.1932 192.01 42.7273C192.01 42.267 191.939 41.8523 191.797 41.483C191.657 41.1108 191.446 40.8168 191.162 40.6009C190.88 40.3821 190.527 40.2727 190.1 40.2727C189.691 40.2727 189.348 40.3764 189.069 40.5838C188.791 40.7884 188.581 41.0753 188.439 41.4446C188.297 41.8111 188.225 42.2386 188.225 42.7273Z" fill="black"/>
</svg>
