<?xml version="1.0" encoding="UTF-8" standalone="no"?>
<svg
   width="256"
   height="51"
   viewBox="0 0 256 51"
   fill="none"
   version="1.1"
   id="svg17"
   sodipodi:docname="Frame 1.svg"
   inkscape:version="1.1.1 (3bf5ae0d25, 2021-09-20)"
   inkscape:export-filename="C:\Users\olegm\OneDrive\Рабочий стол (1)\Frame 1.png"
   inkscape:export-xdpi="1000"
   inkscape:export-ydpi="1000"
   xmlns:inkscape="http://www.inkscape.org/namespaces/inkscape"
   xmlns:sodipodi="http://sodipodi.sourceforge.net/DTD/sodipodi-0.dtd"
   xmlns="http://www.w3.org/2000/svg"
   xmlns:svg="http://www.w3.org/2000/svg">
  <sodipodi:namedview
     id="namedview19"
     pagecolor="#ffffff"
     bordercolor="#666666"
     borderopacity="1.0"
     inkscape:pageshadow="2"
     inkscape:pageopacity="0.0"
     inkscape:pagecheckerboard="0"
     showgrid="false"
     inkscape:zoom="4.4140625"
     inkscape:cx="83.369912"
     inkscape:cy="61.734513"
     inkscape:window-width="1440"
     inkscape:window-height="837"
     inkscape:window-x="-8"
     inkscape:window-y="-8"
     inkscape:window-maximized="1"
     inkscape:current-layer="svg17" />
  <g
     clip-path="url(#clip0_2_3)"
     id="g10">
    <path
       d="M34.8125 34.125C34.8125 36.6042 34.1875 38.9583 32.9375 41.1875C31.6875 43.3958 29.7396 45.1875 27.0938 46.5625C24.4688 47.9375 21.0729 48.625 16.9062 48.625C14.8229 48.625 12.9896 48.5312 11.4062 48.3438C9.84375 48.1562 8.38542 47.8542 7.03125 47.4375C5.67708 47 4.27083 46.4375 2.8125 45.75V34.75C5.29167 36 7.79167 36.9583 10.3125 37.625C12.8333 38.2708 15.1146 38.5938 17.1562 38.5938C18.3854 38.5938 19.3854 38.4479 20.1562 38.1562C20.9479 37.8646 21.5312 37.4688 21.9062 36.9688C22.2812 36.4479 22.4688 35.8542 22.4688 35.1875C22.4688 34.3958 22.1875 33.7292 21.625 33.1875C21.0833 32.625 20.2083 32.0417 19 31.4375C17.7917 30.8333 16.1979 30.0833 14.2188 29.1875C12.5312 28.3958 11 27.5833 9.625 26.75C8.27083 25.9167 7.10417 24.9688 6.125 23.9062C5.16667 22.8229 4.42708 21.5625 3.90625 20.125C3.38542 18.6875 3.125 16.9896 3.125 15.0312C3.125 12.0938 3.84375 9.63542 5.28125 7.65625C6.73958 5.65625 8.76042 4.15625 11.3438 3.15625C13.9479 2.15625 16.9479 1.65625 20.3438 1.65625C23.3229 1.65625 26 1.98958 28.375 2.65625C30.7708 3.32292 32.9167 4.08333 34.8125 4.9375L31.0312 14.4688C29.0729 13.5729 27.1458 12.8646 25.25 12.3438C23.3542 11.8021 21.5938 11.5312 19.9688 11.5312C18.9062 11.5312 18.0312 11.6667 17.3438 11.9375C16.6771 12.1875 16.1771 12.5312 15.8438 12.9688C15.5312 13.4062 15.375 13.9062 15.375 14.4688C15.375 15.1771 15.6458 15.8125 16.1875 16.375C16.75 16.9375 17.6771 17.5521 18.9688 18.2188C20.2812 18.8646 22.0625 19.7083 24.3125 20.75C26.5417 21.75 28.4375 22.8333 30 24C31.5625 25.1458 32.75 26.5312 33.5625 28.1562C34.3958 29.7604 34.8125 31.75 34.8125 34.125ZM62.2188 11.7812C60.7604 11.7812 59.4583 12.0938 58.3125 12.7188C57.1667 13.3229 56.1875 14.2083 55.375 15.375C54.5625 16.5417 53.9375 17.9688 53.5 19.6562C53.0833 21.3229 52.875 23.2188 52.875 25.3438C52.875 28.2188 53.2396 30.6354 53.9688 32.5938C54.6979 34.5521 55.8021 36.0312 57.2812 37.0312C58.7812 38.0312 60.6562 38.5312 62.9062 38.5312C64.9479 38.5312 66.9062 38.25 68.7812 37.6875C70.6771 37.125 72.5833 36.4479 74.5 35.6562V46.0938C72.4792 46.9896 70.4062 47.6354 68.2812 48.0312C66.1771 48.4271 63.9375 48.625 61.5625 48.625C56.6042 48.625 52.5417 47.6458 49.375 45.6875C46.2292 43.7083 43.9062 40.9688 42.4062 37.4688C40.9271 33.9688 40.1875 29.9062 40.1875 25.2812C40.1875 21.8229 40.6667 18.6562 41.625 15.7812C42.6042 12.9062 44.0312 10.4167 45.9062 8.3125C47.7812 6.1875 50.0938 4.55208 52.8438 3.40625C55.6146 2.23958 58.7812 1.65625 62.3438 1.65625C64.5521 1.65625 66.875 1.91667 69.3125 2.4375C71.7708 2.9375 74.1667 3.75 76.5 4.875L72.7188 14.5938C71.0521 13.8021 69.3646 13.1354 67.6562 12.5938C65.9479 12.0521 64.1354 11.7812 62.2188 11.7812Z"
       fill="black"
       id="path4" />
    <rect
       x="87.25"
       y="3.25"
       width="0.5"
       height="44.5"
       fill="white"
       stroke="black"
       stroke-width="0.5"
       id="rect6" />
    <path
       d="m 113.41362,28.4414 c 0,1.0156 -0.254,1.8828 -0.762,2.6016 -0.5,0.7109 -1.203,1.2539 -2.109,1.6289 -0.906,0.375 -1.973,0.5625 -3.199,0.5625 -0.649,0 -1.262,-0.0313 -1.84,-0.0938 -0.5782,-0.0625 -1.1094,-0.1523 -1.5938,-0.2695 -0.4844,-0.1172 -0.9101,-0.2617 -1.2773,-0.4336 v -1.9102 c 0.5859,0.2422 1.3008,0.4688 2.1445,0.6797 0.8436,0.2032 1.7266,0.3047 2.6486,0.3047 0.859,0 1.586,-0.1133 2.18,-0.3398 0.593,-0.2344 1.043,-0.5664 1.347,-0.9961 0.313,-0.4375 0.469,-0.961 0.469,-1.5703 0,-0.586 -0.129,-1.0743 -0.387,-1.4649 -0.258,-0.3984 -0.687,-0.7578 -1.289,-1.0781 -0.594,-0.3281 -1.406,-0.6758 -2.437,-1.043 -0.727,-0.2578 -1.368,-0.539 -1.922,-0.8437 -0.5549,-0.3125 -1.0198,-0.6641 -1.3948,-1.0547 -0.375,-0.3906 -0.6601,-0.8438 -0.8554,-1.3594 -0.1875,-0.5156 -0.2813,-1.1055 -0.2813,-1.7695 0,-0.9141 0.2305,-1.6953 0.6914,-2.3438 0.4688,-0.6562 1.1133,-1.1562 1.9341,-1.5 0.828,-0.3515 1.777,-0.5273 2.847,-0.5273 0.914,0 1.758,0.0859 2.531,0.2578 0.782,0.1719 1.497,0.4023 2.145,0.6914 l -0.621,1.7109 c -0.617,-0.2578 -1.274,-0.4726 -1.969,-0.6445 -0.687,-0.1719 -1.398,-0.2578 -2.133,-0.2578 -0.734,0 -1.355,0.1094 -1.863,0.3281 -0.5,0.211 -0.883,0.5118 -1.148,0.9024 -0.266,0.3906 -0.3988,0.8554 -0.3988,1.3945 0,0.6016 0.125,1.1016 0.3748,1.5 0.258,0.3984 0.664,0.7539 1.219,1.0664 0.562,0.3047 1.305,0.625 2.226,0.9609 1.008,0.3672 1.864,0.7579 2.567,1.1719 0.703,0.4063 1.238,0.9063 1.605,1.5 0.368,0.586 0.551,1.3321 0.551,2.2383 z m 7.359,3.1992 c 0.321,0 0.649,-0.0273 0.985,-0.082 0.336,-0.0547 0.609,-0.1211 0.82,-0.1992 v 1.5117 c -0.226,0.1016 -0.543,0.1875 -0.949,0.2578 -0.398,0.0703 -0.789,0.1055 -1.172,0.1055 -0.68,0 -1.297,-0.1172 -1.851,-0.3516 -0.555,-0.2422 -1,-0.6484 -1.336,-1.2187 -0.329,-0.5703 -0.493,-1.3594 -0.493,-2.3672 v -7.6172 h -1.828 v -0.9492 l 1.84,-0.7617 0.774,-2.7891 h 1.171 v 2.9765 h 3.762 v 1.5235 h -3.762 v 7.5586 c 0,0.8047 0.184,1.4062 0.551,1.8047 0.375,0.3984 0.871,0.5976 1.488,0.5976 z m 15.012,-11.4844 V 33 h -1.594 l -0.281,-1.8047 h -0.105 c -0.266,0.4453 -0.61,0.8203 -1.032,1.125 -0.421,0.3047 -0.898,0.5313 -1.429,0.6797 -0.524,0.1562 -1.082,0.2344 -1.676,0.2344 -1.016,0 -1.867,-0.1641 -2.555,-0.4922 -0.687,-0.3281 -1.207,-0.836 -1.558,-1.5234 -0.344,-0.6876 -0.516,-1.5704 -0.516,-2.6485 v -8.4141 h 1.969 v 8.2735 c 0,1.0703 0.242,1.8711 0.726,2.4023 0.485,0.5235 1.223,0.7852 2.215,0.7852 0.953,0 1.711,-0.1797 2.274,-0.5391 0.57,-0.3593 0.98,-0.8867 1.23,-1.582 0.25,-0.7031 0.375,-1.5625 0.375,-2.5781 v -6.7618 z m 8.684,13.0782 c -1.625,0 -2.914,-0.5547 -3.867,-1.6641 -0.946,-1.1094 -1.418,-2.7578 -1.418,-4.9453 0,-2.2109 0.484,-3.8789 1.453,-5.0039 0.969,-1.1328 2.258,-1.6992 3.867,-1.6992 0.68,0 1.273,0.0898 1.781,0.2695 0.508,0.1797 0.946,0.4219 1.313,0.7266 0.367,0.2968 0.675,0.6367 0.925,1.0195 h 0.141 c -0.031,-0.2422 -0.062,-0.5742 -0.094,-0.9961 -0.031,-0.4219 -0.047,-0.7656 -0.047,-1.0312 v -5.1446 h 1.946 V 33 h -1.57 l -0.293,-1.8281 h -0.083 c -0.242,0.3828 -0.55,0.7304 -0.925,1.0429 -0.367,0.3125 -0.809,0.5625 -1.325,0.75 -0.507,0.1797 -1.109,0.2696 -1.804,0.2696 z m 0.304,-1.6172 c 1.376,0 2.348,-0.3906 2.918,-1.1719 0.571,-0.7812 0.856,-1.9414 0.856,-3.4805 v -0.3515 c 0,-1.6328 -0.274,-2.8867 -0.82,-3.7617 -0.539,-0.875 -1.524,-1.3125 -2.954,-1.3125 -1.195,0 -2.089,0.4609 -2.683,1.3828 -0.594,0.914 -0.891,2.164 -0.891,3.75 0,1.5781 0.293,2.7969 0.879,3.6562 0.594,0.8594 1.492,1.2891 2.695,1.2891 z m 14.766,-11.6953 c 1.094,0 2.031,0.2422 2.813,0.7265 0.781,0.4844 1.379,1.1641 1.793,2.0391 0.414,0.8672 0.621,1.8828 0.621,3.0469 v 1.207 h -8.871 c 0.023,1.5078 0.398,2.6563 1.125,3.4453 0.726,0.7891 1.75,1.1836 3.07,1.1836 0.812,0 1.531,-0.0742 2.156,-0.2226 0.625,-0.1485 1.274,-0.3672 1.945,-0.6563 v 1.7109 c -0.648,0.2891 -1.292,0.5 -1.933,0.6329 -0.633,0.1328 -1.383,0.1992 -2.25,0.1992 -1.235,0 -2.313,-0.25 -3.235,-0.75 -0.914,-0.5078 -1.624,-1.25 -2.132,-2.2266 -0.508,-0.9766 -0.762,-2.1719 -0.762,-3.5859 0,-1.3828 0.23,-2.5781 0.691,-3.586 0.469,-1.0156 1.125,-1.7968 1.969,-2.3437 0.852,-0.5469 1.852,-0.8203 3,-0.8203 z m -0.023,1.5937 c -1.039,0 -1.867,0.3399 -2.485,1.0196 -0.617,0.6796 -0.984,1.6289 -1.101,2.8476 h 6.797 c -0.008,-0.7656 -0.129,-1.4375 -0.364,-2.0156 -0.226,-0.586 -0.574,-1.0391 -1.043,-1.3594 -0.468,-0.3281 -1.07,-0.4922 -1.804,-0.4922 z m 14.636,-1.5937 c 1.524,0 2.676,0.375 3.457,1.125 0.782,0.7422 1.172,1.9375 1.172,3.5859 V 33 h -1.922 v -8.2383 c 0,-1.0703 -0.246,-1.8711 -0.738,-2.4023 -0.484,-0.5313 -1.23,-0.7969 -2.238,-0.7969 -1.422,0 -2.422,0.4023 -3,1.207 -0.578,0.8047 -0.867,1.9727 -0.867,3.5039 V 33 h -1.946 V 20.1562 h 1.571 l 0.293,1.8516 h 0.105 c 0.274,-0.4531 0.621,-0.832 1.043,-1.1367 0.422,-0.3125 0.895,-0.5469 1.418,-0.7031 0.523,-0.1641 1.074,-0.2461 1.652,-0.2461 z m 12.786,11.7187 c 0.32,0 0.648,-0.0273 0.984,-0.082 0.336,-0.0547 0.609,-0.1211 0.82,-0.1992 v 1.5117 c -0.226,0.1016 -0.543,0.1875 -0.949,0.2578 -0.398,0.0703 -0.789,0.1055 -1.172,0.1055 -0.68,0 -1.297,-0.1172 -1.851,-0.3516 -0.555,-0.2422 -1,-0.6484 -1.336,-1.2187 -0.328,-0.5703 -0.493,-1.3594 -0.493,-2.3672 v -7.6172 h -1.828 v -0.9492 l 1.84,-0.7617 0.774,-2.7891 h 1.172 v 2.9765 h 3.761 v 1.5235 h -3.761 v 7.5586 c 0,0.8047 0.183,1.4062 0.55,1.8047 0.375,0.3984 0.871,0.5976 1.489,0.5976 z m 12.023,-14.2617 c -0.945,0 -1.797,0.1641 -2.555,0.4922 -0.75,0.3203 -1.39,0.7891 -1.922,1.4062 -0.523,0.6094 -0.925,1.3477 -1.207,2.2149 -0.281,0.8672 -0.421,1.8437 -0.421,2.9297 0,1.4375 0.222,2.6875 0.667,3.75 0.454,1.0547 1.126,1.8711 2.016,2.4492 0.899,0.5781 2.02,0.8672 3.363,0.8672 0.766,0 1.485,-0.0625 2.157,-0.1875 0.679,-0.1328 1.34,-0.2969 1.98,-0.4922 v 1.7344 c -0.625,0.2343 -1.281,0.4062 -1.969,0.5156 -0.687,0.1172 -1.504,0.1758 -2.449,0.1758 -1.742,0 -3.199,-0.3594 -4.371,-1.0782 -1.164,-0.7265 -2.039,-1.75 -2.625,-3.0703 -0.578,-1.3203 -0.867,-2.8789 -0.867,-4.6757 0,-1.2969 0.18,-2.4805 0.539,-3.5508 0.367,-1.0782 0.898,-2.0078 1.594,-2.7891 0.703,-0.7812 1.562,-1.3828 2.578,-1.8047 1.023,-0.4297 2.195,-0.6445 3.515,-0.6445 0.868,0 1.704,0.0859 2.508,0.2578 0.805,0.1719 1.531,0.418 2.18,0.7383 l -0.797,1.6875 c -0.547,-0.25 -1.148,-0.4649 -1.805,-0.6445 -0.648,-0.1875 -1.351,-0.2813 -2.109,-0.2813 z m 9.445,-2.6133 v 5.4492 c 0,0.3125 -0.007,0.629 -0.023,0.9493 -0.016,0.3125 -0.043,0.6015 -0.082,0.8671 h 0.129 c 0.265,-0.4531 0.601,-0.832 1.008,-1.1367 0.414,-0.3125 0.882,-0.5468 1.406,-0.7031 0.523,-0.1641 1.078,-0.2461 1.664,-0.2461 1.031,0 1.891,0.1641 2.578,0.4922 0.695,0.3281 1.215,0.8359 1.559,1.5234 0.351,0.6875 0.527,1.5782 0.527,2.6719 V 33 h -1.922 v -8.2383 c 0,-1.0703 -0.246,-1.8711 -0.738,-2.4023 -0.485,-0.5313 -1.231,-0.7969 -2.239,-0.7969 -0.953,0 -1.714,0.1836 -2.285,0.5508 -0.562,0.3594 -0.968,0.8906 -1.218,1.5937 -0.243,0.7032 -0.364,1.5625 -0.364,2.5782 V 33 h -1.945 V 14.7656 Z m 17.578,5.1797 c 1.532,0 2.668,0.3438 3.411,1.0313 0.742,0.6875 1.113,1.7851 1.113,3.2929 V 33 h -1.418 l -0.375,-1.8984 h -0.094 c -0.359,0.4687 -0.734,0.8632 -1.125,1.1836 -0.39,0.3125 -0.844,0.5507 -1.359,0.7148 -0.508,0.1562 -1.133,0.2344 -1.875,0.2344 -0.781,0 -1.477,-0.1367 -2.086,-0.4102 -0.602,-0.2734 -1.078,-0.6875 -1.43,-1.2422 -0.344,-0.5547 -0.515,-1.2578 -0.515,-2.1093 0,-1.2813 0.507,-2.2657 1.523,-2.9532 1.016,-0.6875 2.562,-1.0625 4.641,-1.125 l 2.214,-0.0937 v -0.7852 c 0,-1.1094 -0.238,-1.8867 -0.714,-2.332 -0.477,-0.4453 -1.149,-0.668 -2.016,-0.668 -0.672,0 -1.313,0.0977 -1.922,0.293 -0.609,0.1953 -1.187,0.4258 -1.734,0.6914 l -0.598,-1.4766 c 0.578,-0.2968 1.242,-0.5507 1.992,-0.7617 0.75,-0.2109 1.539,-0.3164 2.367,-0.3164 z m 2.602,6.7266 -1.957,0.082 c -1.602,0.0625 -2.73,0.3242 -3.387,0.7852 -0.656,0.4609 -0.984,1.1132 -0.984,1.957 0,0.7344 0.223,1.2773 0.668,1.6289 0.445,0.3516 1.035,0.5273 1.769,0.5273 1.141,0 2.075,-0.3164 2.801,-0.9492 0.727,-0.6328 1.09,-1.582 1.09,-2.8476 z m 10.078,4.9687 c 0.32,0 0.649,-0.0273 0.985,-0.082 0.335,-0.0547 0.609,-0.1211 0.82,-0.1992 v 1.5117 c -0.227,0.1016 -0.543,0.1875 -0.949,0.2578 -0.399,0.0703 -0.789,0.1055 -1.172,0.1055 -0.68,0 -1.297,-0.1172 -1.852,-0.3516 -0.555,-0.2422 -1,-0.6484 -1.336,-1.2187 -0.328,-0.5703 -0.492,-1.3594 -0.492,-2.3672 v -7.6172 h -1.828 v -0.9492 l 1.84,-0.7617 0.773,-2.7891 h 1.172 v 2.9765 h 3.762 v 1.5235 h -3.762 v 7.5586 c 0,0.8047 0.184,1.4062 0.551,1.8047 0.375,0.3984 0.871,0.5976 1.488,0.5976 z"
       fill="#000000"
       id="path8" />
  </g>
  <defs
     id="defs15">
    <clipPath
       id="clip0_2_3">
      <rect
         width="256"
         height="51"
         fill="white"
         id="rect12" />
    </clipPath>
  </defs>
</svg>
