<svg width="80" height="80" viewBox="0 0 80 80" fill="none" xmlns="http://www.w3.org/2000/svg">
<g clip-path="url(#clip0_2_3)">
<rect width="80" height="80" fill="white"/>
<path d="M35.8125 37.125C35.8125 39.6042 35.1875 41.9583 33.9375 44.1875C32.6875 46.3958 30.7396 48.1875 28.0938 49.5625C25.4688 50.9375 22.0729 51.625 17.9062 51.625C15.8229 51.625 13.9896 51.5312 12.4062 51.3438C10.8438 51.1562 9.38542 50.8542 8.03125 50.4375C6.67708 50 5.27083 49.4375 3.8125 48.75V37.75C6.29167 39 8.79167 39.9583 11.3125 40.625C13.8333 41.2708 16.1146 41.5938 18.1562 41.5938C19.3854 41.5938 20.3854 41.4479 21.1562 41.1562C21.9479 40.8646 22.5312 40.4688 22.9062 39.9688C23.2812 39.4479 23.4688 38.8542 23.4688 38.1875C23.4688 37.3958 23.1875 36.7292 22.625 36.1875C22.0833 35.625 21.2083 35.0417 20 34.4375C18.7917 33.8333 17.1979 33.0833 15.2188 32.1875C13.5312 31.3958 12 30.5833 10.625 29.75C9.27083 28.9167 8.10417 27.9688 7.125 26.9062C6.16667 25.8229 5.42708 24.5625 4.90625 23.125C4.38542 21.6875 4.125 19.9896 4.125 18.0312C4.125 15.0938 4.84375 12.6354 6.28125 10.6562C7.73958 8.65625 9.76042 7.15625 12.3438 6.15625C14.9479 5.15625 17.9479 4.65625 21.3438 4.65625C24.3229 4.65625 27 4.98958 29.375 5.65625C31.7708 6.32292 33.9167 7.08333 35.8125 7.9375L32.0312 17.4688C30.0729 16.5729 28.1458 15.8646 26.25 15.3438C24.3542 14.8021 22.5938 14.5312 20.9688 14.5312C19.9062 14.5312 19.0312 14.6667 18.3438 14.9375C17.6771 15.1875 17.1771 15.5312 16.8438 15.9688C16.5312 16.4062 16.375 16.9062 16.375 17.4688C16.375 18.1771 16.6458 18.8125 17.1875 19.375C17.75 19.9375 18.6771 20.5521 19.9688 21.2188C21.2812 21.8646 23.0625 22.7083 25.3125 23.75C27.5417 24.75 29.4375 25.8333 31 27C32.5625 28.1458 33.75 29.5312 34.5625 31.1562C35.3958 32.7604 35.8125 34.75 35.8125 37.125ZM63.2188 14.7812C61.7604 14.7812 60.4583 15.0938 59.3125 15.7188C58.1667 16.3229 57.1875 17.2083 56.375 18.375C55.5625 19.5417 54.9375 20.9688 54.5 22.6562C54.0833 24.3229 53.875 26.2188 53.875 28.3438C53.875 31.2188 54.2396 33.6354 54.9688 35.5938C55.6979 37.5521 56.8021 39.0312 58.2812 40.0312C59.7812 41.0312 61.6562 41.5312 63.9062 41.5312C65.9479 41.5312 67.9062 41.25 69.7812 40.6875C71.6771 40.125 73.5833 39.4479 75.5 38.6562V49.0938C73.4792 49.9896 71.4062 50.6354 69.2812 51.0312C67.1771 51.4271 64.9375 51.625 62.5625 51.625C57.6042 51.625 53.5417 50.6458 50.375 48.6875C47.2292 46.7083 44.9062 43.9688 43.4062 40.4688C41.9271 36.9688 41.1875 32.9062 41.1875 28.2812C41.1875 24.8229 41.6667 21.6562 42.625 18.7812C43.6042 15.9062 45.0312 13.4167 46.9062 11.3125C48.7812 9.1875 51.0938 7.55208 53.8438 6.40625C56.6146 5.23958 59.7812 4.65625 63.3438 4.65625C65.5521 4.65625 67.875 4.91667 70.3125 5.4375C72.7708 5.9375 75.1667 6.75 77.5 7.875L73.7188 17.5938C72.0521 16.8021 70.3646 16.1354 68.6562 15.5938C66.9479 15.0521 65.1354 14.7812 63.2188 14.7812Z" fill="black"/>
<line y1="56.5" x2="80" y2="56.5" stroke="black"/>
<path d="M7.52734 69.3984C7.52734 69.8633 7.41016 70.3047 7.17578 70.7227C6.94141 71.1367 6.57617 71.4727 6.08008 71.7305C5.58789 71.9883 4.95117 72.1172 4.16992 72.1172C3.7793 72.1172 3.43555 72.0996 3.13867 72.0645C2.8457 72.0293 2.57227 71.9727 2.31836 71.8945C2.06445 71.8125 1.80078 71.707 1.52734 71.5781V69.5156C1.99219 69.75 2.46094 69.9297 2.93359 70.0547C3.40625 70.1758 3.83398 70.2363 4.2168 70.2363C4.44727 70.2363 4.63477 70.209 4.7793 70.1543C4.92773 70.0996 5.03711 70.0254 5.10742 69.9316C5.17773 69.834 5.21289 69.7227 5.21289 69.5977C5.21289 69.4492 5.16016 69.3242 5.05469 69.2227C4.95312 69.1172 4.78906 69.0078 4.5625 68.8945C4.33594 68.7812 4.03711 68.6406 3.66602 68.4727C3.34961 68.3242 3.0625 68.1719 2.80469 68.0156C2.55078 67.8594 2.33203 67.6816 2.14844 67.4824C1.96875 67.2793 1.83008 67.043 1.73242 66.7734C1.63477 66.5039 1.58594 66.1855 1.58594 65.8184C1.58594 65.2676 1.7207 64.8066 1.99023 64.4355C2.26367 64.0605 2.64258 63.7793 3.12695 63.5918C3.61523 63.4043 4.17773 63.3105 4.81445 63.3105C5.37305 63.3105 5.875 63.373 6.32031 63.498C6.76953 63.623 7.17188 63.7656 7.52734 63.9258L6.81836 65.7129C6.45117 65.5449 6.08984 65.4121 5.73438 65.3145C5.37891 65.2129 5.04883 65.1621 4.74414 65.1621C4.54492 65.1621 4.38086 65.1875 4.25195 65.2383C4.12695 65.2852 4.0332 65.3496 3.9707 65.4316C3.91211 65.5137 3.88281 65.6074 3.88281 65.7129C3.88281 65.8457 3.93359 65.9648 4.03516 66.0703C4.14062 66.1758 4.31445 66.291 4.55664 66.416C4.80273 66.5371 5.13672 66.6953 5.55859 66.8906C5.97656 67.0781 6.33203 67.2812 6.625 67.5C6.91797 67.7148 7.14062 67.9746 7.29297 68.2793C7.44922 68.5801 7.52734 68.9531 7.52734 69.3984ZM11.9688 70.3066C12.1758 70.3066 12.3652 70.2852 12.5371 70.2422C12.709 70.1992 12.8887 70.1445 13.0762 70.0781V71.748C12.8262 71.8574 12.5605 71.9453 12.2793 72.0117C12.002 72.082 11.6465 72.1172 11.2129 72.1172C10.7832 72.1172 10.4043 72.0508 10.0762 71.918C9.74805 71.7812 9.49219 71.5469 9.30859 71.2148C9.12891 70.8789 9.03906 70.4121 9.03906 69.8145V67.0781H8.23633V66.1465L9.25586 65.4258L9.84766 64.0312H11.3477V65.3613H12.9766V67.0781H11.3477V69.6621C11.3477 69.877 11.4023 70.0391 11.5117 70.1484C11.6211 70.2539 11.7734 70.3066 11.9688 70.3066ZM20.6934 65.3613V72H18.9648L18.6777 71.1738H18.543C18.4062 71.3965 18.2324 71.5781 18.0215 71.7188C17.8145 71.8555 17.584 71.9551 17.3301 72.0176C17.0762 72.084 16.8125 72.1172 16.5391 72.1172C16.1055 72.1172 15.7129 72.0332 15.3613 71.8652C15.0137 71.6973 14.7363 71.4336 14.5293 71.0742C14.3262 70.7148 14.2246 70.252 14.2246 69.6855V65.3613H16.5156V68.9883C16.5156 69.418 16.5762 69.7461 16.6973 69.9727C16.8223 70.1953 17.0254 70.3066 17.3066 70.3066C17.5957 70.3066 17.8184 70.2285 17.9746 70.0723C18.1348 69.916 18.2461 69.6855 18.3086 69.3809C18.3711 69.0762 18.4023 68.7051 18.4023 68.2676V65.3613H20.6934ZM24.3379 72.1172C23.6543 72.1172 23.0918 71.8262 22.6504 71.2441C22.209 70.6621 21.9883 69.8105 21.9883 68.6895C21.9883 67.5566 22.2148 66.6992 22.668 66.1172C23.1211 65.5352 23.707 65.2441 24.4258 65.2441C24.7227 65.2441 24.9785 65.2871 25.1934 65.373C25.4082 65.459 25.5938 65.5762 25.75 65.7246C25.9102 65.8691 26.0488 66.0332 26.166 66.2168H26.2129C26.1855 66.0488 26.1602 65.8184 26.1367 65.5254C26.1133 65.2285 26.1016 64.9395 26.1016 64.6582V62.8828H28.4102V72H26.6816L26.1895 71.1621H26.1016C25.9961 71.3379 25.8633 71.498 25.7031 71.6426C25.5469 71.7871 25.3555 71.9023 25.1289 71.9883C24.9062 72.0742 24.6426 72.1172 24.3379 72.1172ZM25.2754 70.3066C25.6426 70.3066 25.9004 70.1914 26.0488 69.9609C26.2012 69.7266 26.2832 69.3711 26.2949 68.8945V68.7129C26.2949 68.1895 26.2207 67.7891 26.0723 67.5117C25.9277 67.2305 25.6543 67.0898 25.252 67.0898C24.9785 67.0898 24.752 67.2227 24.5723 67.4883C24.3926 67.7539 24.3027 68.166 24.3027 68.7246C24.3027 69.2754 24.3926 69.6777 24.5723 69.9316C24.7559 70.1816 24.9902 70.3066 25.2754 70.3066ZM32.9863 65.2441C33.6309 65.2441 34.1875 65.3574 34.6562 65.584C35.125 65.8066 35.4863 66.1426 35.7402 66.5918C35.9941 67.041 36.1211 67.6035 36.1211 68.2793V69.2988H32.0254C32.0449 69.6465 32.1738 69.9316 32.4121 70.1543C32.6543 70.377 33.0098 70.4883 33.4785 70.4883C33.8926 70.4883 34.2715 70.4473 34.6152 70.3652C34.9629 70.2832 35.3203 70.1562 35.6875 69.9844V71.6309C35.3672 71.7988 35.0176 71.9219 34.6387 72C34.2598 72.0781 33.7812 72.1172 33.2031 72.1172C32.5352 72.1172 31.9375 71.998 31.4102 71.7598C30.8828 71.5215 30.4668 71.1523 30.1621 70.6523C29.8613 70.1523 29.7109 69.5098 29.7109 68.7246C29.7109 67.9277 29.8477 67.2734 30.1211 66.7617C30.3945 66.2461 30.7773 65.8652 31.2695 65.6191C31.7617 65.3691 32.334 65.2441 32.9863 65.2441ZM33.0684 66.8027C32.7988 66.8027 32.5723 66.8887 32.3887 67.0605C32.209 67.2285 32.1035 67.4941 32.0723 67.8574H34.041C34.0371 67.6621 33.998 67.4844 33.9238 67.3242C33.8496 67.1641 33.7402 67.0371 33.5957 66.9434C33.4551 66.8496 33.2793 66.8027 33.0684 66.8027ZM41.5703 65.2441C42.2539 65.2441 42.8125 65.4375 43.2461 65.8242C43.6797 66.2109 43.8965 66.8301 43.8965 67.6816V72H41.6055V68.3789C41.6055 67.9375 41.541 67.6055 41.4121 67.3828C41.2871 67.1562 41.084 67.043 40.8027 67.043C40.3691 67.043 40.0781 67.2207 39.9297 67.5762C39.7812 67.9277 39.707 68.4336 39.707 69.0938V72H37.416V65.3613H39.1445L39.4551 66.2402H39.543C39.6836 66.0293 39.8516 65.8496 40.0469 65.7012C40.2422 65.5527 40.4668 65.4395 40.7207 65.3613C40.9746 65.2832 41.2578 65.2441 41.5703 65.2441ZM48.707 70.3066C48.9141 70.3066 49.1035 70.2852 49.2754 70.2422C49.4473 70.1992 49.627 70.1445 49.8145 70.0781V71.748C49.5645 71.8574 49.2988 71.9453 49.0176 72.0117C48.7402 72.082 48.3848 72.1172 47.9512 72.1172C47.5215 72.1172 47.1426 72.0508 46.8145 71.918C46.4863 71.7812 46.2305 71.5469 46.0469 71.2148C45.8672 70.8789 45.7773 70.4121 45.7773 69.8145V67.0781H44.9746V66.1465L45.9941 65.4258L46.5859 64.0312H48.0859V65.3613H49.7148V67.0781H48.0859V69.6621C48.0859 69.877 48.1406 70.0391 48.25 70.1484C48.3594 70.2539 48.5117 70.3066 48.707 70.3066ZM54.9238 65.209C54.6504 65.209 54.4062 65.2676 54.1914 65.3848C53.9766 65.498 53.793 65.6641 53.6406 65.8828C53.4883 66.1016 53.3711 66.3691 53.2891 66.6855C53.2109 66.998 53.1719 67.3535 53.1719 67.752C53.1719 68.291 53.2402 68.7441 53.377 69.1113C53.5137 69.4785 53.7207 69.7559 53.998 69.9434C54.2793 70.1309 54.6309 70.2246 55.0527 70.2246C55.4355 70.2246 55.8027 70.1719 56.1543 70.0664C56.5098 69.9609 56.8672 69.834 57.2266 69.6855V71.6426C56.8477 71.8105 56.459 71.9316 56.0605 72.0059C55.666 72.0801 55.2461 72.1172 54.8008 72.1172C53.8711 72.1172 53.1094 71.9336 52.5156 71.5664C51.9258 71.1953 51.4902 70.6816 51.209 70.0254C50.9316 69.3691 50.793 68.6074 50.793 67.7402C50.793 67.0918 50.8828 66.498 51.0625 65.959C51.2461 65.4199 51.5137 64.9531 51.8652 64.5586C52.2168 64.1602 52.6504 63.8535 53.166 63.6387C53.6855 63.4199 54.2793 63.3105 54.9473 63.3105C55.3613 63.3105 55.7969 63.3594 56.2539 63.457C56.7148 63.5508 57.1641 63.7031 57.6016 63.9141L56.8926 65.7363C56.5801 65.5879 56.2637 65.4629 55.9434 65.3613C55.623 65.2598 55.2832 65.209 54.9238 65.209ZM61.0586 62.8828V64.1777C61.0586 64.6699 61.0469 65.084 61.0234 65.4199C61.0039 65.752 60.9844 66.0059 60.9648 66.1816H61.0703C61.2148 65.9512 61.3789 65.7676 61.5625 65.6309C61.7461 65.4941 61.9492 65.3965 62.1719 65.3379C62.3945 65.2754 62.6367 65.2441 62.8984 65.2441C63.3359 65.2441 63.7305 65.3281 64.082 65.4961C64.4375 65.6641 64.7207 65.9277 64.9316 66.2871C65.1426 66.6426 65.248 67.1074 65.248 67.6816V72H62.9453V68.3789C62.9453 67.9375 62.8809 67.6055 62.752 67.3828C62.623 67.1562 62.4238 67.043 62.1543 67.043C61.877 67.043 61.6582 67.123 61.498 67.2832C61.3379 67.4395 61.2246 67.6699 61.1582 67.9746C61.0918 68.2754 61.0586 68.6445 61.0586 69.082V72H58.7676V62.8828H61.0586ZM70.0469 65.2441C70.8867 65.2441 71.543 65.4531 72.0156 65.8711C72.4883 66.2852 72.7246 66.877 72.7246 67.6465V72H71.1367L70.6973 71.1211H70.6504C70.4629 71.3555 70.2695 71.5469 70.0703 71.6953C69.875 71.8398 69.6504 71.9453 69.3965 72.0117C69.1426 72.082 68.832 72.1172 68.4648 72.1172C68.082 72.1172 67.7383 72.0391 67.4336 71.8828C67.1289 71.7266 66.8887 71.4902 66.7129 71.1738C66.5371 70.8574 66.4492 70.457 66.4492 69.9727C66.4492 69.2617 66.6953 68.7344 67.1875 68.3906C67.6797 68.0469 68.3926 67.8535 69.3262 67.8105L70.4336 67.7754V67.6816C70.4336 67.3848 70.3594 67.1738 70.2109 67.0488C70.0664 66.9238 69.8711 66.8613 69.625 66.8613C69.3633 66.8613 69.0703 66.9082 68.7461 67.002C68.4258 67.0918 68.1035 67.209 67.7793 67.3535L67.1172 65.8418C67.5 65.6465 67.9336 65.498 68.418 65.3965C68.9023 65.2949 69.4453 65.2441 70.0469 65.2441ZM70.4453 69.0352L69.918 69.0586C69.4961 69.0742 69.1992 69.1484 69.0273 69.2812C68.8594 69.4102 68.7754 69.5957 68.7754 69.8379C68.7754 70.0645 68.8359 70.2324 68.957 70.3418C69.0781 70.4473 69.2383 70.5 69.4375 70.5C69.7148 70.5 69.9512 70.4121 70.1465 70.2363C70.3457 70.0605 70.4453 69.832 70.4453 69.5508V69.0352ZM77.5352 70.3066C77.7422 70.3066 77.9316 70.2852 78.1035 70.2422C78.2754 70.1992 78.4551 70.1445 78.6426 70.0781V71.748C78.3926 71.8574 78.127 71.9453 77.8457 72.0117C77.5684 72.082 77.2129 72.1172 76.7793 72.1172C76.3496 72.1172 75.9707 72.0508 75.6426 71.918C75.3145 71.7812 75.0586 71.5469 74.875 71.2148C74.6953 70.8789 74.6055 70.4121 74.6055 69.8145V67.0781H73.8027V66.1465L74.8223 65.4258L75.4141 64.0312H76.9141V65.3613H78.543V67.0781H76.9141V69.6621C76.9141 69.877 76.9688 70.0391 77.0781 70.1484C77.1875 70.2539 77.3398 70.3066 77.5352 70.3066Z" fill="black"/>
</g>
<defs>
<clipPath id="clip0_2_3">
<rect width="80" height="80" fill="white"/>
</clipPath>
</defs>
</svg>
