<svg width="80" height="80" viewBox="0 0 80 80" fill="none" xmlns="http://www.w3.org/2000/svg">
<rect width="80" height="80" fill="#E5E5E5"/>
<g clip-path="url(#clip0_0_1)">
<rect width="80" height="80" rx="5" fill="white"/>
<path d="M35.5625 49.125C35.5625 51.6042 34.9375 53.9583 33.6875 56.1875C32.4375 58.3958 30.4896 60.1875 27.8438 61.5625C25.2188 62.9375 21.8229 63.625 17.6562 63.625C15.5729 63.625 13.7396 63.5312 12.1562 63.3438C10.5938 63.1562 9.13542 62.8542 7.78125 62.4375C6.42708 62 5.02083 61.4375 3.5625 60.75V49.75C6.04167 51 8.54167 51.9583 11.0625 52.625C13.5833 53.2708 15.8646 53.5938 17.9062 53.5938C19.1354 53.5938 20.1354 53.4479 20.9062 53.1562C21.6979 52.8646 22.2812 52.4688 22.6562 51.9688C23.0312 51.4479 23.2188 50.8542 23.2188 50.1875C23.2188 49.3958 22.9375 48.7292 22.375 48.1875C21.8333 47.625 20.9583 47.0417 19.75 46.4375C18.5417 45.8333 16.9479 45.0833 14.9688 44.1875C13.2812 43.3958 11.75 42.5833 10.375 41.75C9.02083 40.9167 7.85417 39.9688 6.875 38.9062C5.91667 37.8229 5.17708 36.5625 4.65625 35.125C4.13542 33.6875 3.875 31.9896 3.875 30.0312C3.875 27.0938 4.59375 24.6354 6.03125 22.6562C7.48958 20.6562 9.51042 19.1562 12.0938 18.1562C14.6979 17.1562 17.6979 16.6562 21.0938 16.6562C24.0729 16.6562 26.75 16.9896 29.125 17.6562C31.5208 18.3229 33.6667 19.0833 35.5625 19.9375L31.7812 29.4688C29.8229 28.5729 27.8958 27.8646 26 27.3438C24.1042 26.8021 22.3438 26.5312 20.7188 26.5312C19.6562 26.5312 18.7812 26.6667 18.0938 26.9375C17.4271 27.1875 16.9271 27.5312 16.5938 27.9688C16.2812 28.4062 16.125 28.9062 16.125 29.4688C16.125 30.1771 16.3958 30.8125 16.9375 31.375C17.5 31.9375 18.4271 32.5521 19.7188 33.2188C21.0312 33.8646 22.8125 34.7083 25.0625 35.75C27.2917 36.75 29.1875 37.8333 30.75 39C32.3125 40.1458 33.5 41.5312 34.3125 43.1562C35.1458 44.7604 35.5625 46.75 35.5625 49.125ZM62.9688 26.7812C61.5104 26.7812 60.2083 27.0938 59.0625 27.7188C57.9167 28.3229 56.9375 29.2083 56.125 30.375C55.3125 31.5417 54.6875 32.9688 54.25 34.6562C53.8333 36.3229 53.625 38.2188 53.625 40.3438C53.625 43.2188 53.9896 45.6354 54.7188 47.5938C55.4479 49.5521 56.5521 51.0312 58.0312 52.0312C59.5312 53.0312 61.4062 53.5312 63.6562 53.5312C65.6979 53.5312 67.6562 53.25 69.5312 52.6875C71.4271 52.125 73.3333 51.4479 75.25 50.6562V61.0938C73.2292 61.9896 71.1562 62.6354 69.0312 63.0312C66.9271 63.4271 64.6875 63.625 62.3125 63.625C57.3542 63.625 53.2917 62.6458 50.125 60.6875C46.9792 58.7083 44.6562 55.9688 43.1562 52.4688C41.6771 48.9688 40.9375 44.9062 40.9375 40.2812C40.9375 36.8229 41.4167 33.6562 42.375 30.7812C43.3542 27.9062 44.7812 25.4167 46.6562 23.3125C48.5312 21.1875 50.8438 19.5521 53.5938 18.4062C56.3646 17.2396 59.5312 16.6562 63.0938 16.6562C65.3021 16.6562 67.625 16.9167 70.0625 17.4375C72.5208 17.9375 74.9167 18.75 77.25 19.875L73.4688 29.5938C71.8021 28.8021 70.1146 28.1354 68.4062 27.5938C66.6979 27.0521 64.8854 26.7812 62.9688 26.7812Z" fill="black"/>
</g>
<rect x="0.5" y="0.5" width="79" height="79" rx="4.5" stroke="black"/>
<defs>
<clipPath id="clip0_0_1">
<rect width="80" height="80" rx="5" fill="white"/>
</clipPath>
</defs>
</svg>
