<?xml version="1.0" encoding="UTF-8" standalone="no"?>
<!-- Generator: Adobe Illustrator 16.0.0, SVG Export Plug-In . SVG Version: 6.00 Build 0)  -->

<svg
   version="1.1"
   id="Capa_1"
   x="0px"
   y="0px"
   width="314.069px"
   height="314.069px"
   viewBox="0 0 314.069 314.069"
   style="enable-background:new 0 0 314.069 314.069;"
   xml:space="preserve"
   sodipodi:docname="pageUp.svg"
   inkscape:version="1.1.2 (b8e25be833, 2022-02-05)"
   xmlns:inkscape="http://www.inkscape.org/namespaces/inkscape"
   xmlns:sodipodi="http://sodipodi.sourceforge.net/DTD/sodipodi-0.dtd"
   xmlns="http://www.w3.org/2000/svg"
   xmlns:svg="http://www.w3.org/2000/svg"><defs
   id="defs4276" /><sodipodi:namedview
   id="namedview4274"
   pagecolor="#ffffff"
   bordercolor="#666666"
   borderopacity="1.0"
   inkscape:pageshadow="2"
   inkscape:pageopacity="0.0"
   inkscape:pagecheckerboard="0"
   showgrid="false"
   showguides="true"
   inkscape:zoom="1.3711255"
   inkscape:cx="-20.056515"
   inkscape:cy="150.97086"
   inkscape:window-width="1440"
   inkscape:window-height="837"
   inkscape:window-x="-8"
   inkscape:window-y="-8"
   inkscape:window-maximized="1"
   inkscape:current-layer="layer3" />
<g
   inkscape:groupmode="layer"
   id="layer3"
   inkscape:label="Layer 1"
   style="display:inline"><ellipse
     style="fill:#ffffff"
     id="path6579"
     cx="156.07616"
     cy="153.88817"
     rx="145.86557"
     ry="140.03094" /></g><g
   id="g4241"
   inkscape:label="#g4241"
   style="display:inline">
	
</g>
<g
   id="g4243">
</g>
<g
   id="g4245">
</g>
<g
   id="g4247">
</g>
<g
   id="g4249">
</g>
<g
   id="g4251">
</g>
<g
   id="g4253">
</g>
<g
   id="g4255">
</g>
<g
   id="g4257">
</g>
<g
   id="g4259">
</g>
<g
   id="g4261">
</g>
<g
   id="g4263">
</g>
<g
   id="g4265">
</g>
<g
   id="g4267">
</g>
<g
   id="g4269">
</g>
<g
   id="g4271">
</g>
<g
   inkscape:groupmode="layer"
   id="layer4"
   inkscape:label="Layer 2"><g
     id="_x34_99._Up"
     inkscape:label="#_x34_99._Up"
     style="enable-background:new 0 0 314.069 314.069;display:inline">
		<g
   id="g4238">
			<path
   d="M 293.003,78.531 C 249.646,3.436 153.619,-22.295 78.529,21.061 3.434,64.411 -22.297,160.443 21.067,235.542 64.417,310.629 160.442,336.364 235.532,293.009 310.628,249.648 336.371,153.621 293.003,78.531 Z M 219.835,265.802 C 159.768,300.487 82.941,279.916 48.259,219.841 13.577,159.762 34.161,82.943 94.23,48.261 c 60.071,-34.69 136.894,-14.106 171.578,45.971 34.685,60.076 14.098,136.886 -45.973,171.57 z m -62.8,-149.367 -55.51,49.005 22.201,22.197 32.57867,-27.46438 34.02733,27.46438 22.201,-22.197 z"
   id="path4236"
   sodipodi:nodetypes="ccccccccccccccccc" />
		</g>
	</g></g></svg>
