<svg width="24" height="24" xmlns="http://www.w3.org/2000/svg" style="vector-effect: non-scaling-stroke;" stroke="null">
 <g stroke="null">
  <title stroke="null">background</title>
  <rect stroke="null" x="-1" y="-1" width="3.5" height="3.5" id="canvas_background" fill="none"/>
 </g>

 <g stroke="null">
  <title stroke="null">Layer 1</title>
  <path style="vector-effect: non-scaling-stroke;" stroke="null" d="m-0.056818,0l24,0l0,24l-24,0l0,-24z" fill="none" id="svg_1"/>
  <rect stroke="null" style="vector-effect: non-scaling-stroke;" id="svg_3" height="27.682957" width="28.465909" y="-1.109093" x="-1.664772" stroke-opacity="null" stroke-width="null" fill="#000000"/>
  <path stroke="null" style="vector-effect: non-scaling-stroke;" fill="#ffffff" d="m12,-1.181818c-7.276363,0 -13.181818,5.905454 -13.181818,13.181818s5.905454,13.181818 13.181818,13.181818s13.181818,-5.905454 13.181818,-13.181818s-5.905454,-13.181818 -13.181818,-13.181818zm0,3.954545c2.188182,0 3.954545,1.766364 3.954545,3.954545s-1.766364,3.954545 -3.954545,3.954545s-3.954545,-1.766364 -3.954545,-3.954545s1.766364,-3.954545 3.954545,-3.954545zm0,18.718181c-3.295454,0 -6.208636,-1.687273 -7.909091,-4.244545c0.039545,-2.623182 5.272727,-4.06 7.909091,-4.06c2.623182,0 7.869545,1.436818 7.909091,4.06c-1.700455,2.557273 -4.613636,4.244545 -7.909091,4.244545z" id="svg_2"/>
  <path stroke="null" style="vector-effect: non-scaling-stroke;" transform="rotate(16.51751136779785 1.0250622034072907,3.3193876743316646) " d="m-0.539854,-2.549057c-0.050432,0 -0.155315,-0.009009 -0.353022,0.118511c-0.257779,0.166266 -0.524301,0.388105 -0.756476,0.651812c-0.334298,0.3797 -0.592204,0.799566 -0.85734,1.303625c-0.29643,0.563555 -0.53706,1.073871 -0.756476,1.77767c-0.186826,0.599263 -0.360017,1.293145 -0.504317,2.60725c-0.084141,0.766248 -0.100863,1.422136 -0.100863,2.19246c0,0.592557 0.018932,1.192111 0.100863,1.599903c0.073281,0.36474 0.238239,0.66501 0.403454,0.888835c0.186919,0.253229 0.507988,0.467047 0.756476,0.651812c0.153652,0.114249 0.356978,0.224571 0.504317,0.296278c0.104185,0.050705 0.353778,0.073736 0.453886,0.059255c0.206378,-0.029852 0.372719,-0.267353 0.504317,-0.414789c0.212823,-0.238436 0.364255,-0.279924 0.554749,-0.474045c0.2694,-0.27453 0.476059,-0.677663 0.756476,-1.066602c0.184401,-0.255765 0.417784,-0.398859 0.655613,-0.711068c0.215363,-0.282718 0.586033,-0.607468 0.958203,-1.007346c0.500704,-0.537981 0.768161,-0.93497 1.008635,-1.244369c0.265611,-0.341743 0.445545,-0.716824 0.655613,-1.125858c0.339725,-0.661496 0.772822,-1.348014 1.15993,-1.955438c0.368981,-0.578979 0.819833,-1.170844 1.008635,-1.422136c0.380543,-0.506496 0.554749,-0.948091 0.706044,-1.303625c0.100863,-0.237023 0.210457,-0.406063 0.252158,-0.474045c0.065937,-0.107489 0.123478,-0.284762 0.201727,-0.533301c0.072142,-0.229141 0.050432,-0.414789 0.050432,-0.533301c0,-0.059256 0.010237,-0.133711 -0.050432,-0.177767c-0.135661,-0.098513 -0.403454,-0.118511 -0.85734,-0.118511c-0.504318,0 -1.260794,0 -2.168565,0c-0.958203,0 -1.916009,0.009098 -2.824178,0.059256c-1.310748,0.072392 -2.221833,0.135954 -3.076336,0.237023c-0.709626,0.083933 -1.412089,0.237023 -2.067702,0.296278l-0.353022,0l-0.201727,0" id="svg_8" stroke-opacity="null" stroke-width="null" fill="#ffffff"/>
  <path stroke="null" style="vector-effect: non-scaling-stroke;" d="m19.227758,-1.835227c-0.054363,0 -0.271816,0 -0.434905,0c-0.108726,0 -0.26556,0.015586 -0.38054,0.056818c-0.262195,0.094024 -0.561922,0.09285 -0.924172,0.227273c-0.298719,0.110847 -0.576848,0.223186 -0.706719,0.340909c-0.091832,0.083243 -0.158324,0.285833 -0.217453,0.454545c-0.100694,0.287306 -0.190217,0.56553 -0.217451,1.022727c-0.006756,0.113417 0.006299,0.338854 0.054363,0.511364c0.062668,0.224925 0.156669,0.458681 0.326179,0.738636c0.104815,0.173109 0.263046,0.350597 0.434903,0.511364c0.259374,0.242636 0.811737,0.572758 1.195987,0.909091c0.592353,0.518486 1.175648,0.941333 1.739617,1.306818c0.578912,0.375168 1.16291,0.641916 1.576529,0.909091c0.462439,0.298711 0.933363,0.612948 1.413438,1.022727c0.388194,0.331351 1.040609,0.781898 1.41344,1.022727c0.33347,0.215403 0.693837,0.532987 1.032896,0.738636c0.315414,0.191309 0.690873,0.322308 1.032898,0.454545c0.420444,0.162557 0.759049,0.255647 1.304713,0.284091c0.162888,0.008491 0.609237,-0.046173 0.706721,-0.170454c0.124269,-0.158427 0.216453,-0.438183 0.271814,-0.738636c0.061683,-0.334758 0.103183,-0.684114 0.054363,-1.25c-0.054584,-0.63268 -0.327378,-1.339249 -0.761082,-2.5c-0.25014,-0.669463 -0.584372,-1.260606 -1.032898,-1.875c-0.422302,-0.578473 -1.043366,-1.237123 -1.685255,-1.818182c-0.552846,-0.500454 -1.079969,-0.920961 -1.413438,-1.136364c-0.372832,-0.240829 -0.924172,-0.511364 -1.413438,-0.681818c-0.326179,-0.113637 -0.594621,-0.255585 -0.924172,-0.284091c-0.270887,-0.023432 -0.597993,-0.056818 -1.032898,-0.170455l-0.108726,0l-0.054363,0" id="svg_9" stroke-opacity="null" stroke-width="null" fill="#ffffff"/>
  <path stroke="null" transform="rotate(50.4608154296875 4.44350337982177,26.210083007812504) " d="m4.004659,22.422307c-0.187381,-0.051701 -0.262864,-0.126585 -0.655835,-0.206803c-0.362302,-0.073958 -1.405361,-0.206805 -2.061197,-0.310206c-0.655835,-0.103401 -1.097307,-0.205854 -1.592743,-0.258504c-0.368001,-0.039107 -0.939188,-0.025473 -1.405362,0c-0.475406,0.025976 -0.947359,0.200197 -1.592743,0.517009c-1.238455,0.607942 -2.019887,1.103292 -2.43596,1.75783c-0.444028,0.698515 -0.635631,1.506222 -0.468454,2.119736c0.189488,0.695392 0.613326,1.399728 1.405362,1.912934c0.731482,0.473971 1.564844,0.85445 2.52965,1.13742c1.369449,0.401646 2.419103,0.646035 3.65394,0.878914c0.925598,0.17456 2.333714,0.382187 3.466558,0.517009c1.023952,0.121863 2.436221,0.204828 3.747631,0.258505c1.218232,0.049865 2.43596,0.051701 3.841322,0.051701c0.749526,0 1.405362,0 1.967506,0c0.281071,0 0.573,-0.049832 0.655835,-0.206805c0.108002,-0.204666 0.09369,-0.413606 0.09369,-0.723812c0,-0.258504 -0.286069,-0.722177 -0.562144,-0.982318c-0.381717,-0.359685 -0.843217,-0.672111 -1.311671,-0.930615c-0.562145,-0.310206 -1.239784,-0.554919 -1.780125,-0.827215c-0.39136,-0.197219 -0.770968,-0.45133 -1.217979,-0.672111c-0.691101,-0.341339 -1.322287,-0.663583 -1.873816,-0.878914c-0.382418,-0.149305 -0.562144,-0.258505 -0.655835,-0.310206l-0.093691,-0.051701l-0.093691,-0.051701" id="svg_10" stroke-opacity="null" stroke-width="null" fill="#ffffff"/>
  <path stroke="null" transform="rotate(-45.43946075439453 20.369127273559556,24.59272956848144) " d="m24.491081,20.834125c-0.193996,0.093094 -0.690444,0.110567 -1.357974,0.186189c-0.59706,0.067639 -1.3452,0.153076 -1.745969,0.232737c-0.283384,0.056329 -0.387992,0.093094 -0.484993,0.139641c-0.096998,0.046547 -0.230081,0.064471 -0.581988,0.186189c-0.222565,0.076981 -0.783567,0.181466 -1.163978,0.325831c-0.594224,0.225507 -1.186553,0.499604 -1.745969,0.744757c-0.506467,0.221951 -1.109298,0.485938 -1.745969,0.744756c-0.523341,0.212746 -0.999682,0.453468 -1.648968,0.837851c-0.305399,0.180798 -0.581991,0.372377 -0.872985,0.558567c-0.290994,0.186189 -0.627714,0.523703 -0.969982,0.83785c-0.423982,0.389148 -0.812726,0.643847 -0.969982,0.837851c-0.256,0.315819 -0.330644,0.653021 -0.387992,0.930946c-0.048735,0.236189 -0.096998,0.418926 -0.096998,0.51202c0,0.139641 0.077099,0.242986 0.387992,0.372379c0.36639,0.15249 0.854551,0.216237 1.745969,0.32583c1.050543,0.129157 3.006945,0.139641 4.558915,0.139641c1.551973,0 3.301843,0.052794 4.849912,0c1.368309,-0.046664 2.487965,-0.179055 3.588933,-0.51202c0.93564,-0.282964 1.691754,-0.635954 2.424955,-1.117134c0.61929,-0.406424 1.269494,-1.116336 1.454975,-1.582607c0.203348,-0.511184 0.290994,-1.02404 0.290994,-1.53606c0,-0.465473 0.025939,-0.980454 -0.193996,-1.396418c-0.173668,-0.32846 -0.364922,-0.673983 -0.678989,-0.977491c-0.431403,-0.416902 -1.192463,-0.580599 -1.745966,-0.744757c-0.412559,-0.122356 -0.861494,-0.288141 -1.163982,-0.372379c-0.375188,-0.104484 -0.775983,-0.093094 -1.163978,-0.093094c-0.48499,0 -0.678985,0 -0.969982,0c-0.193996,0 -0.775983,0.093094 -1.260976,0.186189l-0.48499,0l-0.193996,0" id="svg_11" stroke-opacity="null" stroke-width="null" fill="#ffffff"/>
 </g>
</svg>