<svg width="24" height="24" xmlns="http://www.w3.org/2000/svg">
 <g>
  <title>background</title>
  <rect x="-1" y="-1" width="26" height="26" id="canvas_background" fill="none"/>
 </g>

 <g>
  <title>Layer 1</title>
  <g id="svg_1">
   <path d="m0,0l24,0l0,24l-24,0l0,-24z" fill="#ffffff" id="svg_2"/>
   <path stroke="null" d="m18.638223,12.873939c0.037189,-0.278917 0.055783,-0.567131 0.055783,-0.87394c0,-0.297511 -0.018594,-0.595023 -0.065081,-0.87394l1.887338,-1.468962c0.16735,-0.130161 0.213836,-0.381186 0.111567,-0.567131l-1.785068,-3.08668c-0.111567,-0.204539 -0.343998,-0.26962 -0.548537,-0.204539l-2.222038,0.892534c-0.464862,-0.353295 -0.957615,-0.650806 -1.506151,-0.87394l-0.3347,-2.361496c-0.037189,-0.223134 -0.223134,-0.381186 -0.446267,-0.381186l-3.570136,0c-0.223134,0 -0.399781,0.158053 -0.43697,0.381186l-0.3347,2.361496c-0.548537,0.223134 -1.050587,0.529942 -1.506151,0.87394l-2.222038,-0.892534c-0.204539,-0.074378 -0.43697,0 -0.548537,0.204539l-1.775771,3.08668c-0.111567,0.195242 -0.074378,0.43697 0.111567,0.567131l1.887338,1.468962c-0.046486,0.278917 -0.083675,0.585726 -0.083675,0.87394s0.018594,0.595023 0.065081,0.87394l-1.887338,1.468962c-0.16735,0.130161 -0.213836,0.381186 -0.111567,0.567131l1.785068,3.08668c0.111567,0.204539 0.343998,0.26962 0.548537,0.204539l2.222038,-0.892534c0.464862,0.353295 0.957615,0.650806 1.506151,0.87394l0.3347,2.361496c0.046486,0.223134 0.223134,0.381186 0.446267,0.381186l3.570136,0c0.223134,0 0.409078,-0.158053 0.43697,-0.381186l0.3347,-2.361496c0.548537,-0.223134 1.050587,-0.520645 1.506151,-0.87394l2.222038,0.892534c0.204539,0.074378 0.43697,0 0.548537,-0.204539l1.785068,-3.08668c0.111567,-0.204539 0.065081,-0.43697 -0.111567,-0.567131l-1.868743,-1.468962zm-6.638222,2.473063c-1.840852,0 -3.347003,-1.506151 -3.347003,-3.347003s1.506151,-3.347003 3.347003,-3.347003s3.347003,1.506151 3.347003,3.347003s-1.506151,3.347003 -3.347003,3.347003z" id="svg_3" fill="#000000"/>
  </g>
 </g>
</svg>